<svg clip-rule="evenodd" fill-rule="evenodd" height="512" image-rendering="optimizeQuality" shape-rendering="geometricPrecision" text-rendering="geometricPrecision" viewBox="0 0 43.3492 43.3492" width="512" xmlns="http://www.w3.org/2000/svg"><g id="Layer_x0020_1"><g id="_211849696"><path id="_211850464" d="m16.9118 19.867h-6.08c-.2611 0-.4732-.2119-.4732-.4732.0001-.2612.212-.4732.4732-.4732l6.08-.0001c.2613 0 .4732.2121.4732.4733.0001.2613-.212.4733-.4732.4732z"/><path id="_211850152" d="m13.8714 29.1185c-.2613 0-.4733-.2119-.4733-.4732v-9.2515c0-.2612.212-.4732.4732-.4732.2623-.0001.4733.212.4733.4732v9.2514c0 .2614-.211.4734-.4732.4733z"/><path id="_211850224" d="m16.9118 29.1185h-6.08c-.2611 0-.4732-.2119-.4732-.4732.0001-.2613.212-.4732.4732-.4732h6.08c.2613 0 .4732.212.4732.4732.0001.2613-.212.4733-.4732.4732z"/><path id="_211849312" d="m21.6746 29.1185c-1.9372 0-3.5127-1.2491-3.5127-2.786 0-.2613.2119-.4733.4732-.4733.2614-.0001.4732.212.4732.4733.0001 1.0144 1.1505 1.8396 2.5663 1.8396 1.4148 0 2.5662-.8252 2.5662-1.8396 0-1.3004-1.0076-1.5489-2.651-1.8476-1.5271-.2761-3.4279-.6211-3.4279-2.7782 0-1.536 1.5754-2.7861 3.5127-2.7861 1.9373-.0001 3.5127 1.2501 3.5127 2.7861.0001.2612-.212.4732-.4732.4732-.2613 0-.4733-.2119-.4733-.4732 0-1.0145-1.1515-1.8396-2.5662-1.8396-1.4157-.0001-2.5663.8251-2.5663 1.8396.0001 1.3014 1.0066 1.5498 2.6501 1.8475 1.5282.277 3.4289.6212 3.4289 2.7783.0001 1.5369-1.5755 2.7861-3.5127 2.786z"/><path id="_211849936" d="m29.9501 19.867c-1.391 0-2.5663 1.9018-2.5663 4.1526.0001 2.2507 1.1752 4.1525 2.5663 4.1525s2.5662-1.9017 2.5662-4.1525c.0001-2.2509-1.1751-4.1525-2.5662-4.1526zm0 9.2515c-1.9698 0-3.5127-2.2389-3.5127-5.0989.0001-2.8591 1.5429-5.099 3.5127-5.099 1.9698-.0001 3.5127 2.2399 3.5127 5.099 0 2.86-1.5429 5.099-3.5127 5.0989z"/><path id="_211849840" d="m35.1852 17.1016c-.2613 0-.4733-.2119-.4733-.4732v-9.1766c-1.4443-.2071-2.589-1.3526-2.797-2.7959l-20.4806-.0001c-.208 1.4434-1.3537 2.589-2.797 2.7961v9.1765c0 .2612-.212.4732-.4732.4732s-.4733-.2119-.4733-.4732v-9.6153c0-.2613.212-.4732.4733-.4732 1.2994 0 2.3572-1.0578 2.3572-2.3573.0001-.2612.212-.4732.4732-.4732h21.3602c.2612 0 .4722.212.4722.4732.0001 1.2994 1.0578 2.3573 2.3582 2.3573.2613 0 .4732.212.4732.4732l.0001 9.6153c0 .2612-.2121.4732-.4732.4732z"/><path id="_211849960" d="m32.3547 39.6398h-21.3602c-.2611 0-.4732-.2119-.4732-.4731.0001-1.2995-1.0578-2.3573-2.3572-2.3573-.2612-.0001-.4733-.2119-.4733-.4732v-4.9245c0-.2623.212-.4732.4733-.4732.2613-.0001.4732.211.4732.4732v4.4847c1.4434.2081 2.5889 1.3537 2.7969 2.797h20.4807c.2081-1.4433 1.3527-2.5889 2.797-2.7969v-4.4848c0-.2623.2119-.4732.4732-.4732.2613-.0001.4732.211.4732.4732l.0001 4.9245c0 .2612-.2121.4732-.4733.4732-1.3004-.0001-2.3582 1.0579-2.3582 2.3573.0001.2611-.211.4732-.4722.4731z"/><path id="_211849672" d="m38.8269 17.1016c-.2611 0-.4732-.2119-.4732-.4732l.0001-15.6154h-33.3593v15.6154c0 .2612-.212.4732-.4733.4732-.2612 0-.4732-.2119-.4732-.4732v-16.0886c0-.2613.212-.4732.4732-.4732l34.3057-.0001c.2623 0 .4733.2121.4733.4733v16.0886c0 .2612-.211.4732-.4733.4732zm0 26.1811h-34.3056c-.2613 0-.4733-.2119-.4733-.4732v-11.3978c0-.2623.212-.4732.4732-.4732.2613-.0001.4732.211.4732.4732l.0001 10.9245h33.3593v-10.9245c0-.2623.2119-.4732.4731-.4732.2614-.0001.4733.211.4733.4732v11.3977c0 .2614-.212.4733-.4733.4733z"/><path id="_211850008" d="m.4733 14.7562c-.2614 0-.4733-.2119-.4733-.4732 0-1.5538 1.2639-2.8186 2.8186-2.8186h1.7027c.2612 0 .4731.212.4731.4732.0001.2612-.2119.4732-.4732.4732h-1.7025c-1.0322 0-1.8723.84-1.8723 1.8722.0001.2613-.212.4733-.4731.4732z"/><path id="_211849360" d="m.9465 16.3878v12.9289c0 .9277.4682 1.6218.8872 1.6218l39.6809-.0001c.4189 0 .8881-.694.8881-1.6217l.0001-12.9289c-.4979.4437-1.1545.7138-1.8723.7138h-37.7118c-.7187 0-1.3744-.2701-1.8722-.7138zm40.5681 15.497h-39.6808c-1.0284 0-1.8338-1.1277-1.8338-2.5681v-15.0337c0-.2613.2119-.4732.4732-.4732.2614-.0001.4732.2119.4732.4732.0001 1.0322.84 1.8722 1.8722 1.8722l37.7119-.0001c1.0323 0 1.8722-.8399 1.8722-1.8721.0001-.2613.212-.4732.4733-.4732.2613-.0001.4732.2119.4732.4732l.0001 15.0337c0 1.4404-.8056 2.5682-1.8347 2.5681z"/><path id="_211849528" d="m42.876 14.7562c-.2613 0-.4733-.2119-.4733-.4732.0001-1.0323-.8399-1.8722-1.8722-1.8722h-1.7025c-.2622 0-.4733-.2119-.4733-.4732.0001-.2613.211-.4732.4732-.4732h1.7026c1.5548 0 2.8187 1.2649 2.8187 2.8186.0001.2613-.212.4733-.4732.4732z"/></g></g></svg>