<svg id="Layer_1" enable-background="new 0 0 512 512" height="512" viewBox="0 0 512 512" width="512" xmlns="http://www.w3.org/2000/svg"><path d="m94.258 371.491c23.803 0 43.168-19.365 43.168-43.168 0-23.8-19.365-43.163-43.168-43.163s-43.168 19.363-43.168 43.163c-.001 23.803 19.365 43.168 43.168 43.168zm0-72.331c16.083 0 29.168 13.082 29.168 29.163 0 16.083-13.085 29.168-29.168 29.168s-29.168-13.085-29.168-29.168c-.001-16.081 13.084-29.163 29.168-29.163zm0 79.175c-47.011 0-85.258 38.244-85.258 85.252 0 9.21 5.038 22.043 29.036 30.879 14.948 5.504 34.914 8.534 56.219 8.534 42.436 0 85.255-12.187 85.255-39.413 0-47.008-38.244-85.252-85.252-85.252zm-.003 110.665c-39.956 0-71.255-11.163-71.255-25.413 0-39.288 31.966-71.252 71.258-71.252 39.289 0 71.252 31.964 71.252 71.252 0 14.25-31.299 25.413-71.255 25.413zm316.51-171.649v-13.735c0-3.866 3.134-7 7-7s7 3.134 7 7v13.735c0 3.866-3.134 7-7 7s-7-3.134-7-7zm-37.364 13.762-6.867-11.895c-1.933-3.348-.786-7.629 2.562-9.562 3.349-1.931 7.629-.786 9.562 2.562l6.867 11.895c1.933 3.348.786 7.629-2.562 9.562-1.103.636-2.306.938-3.494.938-2.418.001-4.771-1.254-6.068-3.5zm-15.914 28.039c-1.296 2.246-3.649 3.501-6.068 3.501-1.188 0-2.392-.303-3.494-.938l-11.895-6.868c-3.348-1.934-4.495-6.215-2.562-9.562 1.934-3.35 6.217-4.493 9.562-2.562l11.895 6.868c3.348 1.932 4.495 6.214 2.562 9.561zm111.509-39.933-6.867 11.895c-1.296 2.245-3.649 3.501-6.068 3.501-1.188 0-2.391-.303-3.494-.938-3.348-1.934-4.495-6.215-2.562-9.562l6.867-11.895c1.933-3.348 6.215-4.493 9.562-2.562 3.348 1.932 4.495 6.213 2.562 9.561zm30.504 35.628-11.895 6.868c-1.102.636-2.306.938-3.494.938-2.419 0-4.771-1.255-6.068-3.501-1.933-3.348-.786-7.629 2.562-9.562l11.895-6.868c3.348-1.93 7.629-.786 9.562 2.562s.786 7.629-2.562 9.563zm-81.735-19.372c-27.417 0-49.722 22.305-49.722 49.722 0 13.901 4.531 20.913 8.912 27.694 4.048 6.265 8.217 12.726 10.079 26.957-4.144 2.449-6.938 6.951-6.938 12.103v15.243c0 7.754 6.309 14.062 14.062 14.062h.26v.081c0 7.534 6.129 13.663 13.663 13.663h19.368c7.534 0 13.663-6.129 13.663-13.663v-.081h.26c7.754 0 14.063-6.309 14.063-14.062v-15.244c0-5.152-2.794-9.654-6.938-12.103 1.862-14.23 6.031-20.692 10.079-26.957 4.382-6.781 8.913-13.793 8.913-27.694-.002-27.417-22.307-49.721-49.724-49.721zm23.606 131.781h-7.26c-3.866 0-7 3.134-7 7v6.744h-18.693v-6.744c0-3.866-3.134-7-7-7l-7.322-.062.055-15.306h.007l47.275.062zm5.445-61.963c-4.454 6.892-9.882 15.292-12.183 32.595h-33.737c-2.301-17.303-7.729-25.703-12.182-32.595-4.017-6.218-6.671-10.324-6.671-20.097 0-19.697 16.024-35.722 35.722-35.722s35.722 16.024 35.722 35.722c0 9.773-2.654 13.879-6.671 20.097zm-306.644-135.595h231.656c8.007 0 14.521-6.515 14.521-14.521v-10.866c0-8.007-6.514-14.521-14.521-14.521h-10.4v-11.388c0-7.869-6.296-14.282-14.114-14.501-1.159-16.849-1.748-34.628-1.748-52.958 0-16.433.474-32.486 1.412-47.819h25.853c7.454 0 13.519-6.064 13.519-13.519v-12.698c0-7.454-6.064-13.518-13.519-13.518h-16.377l-96.798-53.515c-2.107-1.166-4.666-1.166-6.773 0l-96.799 53.516h-16.916c-7.454 0-13.518 6.063-13.518 13.518v12.697c0 7.454 6.064 13.519 13.518 13.519h25.853c.938 15.334 1.413 31.388 1.413 47.819 0 18.332-.589 36.111-1.749 52.958-7.817.219-14.113 6.632-14.113 14.501v11.388h-10.401c-8.007 0-14.521 6.515-14.521 14.521v10.866c.001 8.007 6.515 14.521 14.522 14.521zm193.105-65.818h-14.294c1.136-16.875 1.711-34.645 1.711-52.938 0-16.414-.466-32.462-1.387-47.819h13.644c-.92 15.358-1.386 31.408-1.386 47.819.001 18.293.576 36.063 1.712 52.938zm-56.094 0c-1.158-16.847-1.747-34.619-1.747-52.938 0-16.435.474-32.488 1.412-47.819h28.435c.938 15.331 1.412 31.385 1.412 47.819 0 18.323-.589 36.095-1.747 52.938zm-70.131 0c-1.158-16.843-1.747-34.615-1.747-52.938 0-16.435.475-32.488 1.412-47.819h28.435c.938 15.334 1.413 31.388 1.413 47.819 0 18.32-.589 36.092-1.747 52.938zm42.126-100.757h13.645c-.921 15.357-1.387 31.405-1.387 47.819 0 18.288.575 36.057 1.711 52.938h-14.294c1.137-16.878 1.712-34.648 1.712-52.938 0-16.41-.466-32.46-1.387-47.819zm7.091-79.124 71.25 39.391h-142.5zm-116.618 53.391h232.699v11.733h-232.699zm53.04 25.733c-.921 15.357-1.387 31.405-1.387 47.819 0 18.293.575 36.062 1.711 52.938h-14.293c1.136-16.874 1.711-34.643 1.711-52.938 0-16.41-.466-32.46-1.387-47.819zm-28.118 115.278c0-.277.244-.521.521-.521h181.812c.278 0 .521.244.521.521v11.388h-182.854zm-24.922 25.91c0-.278.244-.521.521-.521h17.401 196.855 17.4c.278 0 .521.243.521.521v10.866c0 .277-.244.521-.521.521h-231.656c-.277 0-.521-.244-.521-.521z"/></svg>