<svg id="Capa_1" enable-background="new 0 0 512 512" height="512" viewBox="0 0 512 512" width="512" xmlns="http://www.w3.org/2000/svg"><g><path d="m469.942 164.62h-42.026c-6.015-15.694-16.532-29.679-30.062-39.793-15.548-11.623-34.052-17.767-53.513-17.767h-.822v-32.49c0-32.896-26.764-59.66-59.66-59.66h-3.501c-4.734-8.863-14.075-14.91-24.806-14.91h-70.524c-10.73 0-20.072 6.047-24.805 14.91h-4.834c-32.891 0-59.649 26.764-59.649 59.66v32.49h-1.138c-15.084 0-29.999 3.833-43.135 11.084-3.626 2.002-4.942 6.564-2.941 10.19 2.002 3.626 6.562 4.942 10.191 2.941 10.921-6.029 23.33-9.216 35.885-9.216h249.74c29.259 0 55.147 16.738 67.302 42.56h-105.362c-11.819 0-22.938 4.604-31.314 12.967l-59.949 59.95c-8.361 8.362-12.967 19.483-12.967 31.313v86h-46.912v-15.489c0-19.538-15.896-35.434-35.434-35.434s-35.434 15.896-35.434 35.434v14.76c-16.384-2.26-31.492-9.881-43.163-21.927-13.495-13.93-20.938-32.28-20.969-51.681v-83.992c0-17.567 6.235-34.621 17.559-48.019 2.674-3.164 2.276-7.896-.888-10.569-3.163-2.673-7.896-2.275-10.569.887-13.607 16.102-21.101 36.594-21.101 57.701h-.003v83.87c0 .041.003.082.003.122v59.198c0 49.329 40.132 89.46 89.46 89.46h107.45v45.9c0 20.363 16.567 36.93 36.931 36.93h184.8c4.143 0 7.5-3.358 7.5-7.5s-3.357-7.5-7.5-7.5h-184.8c-12.093 0-21.931-9.838-21.931-21.93v-199.975c.021-7.714 6.301-13.982 14.02-13.982h30.542c20.361 0 36.927-16.565 36.927-36.926v-30.543c0-7.731 6.29-14.021 14.021-14.021.016 0 .032-.002.048-.002h157.333c12.087 0 21.92 9.837 21.92 21.93v273.52c0 12.092-9.833 21.93-21.92 21.93h-16.16c-4.143 0-7.5 3.358-7.5 7.5s3.357 7.5 7.5 7.5h16.16c20.357 0 36.92-16.567 36.92-36.93v-273.521c0-20.363-16.563-36.93-36.92-36.93zm-141.423-90.05v32.49h-15v-32.49c0-16.354-13.306-29.66-29.66-29.66h-.202v-15h.202c24.626 0 44.66 20.034 44.66 44.66zm-167.564-14.66c4.925 8.154 13.872 13.618 24.073 13.618h70.524c10.201 0 19.148-5.464 24.073-13.618h4.233c8.084 0 14.66 6.577 14.66 14.66v32.49h-157.78v-32.49c0-8.083 6.571-14.66 14.649-14.66zm10.968-31.806c0-7.226 5.879-13.104 13.104-13.104h70.524c7.226 0 13.104 5.878 13.104 13.104v17.318c0 7.226-5.879 13.104-13.104 13.104h-70.524c-7.226 0-13.104-5.878-13.104-13.104zm-61.184 46.466c0-24.625 20.029-44.66 44.649-44.66h1.535v15h-1.535c-16.349 0-29.649 13.306-29.649 29.66v32.49h-15zm-11.466 264.791c0-11.267 9.166-20.434 20.434-20.434s20.434 9.167 20.434 20.434v22.613c0 11.267-9.166 20.434-20.434 20.434s-20.434-9.167-20.434-20.434zm-4.672 74.809c-41.058 0-74.46-33.403-74.46-74.46v-9.725c2.988 4.471 6.383 8.71 10.196 12.646 14.692 15.166 33.924 24.482 54.704 26.678 3.388 16.03 17.642 28.098 34.665 28.098 16.831 0 30.948-11.799 34.54-27.558h47.804v44.32h-107.449zm188.939-189.983c0 12.09-9.836 21.926-21.927 21.926h-30.542c-1.238 0-2.455.087-3.653.238l56.359-56.36c-.151 1.198-.238 2.415-.238 3.653v30.543z"/><path d="m236.007 354.185c0 4.142 3.357 7.5 7.5 7.5h221.9c4.143 0 7.5-3.358 7.5-7.5s-3.357-7.5-7.5-7.5h-221.9c-4.142 0-7.5 3.357-7.5 7.5z"/><path d="m243.507 394.108h221.9c4.143 0 7.5-3.358 7.5-7.5s-3.357-7.5-7.5-7.5h-221.9c-4.143 0-7.5 3.358-7.5 7.5s3.358 7.5 7.5 7.5z"/><path d="m472.908 419.032c0-4.142-3.357-7.5-7.5-7.5h-221.9c-4.143 0-7.5 3.358-7.5 7.5s3.357 7.5 7.5 7.5h221.9c4.142 0 7.5-3.358 7.5-7.5z"/><path d="m243.507 443.955c-4.143 0-7.5 3.358-7.5 7.5s3.357 7.5 7.5 7.5h157.584c4.143 0 7.5-3.358 7.5-7.5s-3.357-7.5-7.5-7.5z"/><path d="m253.601 322.66 2.373-6.23h16.825l2.343 6.209c1.133 3.004 3.987 4.854 7.018 4.854.88 0 1.775-.156 2.647-.485 3.875-1.463 5.831-5.79 4.368-9.665l-16.762-44.415c-.026-.07-.054-.139-.082-.208-1.32-3.207-4.412-5.276-7.879-5.276-.003 0-.007 0-.01 0-3.471.004-6.562 2.083-7.876 5.295-.023.056-.046.113-.067.17l-16.916 44.413c-1.475 3.871.469 8.204 4.339 9.678 3.87 1.471 8.204-.469 9.679-4.34zm13.537-21.231h-5.45l2.738-7.188z"/><path d="m421.559 319.99v-45.047c0-4.142-3.357-7.5-7.5-7.5s-7.5 3.358-7.5 7.5v45.047c0 4.142 3.357 7.5 7.5 7.5s7.5-3.358 7.5-7.5z"/><path d="m353.031 325.313c1.404 1.395 3.304 2.177 5.283 2.177h.028c.386-.001 9.496-.037 13.143-.1 14.595-.255 25.188-12.84 25.188-29.924 0-17.958-10.324-30.023-25.691-30.023h-12.758c-1.991 0-3.901.792-5.309 2.202-1.406 1.41-2.195 3.321-2.191 5.312l.091 45.06c.006 1.989.804 3.895 2.216 5.296zm17.95-42.87c9.921 0 10.691 11.499 10.691 15.023 0 7.338-3.231 14.8-10.449 14.926-1.29.022-3.342.042-5.435.057-.016-5.131-.043-24.655-.053-30.006z"/><path d="m302.882 267.443c-4.143 0-7.5 3.358-7.5 7.5v30.998c0 7.477 3.542 13.531 10.529 17.996 3.683 2.353 7.831 3.548 12.33 3.554h.039c3.858 0 7.487-.842 10.786-2.504 8.137-4.097 12.617-10.873 12.617-19.079v-30.965c0-4.142-3.357-7.5-7.5-7.5s-7.5 3.358-7.5 7.5v30.965c0 1.218 0 3.484-4.363 5.681-1.204.606-2.525.901-4.041.901-.006 0-.012 0-.018 0-1.622-.002-3.021-.393-4.275-1.194-3.329-2.127-3.604-3.747-3.604-5.355v-30.998c0-4.142-3.357-7.5-7.5-7.5z"/><path d="m450.33 327.49c4.143 0 7.5-3.358 7.5-7.5v-37.547h4.989c4.143 0 7.5-3.358 7.5-7.5s-3.357-7.5-7.5-7.5h-24.878c-4.143 0-7.5 3.358-7.5 7.5s3.357 7.5 7.5 7.5h4.889v37.547c0 4.142 3.357 7.5 7.5 7.5z"/></g></svg>