<?xml version="1.0"?>
<svg xmlns="http://www.w3.org/2000/svg" id="Layer_1" data-name="Layer 1" viewBox="0 0 512 512"><defs><style>.cls-1{fill-rule:evenodd;}</style></defs><path class="cls-1" d="M283.824,133.475a31.794,31.794,0,1,0,22.557,9.147,31.661,31.661,0,0,0-22.557-9.147Zm-27.9,4.056a39.521,39.521,0,1,1-11.358,28.008,39.4,39.4,0,0,1,11.358-28.008Zm7.646-22.157a53.844,53.844,0,0,1,9.487-2.9,3.865,3.865,0,0,0,3.011-3.059l2.458-12.592,11.2-.083,2.7,12.808a3.867,3.867,0,0,0,2.983,3,53.556,53.556,0,0,1,18.2,7.607,3.875,3.875,0,0,0,4.359-.08l10.57-7.121,7.98,7.862-7.152,10.966a3.865,3.865,0,0,0,.042,4.273,53.511,53.511,0,0,1,7.447,18.193,3.868,3.868,0,0,0,3.058,3.011l12.593,2.457.083,11.2-12.808,2.7a3.868,3.868,0,0,0-3,2.984,53.578,53.578,0,0,1-7.607,18.205,3.874,3.874,0,0,0,.08,4.358l7.121,10.57-7.862,7.981-10.966-7.152a3.863,3.863,0,0,0-4.273.041,53.533,53.533,0,0,1-18.193,7.447,3.869,3.869,0,0,0-3.011,3.059l-2.457,12.592-11.2.084-2.695-12.809a3.868,3.868,0,0,0-2.984-3,53.55,53.55,0,0,1-18.205-7.606,3.872,3.872,0,0,0-4.358.08l-10.57,7.12-7.981-7.862,7.153-10.966a3.866,3.866,0,0,0-.042-4.274,53.526,53.526,0,0,1-7.446-18.191,3.867,3.867,0,0,0-3.058-3.011l-12.594-2.458-.084-11.2,12.806-2.7a3.865,3.865,0,0,0,3-2.983,53.533,53.533,0,0,1,7.608-18.207,3.875,3.875,0,0,0-.08-4.359l-7.12-10.568,7.863-7.98,10.965,7.152a3.866,3.866,0,0,0,4.274-.042,53.576,53.576,0,0,1,8.705-4.547Zm-10.818-3.228a61.412,61.412,0,0,1,16.2-6.661l2.578-13.226a3.87,3.87,0,0,1,4.029-3.136l17.286-.129a3.863,3.863,0,0,1,3.8,3.075l2.843,13.489a61.465,61.465,0,0,1,16.168,6.736l11.178-7.531a3.873,3.873,0,0,1,5.043.62L344.2,117.52a3.867,3.867,0,0,1,.463,4.963l-7.472,11.455a61.412,61.412,0,0,1,6.661,16.2l13.226,2.579a3.869,3.869,0,0,1,3.136,4.029l.129,17.285a3.862,3.862,0,0,1-3.075,3.8l-13.489,2.844a61.465,61.465,0,0,1-6.736,16.168l7.53,11.177a3.872,3.872,0,0,1-.619,5.043l-12.137,12.32a3.866,3.866,0,0,1-4.963.464L315.4,218.372a61.454,61.454,0,0,1-16.2,6.66l-2.579,13.226a3.869,3.869,0,0,1-4.029,3.136l-17.285.129a3.861,3.861,0,0,1-3.8-3.074l-2.844-13.49a61.418,61.418,0,0,1-16.168-6.735l-11.177,7.53a3.873,3.873,0,0,1-5.043-.62L223.953,213a3.866,3.866,0,0,1-.464-4.963l7.472-11.455a61.471,61.471,0,0,1-6.659-16.2L211.075,177.8a3.87,3.87,0,0,1-3.136-4.03l-.129-17.285a3.863,3.863,0,0,1,3.074-3.8l13.487-2.843a61.384,61.384,0,0,1,6.737-16.17L223.579,122.5a3.872,3.872,0,0,1,.619-5.043l12.138-12.32a3.867,3.867,0,0,1,4.963-.463l11.455,7.472Zm-109.436,206.1a43.506,43.506,0,1,0,43.167-43.842,43.526,43.526,0,0,0-43.167,43.842Zm43.136-51.565A51.229,51.229,0,1,1,135.6,318.279a51.21,51.21,0,0,1,50.859-51.595ZM159.1,250.449a72.224,72.224,0,0,0-11.8,6.166,3.865,3.865,0,0,1-4.273.041l-15.44-10.07-11.908,12.086L125.735,273.6a3.875,3.875,0,0,1,.08,4.359,72.441,72.441,0,0,0-10.288,24.628,3.867,3.867,0,0,1-3,2.983l-18.035,3.8.126,16.965L112.38,329.8a3.867,3.867,0,0,1,3.059,3.011,72.435,72.435,0,0,0,10.087,24.627,3.866,3.866,0,0,1,.041,4.274L115.5,377.149l12.087,11.908L142.514,379a3.873,3.873,0,0,1,4.359-.079A72.444,72.444,0,0,0,171.5,389.2a3.868,3.868,0,0,1,2.983,3l3.8,18.039,16.965-.127,3.464-17.755a3.865,3.865,0,0,1,3.011-3.059,72.4,72.4,0,0,0,24.629-10.089,3.865,3.865,0,0,1,4.273-.041l15.44,10.07,11.908-12.087-10.059-14.931a3.873,3.873,0,0,1-.081-4.359,72.432,72.432,0,0,0,10.287-24.624,3.866,3.866,0,0,1,3-2.983l18.039-3.8-.127-16.965-17.756-3.464a3.867,3.867,0,0,1-3.058-3.011,72.4,72.4,0,0,0-10.089-24.629,3.866,3.866,0,0,1-.041-4.274l10.07-15.439-12.087-11.908-14.931,10.06a3.873,3.873,0,0,1-4.359.079,72.456,72.456,0,0,0-24.624-10.286,3.866,3.866,0,0,1-2.983-3l-3.8-18.039-16.965.127-3.464,17.755a3.868,3.868,0,0,1-3.011,3.059,72.67,72.67,0,0,0-12.831,3.923Zm-13.923-1.618-15.917-10.382a3.867,3.867,0,0,0-4.963.463L108.11,255.338a3.872,3.872,0,0,0-.619,5.043l10.459,15.525a80.286,80.286,0,0,0-9.422,22.605l-18.7,3.941a3.864,3.864,0,0,0-3.075,3.8l.172,23.049a3.871,3.871,0,0,0,3.136,4.03l18.378,3.583a80.338,80.338,0,0,0,9.307,22.65L107.36,375.478a3.867,3.867,0,0,0,.463,4.963l16.426,16.182a3.873,3.873,0,0,0,5.043.62l15.527-10.461a80.291,80.291,0,0,0,22.6,9.421l3.941,18.706a3.864,3.864,0,0,0,3.8,3.075l23.049-.173a3.87,3.87,0,0,0,4.03-3.136L205.82,396.3a80.324,80.324,0,0,0,22.651-9.308l15.918,10.382a3.867,3.867,0,0,0,4.963-.463l16.182-16.426a3.873,3.873,0,0,0,.62-5.043l-10.461-15.528a80.269,80.269,0,0,0,9.421-22.6l18.706-3.942a3.861,3.861,0,0,0,3.074-3.8l-.171-23.048a3.872,3.872,0,0,0-3.137-4.03l-18.375-3.582a80.309,80.309,0,0,0-9.309-22.652l10.383-15.917a3.867,3.867,0,0,0-.463-4.963L249.4,239.2a3.873,3.873,0,0,0-5.043-.62l-15.528,10.461a80.3,80.3,0,0,0-22.6-9.421l-3.942-18.706a3.863,3.863,0,0,0-3.8-3.075l-23.048.172a3.872,3.872,0,0,0-4.03,3.137l-3.582,18.375a80.346,80.346,0,0,0-22.652,9.308Zm213.044,31.722a18.03,18.03,0,1,0,21.867,13.115,18.018,18.018,0,0,0-21.867-13.115Zm-1.877-7.511A25.771,25.771,0,1,1,337.592,304.3a25.775,25.775,0,0,1,18.748-31.255Zm-17.113-7.159a39.66,39.66,0,0,1,3.959-2.537,3.866,3.866,0,0,0,1.983-3.543l-.383-8.48,12.253-3.065,3.753,7.866a3.874,3.874,0,0,0,3.63,2.207,39.325,39.325,0,0,1,9,1.463,3.871,3.871,0,0,0,4.092-1.34l5.524-6.046,10.839,6.5-2.911,8.222a3.869,3.869,0,0,0,1.02,4.127,41.14,41.14,0,0,1,5.305,7.378,3.864,3.864,0,0,0,3.543,1.983l8.48-.382,3.065,12.253-7.865,3.752a3.875,3.875,0,0,0-2.207,3.63,39.279,39.279,0,0,1-1.463,9,3.87,3.87,0,0,0,1.12,3.907l6.26,5.719-6.5,10.829-8.222-2.911a3.872,3.872,0,0,0-4.127,1.02A41.3,41.3,0,0,1,382,332.741a3.865,3.865,0,0,0-1.984,3.543l.383,8.479-12.253,3.066-3.752-7.866a3.877,3.877,0,0,0-3.63-2.207,39.322,39.322,0,0,1-9-1.463,3.869,3.869,0,0,0-4.091,1.34l-5.524,6.046-10.839-6.5,2.911-8.222a3.872,3.872,0,0,0-1.02-4.127,41.272,41.272,0,0,1-5.305-7.378,3.867,3.867,0,0,0-3.543-1.984l-8.481.383L312.808,303.6l7.864-3.751a3.875,3.875,0,0,0,2.207-3.63,39.341,39.341,0,0,1,1.463-9A3.87,3.87,0,0,0,323,283.123l-6.046-5.523,6.5-10.839,8.221,2.911a3.874,3.874,0,0,0,4.128-1.02,39.744,39.744,0,0,1,3.419-2.769Zm-7.1-4.263-9.068-3.2a3.864,3.864,0,0,0-4.6,1.661l-9.747,16.26a3.859,3.859,0,0,0,.707,4.827l6.883,6.289q-.353,1.551-.606,3.151t-.4,3.223l-8.678,4.142a3.872,3.872,0,0,0-2.09,4.434l4.606,18.389a3.865,3.865,0,0,0,3.916,2.924l9.326-.421q.859,1.379,1.789,2.659t2,2.557l-3.206,9.068a3.866,3.866,0,0,0,1.661,4.6l16.26,9.747a3.86,3.86,0,0,0,4.828-.708L352,344.336q1.551.351,3.151.6t3.221.4l4.143,8.679a3.873,3.873,0,0,0,4.434,2.091l18.39-4.606a3.865,3.865,0,0,0,2.924-3.916l-.421-9.325q1.377-.86,2.658-1.789t2.558-2l9.068,3.205a3.864,3.864,0,0,0,4.6-1.661l9.641-16.073a3.871,3.871,0,0,0-.6-5.03l-6.881-6.286q.349-1.543.6-3.137t.4-3.223l8.679-4.143a3.871,3.871,0,0,0,2.09-4.434L416.051,275.3a3.866,3.866,0,0,0-3.916-2.924l-9.324.421q-.861-1.378-1.789-2.658t-2-2.559l3.2-9.067a3.866,3.866,0,0,0-1.661-4.6L384.3,244.16a3.861,3.861,0,0,0-4.828.708l-6.289,6.884q-1.55-.353-3.15-.606t-3.222-.4l-4.143-8.679a3.872,3.872,0,0,0-4.434-2.09l-18.39,4.605a3.867,3.867,0,0,0-2.924,3.917l.421,9.324q-1.377.859-2.657,1.789t-2.559,2ZM166.292,134.369a3.861,3.861,0,0,1,1.363-7.6l19.677,3.574a3.862,3.862,0,0,1,3.12,4.482L186.878,154.5a3.861,3.861,0,0,1-7.6-1.363l1.924-10.6a145.114,145.114,0,0,0-52.946,73.965,3.865,3.865,0,0,1-7.389-2.272,152.675,152.675,0,0,1,55.843-77.974l-10.417-1.892Zm251.66,76.748a3.86,3.86,0,1,1,6.874,3.513l-9,17.522a3.875,3.875,0,0,1-5.609,1.808l-17.514-8.991a3.86,3.86,0,0,1,3.512-6.875l10.438,5.359a143.774,143.774,0,0,0-23.417-49.47,3.867,3.867,0,1,1,6.238-4.573,152.025,152.025,0,0,1,24.152,50.124l4.321-8.417ZM301.668,416.047A3.87,3.87,0,1,1,297,422.225l-15.96-12.051a3.87,3.87,0,0,1-.757-5.421l12.05-15.961a3.87,3.87,0,0,1,6.178,4.664l-6.373,8.441a144.051,144.051,0,0,0,57.985-24.341,3.865,3.865,0,0,1,4.482,6.3,151.394,151.394,0,0,1-61.5,25.73Z"/><path class="cls-1" d="M256,16A240,240,0,1,0,425.705,86.3,239.269,239.269,0,0,0,256,16ZM420.22,91.78A232.243,232.243,0,1,1,256,23.758,231.543,231.543,0,0,1,420.22,91.78Z"/></svg>
