<svg id="Layer_1" enable-background="new 0 0 60 60" height="512" viewBox="0 0 60 60" width="512" xmlns="http://www.w3.org/2000/svg"><path d="m53 6h-8c-.55 0-1 .45-1 1v3h-7.14c-.45-1.72-2-3-3.86-3h-6c-1.86 0-3.41 1.28-3.86 3h-7.14v-3c0-.55-.45-1-1-1h-8c-.55 0-1 .45-1 1v8c0 .55.45 1 1 1h3v8.14c-1.72.45-3 2-3 3.86v4c0 1.86 1.28 3.41 3 3.86v8.14h-3c-.55 0-1 .45-1 1v8c0 .55.45 1 1 1h8c.55 0 1-.45 1-1v-3h8.14c.45 1.72 2 3 3.86 3h4c1.86 0 3.41-1.28 3.86-3h8.14v3c0 .55.45 1 1 1h8c.55 0 1-.45 1-1v-8c0-.55-.45-1-1-1h-3.04v-8.14c1.72-.45 3-2 3-3.86v-4c0-1.86-1.28-3.41-3-3.86v-8.14h3.04c.55 0 1-.45 1-1v-8c0-.55-.45-1-1-1zm-26 3h6c.74 0 1.38.41 1.72 1h-.72c-.55 0-1 .45-1 1s.45 1 1 1h.72c-.35.59-.98 1-1.72 1h-6c-.74 0-1.38-.41-1.72-1h.72c.55 0 1-.45 1-1s-.45-1-1-1h-.72c.35-.59.98-1 1.72-1zm-19-1h6v6h-6zm1 24v-4c0-.74.41-1.38 1-1.72v.72c0 .55.45 1 1 1s1-.45 1-1v-.72c.59.35 1 .98 1 1.72v4c0 .74-.41 1.38-1 1.72v-.72c0-.55-.45-1-1-1s-1 .45-1 1v.72c-.59-.34-1-.98-1-1.72zm5 20h-6v-6h6zm18-1h-4c-.74 0-1.38-.41-1.72-1h.72c.55 0 1-.45 1-1s-.45-1-1-1h-.72c.35-.59.98-1 1.72-1h4c.74 0 1.38.41 1.72 1h-.72c-.55 0-1 .45-1 1s.45 1 1 1h.72c-.34.59-.98 1-1.72 1zm20 1h-6v-6h6zm-1.04-24v4c0 .74-.41 1.38-1 1.72v-.72c0-.55-.45-1-1-1s-1 .45-1 1v.72c-.59-.35-1-.98-1-1.72v-4c0-.74.41-1.38 1-1.72v.72c0 .55.45 1 1 1s1-.45 1-1v-.72c.59.35 1 .98 1 1.72zm-3-3.86c-1.72.45-3 2-3 3.86v4c0 1.86 1.28 3.41 3 3.86v8.14h-2.96c-.55 0-1 .45-1 1v3h-8.14c-.45-1.72-2-3-3.86-3h-4c-1.86 0-3.41 1.28-3.86 3h-8.14v-3c0-.55-.45-1-1-1h-3v-8.14c1.72-.45 3-2 3-3.86v-4c0-1.86-1.28-3.41-3-3.86v-8.14h3c.55 0 1-.45 1-1v-3h7.14c.45 1.72 2 3 3.86 3h6c1.86 0 3.41-1.28 3.86-3h7.14v3c0 .55.45 1 1 1h2.96zm4.04-10.14h-6v-6h6z"/><path d="m30 20c-5.51 0-10 4.49-10 10s4.49 10 10 10 10-4.49 10-10-4.49-10-10-10zm0 18c-4.41 0-8-3.59-8-8s3.59-8 8-8 8 3.59 8 8-3.59 8-8 8z"/><path d="m33.25 27.22-4.35 3.48-2.13-1.84c-.42-.36-1.05-.32-1.41.1s-.32 1.05.1 1.41l2.75 2.39c.19.16.42.24.66.24.22 0 .44-.07.62-.22l5-4c.43-.34.5-.97.16-1.41-.34-.43-.97-.49-1.4-.15z"/></svg>