<svg id="Layer_1" viewBox="0 0 512 512" xmlns="http://www.w3.org/2000/svg" data-name="Layer 1"><path d="m295.6 71.91c-10.568-10.583-24.627-16.412-39.59-16.412s-29.027 5.828-39.608 16.408c-21.842 21.842-21.842 57.381.003 79.227 10.924 10.908 25.265 16.361 39.604 16.361 14.34 0 28.678-5.455 39.587-16.364 21.84-21.841 21.841-57.378.003-79.22zm-70.699 70.721c-17.156-17.156-17.156-45.07 0-62.226 8.311-8.311 19.359-12.888 31.109-12.888s22.788 4.576 31.085 12.885c0 0 .002.002.003.003 8.311 8.311 12.888 19.36 12.888 31.113s-4.577 22.802-12.888 31.113c-17.136 17.135-45.039 17.134-62.197 0zm264.022 271.358h-26.93v-72.652c0-12.16-9.893-22.053-22.053-22.053h-134.511c-2.74-22.665-20.754-40.68-43.419-43.42v-56.813h7.342c7.284 0 13.209-5.926 13.209-13.209v-5.464c6.05-1.803 11.908-4.229 17.5-7.246l3.847 3.863c5.15 5.149 13.526 5.148 18.675 0l18.885-18.886c2.506-2.481 3.886-5.799 3.887-9.344 0-3.545-1.38-6.864-3.865-9.324l-3.869-3.869c2.995-5.561 5.419-11.42 7.242-17.507h5.474c7.268 0 13.181-5.913 13.181-13.181v-26.731c0-7.284-5.913-13.209-13.181-13.209h-5.467c-1.806-6.042-4.231-11.893-7.247-17.48l3.868-3.867c5.148-5.149 5.148-13.526-.003-18.678l-18.904-18.876c-5.148-5.148-13.525-5.148-18.684.009l-3.833 3.849c-5.561-3.008-11.42-5.432-17.506-7.242v-5.462c0-7.284-5.925-13.209-13.209-13.209h-26.703c-7.284 0-13.209 5.926-13.209 13.209v5.461c-6.091 1.812-11.946 4.236-17.491 7.242l-3.857-3.857c-5.149-5.148-13.526-5.147-18.675 0l-18.879 18.879c-5.148 5.149-5.148 13.526-.008 18.667l3.854 3.869c-3 5.567-5.419 11.42-7.227 17.487h-5.465c-7.284 0-13.209 5.925-13.209 13.209v26.731c0 7.268 5.925 13.181 13.209 13.181h5.462c1.811 6.089 4.236 11.951 7.247 17.514l-3.84 3.84c-2.506 2.481-3.886 5.8-3.886 9.345s1.38 6.863 3.862 9.319l18.882 18.911c5.149 5.148 13.525 5.149 18.675 0l3.857-3.857c5.544 3.006 11.399 5.43 17.491 7.242v5.462c0 7.284 5.925 13.209 13.209 13.209h7.342v56.813c-22.666 2.74-40.68 20.754-43.42 43.42h-134.513c-12.16 0-22.053 9.893-22.053 22.053v72.652h-26.93c-7.753 0-14.06 6.32-14.06 14.088v65.849c0 7.768 6.307 14.088 14.06 14.088h65.877c7.752 0 14.06-6.32 14.06-14.088v-65.849c0-7.769-6.307-14.088-14.06-14.088h-26.929v-72.652c0-5.533 4.501-10.035 10.035-10.035h134.511c2.74 22.665 20.754 40.68 43.42 43.419v39.267h-26.93c-7.752 0-14.06 6.32-14.06 14.088v65.849c0 7.768 6.307 14.088 14.06 14.088h65.877c7.752 0 14.06-6.32 14.06-14.088v-65.849c0-7.769-6.307-14.088-14.06-14.088h-26.929v-39.267c22.665-2.74 40.68-20.754 43.419-43.419h134.511c5.533 0 10.035 4.501 10.035 10.035v72.652h-26.901c-7.768 0-14.088 6.32-14.088 14.088v65.849c0 7.768 6.32 14.088 14.088 14.088h65.849c7.752 0 14.06-6.32 14.06-14.088v-65.849c0-7.769-6.308-14.088-14.06-14.088zm-247.465-208.148v-10.063c0-2.773-1.897-5.187-4.593-5.84-8.096-1.963-15.757-5.137-22.769-9.432-.972-.595-2.058-.885-3.137-.885-1.553 0-3.092.602-4.251 1.76l-7.115 7.115c-.462.463-1.214.462-1.674.003l-18.904-18.932c-.267-.264-.323-.582-.323-.803s.056-.539.344-.825l7.115-7.115c1.962-1.962 2.326-5.012.881-7.38-4.302-7.05-7.478-14.722-9.438-22.806-.654-2.695-3.067-4.593-5.84-4.593h-10.063c-.645 0-1.19-.533-1.19-1.163v-26.731c0-.645.545-1.19 1.19-1.19h10.063c2.771 0 5.184-1.896 5.839-4.588 1.96-8.054 5.129-15.723 9.419-22.795 1.434-2.363 1.071-5.399-.88-7.357l-7.095-7.124c-.463-.462-.463-1.215 0-1.677l18.879-18.879c.461-.462 1.215-.463 1.677 0l7.115 7.115c1.965 1.964 5.02 2.326 7.389.875 7.013-4.296 14.674-7.469 22.769-9.432 2.695-.654 4.593-3.067 4.593-5.84v-10.063c0-.646.545-1.191 1.19-1.191h26.703c.645 0 1.19.545 1.19 1.191v10.063c0 2.773 1.898 5.187 4.593 5.84 8.083 1.96 15.756 5.135 22.806 9.438 2.373 1.448 5.427 1.08 7.388-.889l7.078-7.106c.461-.463 1.214-.464 1.681.003l18.904 18.876c.463.462.463 1.215 0 1.678l-7.115 7.115c-1.958 1.958-2.324 4.999-.889 7.366 4.321 7.124 7.5 14.793 9.447 22.795.655 2.693 3.067 4.588 5.839 4.588h10.063c.63 0 1.162.545 1.162 1.19v26.731c0 .619-.543 1.163-1.162 1.163h-10.063c-2.766 0-5.175 1.888-5.835 4.575-1.991 8.098-5.17 15.781-9.451 22.837-1.436 2.367-1.069 5.409.889 7.366l7.136 7.136c.267.265.323.583.323.804s-.056.539-.345.824l-18.907 18.907c-.462.462-1.215.463-1.669.009l-7.086-7.115c-1.957-1.965-5.004-2.335-7.375-.897-7.128 4.324-14.806 7.502-22.82 9.446-2.695.654-4.593 3.067-4.593 5.84v10.063c0 .646-.545 1.191-1.19 1.191h-26.703c-.645 0-1.19-.545-1.19-1.191zm-150.463 222.236v65.849c0 1.122-.935 2.069-2.041 2.069h-65.877c-1.106 0-2.042-.948-2.042-2.069v-65.849c0-1.122.935-2.07 2.042-2.07h65.877c1.106 0 2.041.948 2.041 2.07zm199.984 0v65.849c0 1.122-.935 2.069-2.041 2.069h-65.877c-1.106 0-2.041-.948-2.041-2.069v-65.849c0-1.122.935-2.07 2.041-2.07h65.877c1.106 0 2.041.948 2.041 2.07zm-34.979-64.999c-20.835 0-37.786-16.951-37.786-37.786s16.951-37.786 37.786-37.786 37.786 16.951 37.786 37.786-16.951 37.786-37.786 37.786zm234.963 130.847c0 1.122-.934 2.069-2.04 2.069h-65.849c-1.141 0-2.069-.928-2.069-2.069v-65.849c0-1.141.928-2.07 2.069-2.07h65.849c1.106 0 2.04.948 2.04 2.07zm-209.399-401.498c2.348 2.346 2.35 6.151.004 8.499l-29.65 29.679c-1.127 1.128-2.656 1.762-4.25 1.762h-.001c-1.594 0-3.122-.633-4.25-1.76l-12.983-12.983c-2.347-2.347-2.347-6.152 0-8.499 2.348-2.347 6.151-2.347 8.499 0l8.731 8.732 25.401-25.425c2.347-2.348 6.152-2.349 8.499-.004z"/></svg>