<svg id="Layer_1" viewBox="0 0 2500 2500" xmlns="http://www.w3.org/2000/svg" data-name="Layer 1"><path d="m1250.31 129.81c-33.45 0-66.53 4.45-98.4 13.21-19.27 5.32-30.62 25.25-25.3 44.55 5.29 19.3 25.27 30.42 44.54 25.3 25.58-7.05 52.21-10.61 79.15-10.61 118.81 0 226.15 70.41 273.44 179.4 5.92 13.64 19.24 21.79 33.25 21.79 4.81 0 9.71-.96 14.41-3 18.34-7.96 26.77-29.29 18.79-47.66-58.78-135.44-192.22-222.98-339.89-222.98z"/><path d="m2269.03 722.65c5.91-26.91 9.86-54.24 9.86-81.99 0-210.13-170.93-381.09-381.06-381.09-58.57 0-115.59 13.97-167.58 39.49-88.38-178.15-272.22-299.06-480.25-299.06s-392.98 119.33-480.81 298.76c-51.83-25.35-108.66-39.19-166.99-39.19-210.13 0-381.09 170.96-381.09 381.09 0 27.54 3.91 54.64 9.72 81.3-141.51 97.47-230.83 259.53-230.83 440.95 0 295.57 240.47 536.05 536.07 536.05 35.45 0 70.73-3.53 105.28-10.42 16.99 23.26 35.83 45.44 56.62 66.22 100.16 100.17 231.85 156.22 368.54 162.87l147.18 264.87v281.27c0 20.01 16.22 36.22 36.22 36.22s36.23-16.22 36.23-36.22v-281.27l147.49-265.44c136.57-6.76 268.17-62.21 368.26-162.3 20.79-20.79 39.64-42.98 56.63-66.24 34.56 6.89 69.91 10.44 105.45 10.44 295.57 0 536.04-240.48 536.04-536.05 0-177.68-89.93-341.68-230.97-440.26zm-1019.11 1375.88-101.88-183.37c34.11-3.31 68.2-8.6 101.88-18.3 33.69 9.71 67.77 15 101.88 18.31l-101.88 183.35zm500.74-394.99c-128.43 128.43-316.2 174.69-490.05 120.9-6.96-2.15-14.44-2.15-21.4 0-173.93 53.8-361.62 7.53-490.02-120.9-123.84-123.82-171.33-302.87-126.25-471.46 117.59-31.27 245.48-16.98 353.7 40.04 9.59 5.09 20.85 5.58 30.76 1.44 9.96-4.13 17.55-12.48 20.74-22.75 36.17-116.82 116.46-217.32 221.76-278.42 105.28 61.1 185.59 161.6 221.79 278.42 3.19 10.28 10.81 18.62 20.74 22.75 9.96 4.13 21.2 3.65 30.76-1.44 108.16-56.97 236.03-71.23 353.7-40.04 45.05 168.59-2.43 347.64-126.25 471.46zm213.3-77.03c-21.35 0-42.53-1.82-63.48-4.91 69.17-129.91 85.32-283.92 40.3-429.48-3.54-11.43-12.48-20.37-23.92-23.91-127.55-39.5-267.38-31.33-389.81 21.79-49.01-124.07-142.12-228.75-260.25-291.04-10.58-5.6-23.21-5.6-33.79 0-118.16 62.29-211.23 166.97-260.23 291.04-122.37-53.06-262.26-61.3-389.8-21.79-11.43 3.54-20.38 12.48-23.91 23.91-45.1 145.71-28.86 299.92 40.53 429.94-20.99 2.91-42.22 4.45-63.53 4.45-255.64 0-463.62-207.95-463.62-463.6 0-217.35 147.67-403.13 359.13-451.82 19.5-4.46 31.66-23.91 27.16-43.41-4.47-19.47-24.08-31.76-43.41-27.18-41.99 9.66-81.59 24.3-118.74 42.68-1.94-14.05-3.04-28.24-3.04-42.54 0-170.2 138.45-308.64 308.64-308.64 48.89 0 96.39 12.1 139.47 34.02-9.03 27.31-16.3 55.51-20.97 84.79-3.17 19.75 10.3 38.31 30.06 41.48 19.39 2.92 38.32-10.27 41.49-30.05 36.09-225.87 228.61-389.81 457.76-389.81s429.17 172.83 459.57 402.04c2.41 18.22 17.97 31.47 35.85 31.47 1.59 0 3.2-.12 4.81-.31 19.84-2.63 33.79-20.86 31.16-40.67-4.53-34.18-12.4-67.22-23.03-98.95 43.07-21.91 90.56-34 139.46-34 170.17 0 308.62 138.45 308.62 308.64 0 14.38-1.1 28.68-3.06 42.82-27.1-13.63-55.49-25.18-85.15-34.07-19.3-5.77-39.39 5.17-45.11 24.28-5.74 19.16 5.13 39.37 24.29 45.1 194.4 58.33 330.15 240.96 330.15 444.12 0 255.64-207.95 463.6-463.59 463.6z"/><path d="m2073.43 790.96c-19.1-5.74-39.37 5.15-45.11 24.28-5.74 19.16 5.12 39.37 24.28 45.11 133.75 40.13 227.17 165.82 227.17 305.59 0 70.86-22.76 137.96-65.8 194.02-12.19 15.88-9.2 38.63 6.65 50.8 6.6 5.07 14.35 7.5 22.05 7.5 10.87 0 21.62-4.87 28.75-14.15 52.87-68.85 80.8-151.2 80.8-238.17 0-171.53-114.65-325.71-278.79-374.98z"/><path d="m1802.99 1410.2c-19.53-4.56-38.94 7.7-43.41 27.17-18.06 78.45-59.83 147.87-120.82 200.74-58.24 50.54-129.42 81.79-205.83 90.31-19.87 2.2-34.19 20.12-31.98 40.01 2.06 18.51 17.74 32.21 35.94 32.21 1.36 0 2.71-.09 4.07-.23 91.07-10.15 175.89-47.34 245.28-107.57 72.62-62.97 122.4-145.69 143.91-239.22 4.5-19.5-7.67-38.94-27.16-43.42z"/></svg>