<svg height="512" viewBox="0 0 60 60" width="512" xmlns="http://www.w3.org/2000/svg"><g id="Page-1" fill="none" fill-rule="evenodd"><g id="090---Farming-Money" fill="rgb(0,0,0)" fill-rule="nonzero" transform="translate(-1)"><path id="Shape" d="m19 21h24c1.1045695 0 2-.8954305 2-2v-8c0-1.1045695-.8954305-2-2-2h-24c-1.1045695 0-2 .8954305-2 2v8c0 1.1045695.8954305 2 2 2zm0-5h5v3h-5zm17 3h-10v-8h10zm2 0v-3h5v3zm5-5h-5v-3h5zm-19-3v3h-5v-3z"/><path id="Shape" d="m47 36c-5.5228475 0-10 4.4771525-10 10s4.4771525 10 10 10 10-4.4771525 10-10c-.0060624-5.5203344-4.4796656-9.9939376-10-10zm0 18c-4.418278 0-8-3.581722-8-8s3.581722-8 8-8 8 3.581722 8 8c-.0049599 4.4162219-3.5837781 7.9950401-8 8z"/><path id="Shape" d="m55 34.527v-17.7l4.191 5.76c.2104294.2890279.5590688.4438379.914589.4061146s.6639092-.2622488.809-.589c.1450907-.3267512.1048405-.7060867-.105589-.9951146l-10.436-14.338c-.4872895-.67296799-1.1730205-1.17651344-1.961-1.44l-16.144-5.424c-.8229547-.27297066-1.7120453-.27297066-2.535 0l-16.145 5.424c-.7877203.26346038-1.4733674.76659455-1.961 1.439l-10.436 14.341c-.32529569.4467984-.22679833 1.0727043.22000002 1.398s1.07270425.2267983 1.39799998-.22l4.191-5.76v28.171c0 1.6568542 1.34314575 3 3 3h23.16c.9086555 6.3280085 5.9910208 11.2352461 12.3469903 11.9215389s12.3687076-3.0229388 14.6072181-9.0111286c2.2385106-5.9881898.1333599-12.732058-5.1142084-16.3834103zm-46 10.473v-30.92l4.244-5.833c.2438478-.33649599.5868739-.58825827.981-.72l16.146-5.427c.4084894-.13697792.8505106-.13697792 1.259 0l16.145 5.427c.394386.131767.7374964.38394091.981.721l4.244 5.832v19.29c-1.8724288-.8994818-3.9227298-1.3676339-6-1.37v-5c0-1.6568542-1.3431458-3-3-3h-26c-1.6568542 0-3 1.3431458-3 3v19h-5c-.55228475 0-1-.4477153-1-1zm26.489-6.949-2.797-2.051 12.308-9.022v.022 5.16c-3.8512582.5565546-7.2971305 2.6908868-9.511 5.891zm-18.489-11.051c0-.008 0-.014 0-.021l12.309 9.021-12.309 9.026zm2.053-1h23.9l-11.953 8.76zm0 20 11.947-8.759 3.473 2.546c-.9667808 1.9285246-1.4711031 4.0557173-1.473 6.213zm27.947 12c-6.627417 0-12-5.372583-12-12s5.372583-12 12-12 12 5.372583 12 12c-.0071648 6.624447-5.375553 11.9928352-12 12z"/><path id="Shape" d="m47 45c-.4851707-.000473-.9000069-.3491365-.9839455-.8269912-.0839386-.4778548.1872399-.9470217.6432053-1.1128119.4559653-.1657902.9651545.0196329 1.2077402.4398031.2843876.4596821.882589.61017 1.3506397.3397768s.6365131-.8637835.3803603-1.3397768c-.3620629-.6087671-.9282899-1.0694024-1.598-1.3v-.2c0-.5522847-.4477153-1-1-1s-1 .4477153-1 1v.184c-1.3765475.4848523-2.2026937 1.8918441-1.9553873 3.330178s1.49595 2.4885874 2.9553873 2.485822c.4851707.000473.9000069.3491365.9839455.8269912.0839386.4778548-.1872399.9470217-.6432053 1.1128119-.4559653.1657902-.9651545-.0196329-1.2077402-.4398031-.2843876-.4596821-.882589-.61017-1.3506397-.3397768s-.6365131.8637835-.3803603 1.3397768c.3625581.6091337.9295478 1.0698128 1.6 1.3v.2c0 .5522847.4477153 1 1 1s1-.4477153 1-1v-.184c1.3769108-.4849733 2.2030823-1.8925391 1.9552305-3.3311676-.2478517-1.4386286-1.4974125-2.4885802-2.9572305-2.4848324z"/></g></g></svg>