<?xml version="1.0" encoding="UTF-8"?>
<svg xmlns="http://www.w3.org/2000/svg" xmlns:xlink="http://www.w3.org/1999/xlink" version="1.1" id="Capa_1" x="0px" y="0px" viewBox="0 0 512 512" style="enable-background:new 0 0 512 512;" xml:space="preserve" width="512" height="512">
<g>
	<path style="fill:none;stroke:#000000;stroke-width:15;stroke-linecap:round;stroke-linejoin:round;stroke-miterlimit:10;" d="&#10;&#9;&#9;M189.256,59.465H72.45c-4.489,0-8.128-3.639-8.128-8.128V15.628c0-4.489,3.639-8.128,8.128-8.128h116.806&#10;&#9;&#9;c4.489,0,8.128,3.639,8.128,8.128v35.708C197.384,55.826,193.745,59.465,189.256,59.465z"/>
	
		<rect x="79.046" y="59.465" style="fill:none;stroke:#000000;stroke-width:15;stroke-linecap:round;stroke-linejoin:round;stroke-miterlimit:10;" width="106.619" height="41.743"/>
	<path style="fill:none;stroke:#000000;stroke-width:15;stroke-linecap:round;stroke-linejoin:round;stroke-miterlimit:10;" d="&#10;&#9;&#9;M305.15,46.361h-7.427c-9.53,0-18.32,5.137-22.998,13.44l-13.923,24.713c-5.811,10.314-16.729,16.694-28.567,16.694H68.188&#10;&#9;&#9;c-6.325,0-11.452,5.127-11.452,11.452v369.651c0,12.255,9.934,22.189,22.189,22.189h354.15c12.255,0,22.189-9.935,22.189-22.189&#10;&#9;&#9;V80.827c0-19.035-15.431-34.466-34.466-34.466H341.15 M401.764,116.544h-81.657c-10.656,0-19.294-8.638-19.294-19.294&#10;&#9;&#9;c0-10.656,8.638-19.294,19.294-19.294h81.657c10.656,0,19.294,8.638,19.294,19.294&#10;&#9;&#9;C421.057,107.906,412.419,116.544,401.764,116.544z"/>
	
		<line style="fill:none;stroke:#000000;stroke-width:15;stroke-linecap:round;stroke-linejoin:round;stroke-miterlimit:10;" x1="127.928" y1="396.526" x2="382.101" y2="396.526"/>
	<path style="fill:none;stroke:#000000;stroke-width:15;stroke-linecap:round;stroke-linejoin:round;stroke-miterlimit:10;" d="&#10;&#9;&#9;M234.473,242.712c30.498,23.765,41.741,66.214,24.75,102.774"/>
	<path style="fill:none;stroke:#000000;stroke-width:15;stroke-linecap:round;stroke-linejoin:round;stroke-miterlimit:10;" d="&#10;&#9;&#9;M173.046,219.32c18.589-11.76,43.149-6.346,55.088,12.059c12.865,19.831,5.356,46.297-15.398,57.614&#10;&#9;&#9;c-25.352,13.824-57.987,7.112-71.268,3.436c-3.531-0.977-5.755-4.46-5.127-8.069C138.803,270.222,147.294,235.611,173.046,219.32z"/>
	<path style="fill:none;stroke:#000000;stroke-width:15;stroke-linecap:round;stroke-linejoin:round;stroke-miterlimit:10;" d="&#10;&#9;&#9;M277.211,223.711c-12.589,10.068-20.701,24.41-23.182,39.872"/>
	<path style="fill:none;stroke:#000000;stroke-width:15;stroke-linecap:round;stroke-linejoin:round;stroke-miterlimit:10;" d="&#10;&#9;&#9;M298.329,179.172c-15.798,4.995-24.605,21.769-19.803,37.581c5.174,17.038,24.063,25.564,40.657,19.107&#10;&#9;&#9;c20.271-7.889,32.252-29.942,36.583-39.376c1.151-2.508,0.226-5.48-2.158-6.87C344.272,184.167,320.215,172.252,298.329,179.172z"/>
	<path style="fill:none;stroke:#000000;stroke-width:15;stroke-linecap:round;stroke-linejoin:round;stroke-miterlimit:10;" d="&#10;&#9;&#9;M204.506,331.53l-54.61,64.996H366.4l-54.61-64.996C283.791,298.207,232.504,298.207,204.506,331.53l-54.61,64.996H366.4&#10;&#9;&#9;l-54.61-64.996C283.791,298.207,232.504,298.207,204.506,331.53z"/>
	
		<line style="fill:none;stroke:#000000;stroke-width:15;stroke-linecap:round;stroke-linejoin:round;stroke-miterlimit:10;" x1="409.386" y1="449.868" x2="455.264" y2="449.868"/>
	
		<line style="fill:none;stroke:#000000;stroke-width:15;stroke-linecap:round;stroke-linejoin:round;stroke-miterlimit:10;" x1="56.736" y1="449.868" x2="373.386" y2="449.868"/>
	
		<line style="fill:none;stroke:#000000;stroke-width:15;stroke-linecap:round;stroke-linejoin:round;stroke-miterlimit:10;" x1="234.473" y1="348.183" x2="236.917" y2="348.183"/>
	
		<line style="fill:none;stroke:#000000;stroke-width:15;stroke-linecap:round;stroke-linejoin:round;stroke-miterlimit:10;" x1="282.794" y1="364.186" x2="285.239" y2="364.186"/>
	
		<line style="fill:none;stroke:#000000;stroke-width:15;stroke-linecap:round;stroke-linejoin:round;stroke-miterlimit:10;" x1="160.453" y1="149.472" x2="160.453" y2="174.372"/>
	
		<line style="fill:none;stroke:#000000;stroke-width:15;stroke-linecap:round;stroke-linejoin:round;stroke-miterlimit:10;" x1="172.904" y1="161.922" x2="148.003" y2="161.922"/>
	
		<line style="fill:none;stroke:#000000;stroke-width:15;stroke-linecap:round;stroke-linejoin:round;stroke-miterlimit:10;" x1="373.386" y1="284.878" x2="373.386" y2="309.778"/>
	
		<line style="fill:none;stroke:#000000;stroke-width:15;stroke-linecap:round;stroke-linejoin:round;stroke-miterlimit:10;" x1="385.836" y1="297.328" x2="360.935" y2="297.328"/>
</g>















</svg>
