<svg id="Layer_1" viewBox="0 0 100 100" xmlns="http://www.w3.org/2000/svg" data-name="Layer 1"><path d="m22.5 74.54a9.14 9.14 0 0 1 -3.19-6.92v-3.45a9.16 9.16 0 0 1 13-8.29l.12-33.67a1 1 0 0 1 .28-.77l13.47-15.83a1 1 0 0 1 .81-.4h41.15a1 1 0 0 1 1 1v5h4.72a1 1 0 0 1 1 1v81.59a1 1 0 0 1 -1.07 1h-87.63a1 1 0 0 1 -1-1.23 17.66 17.66 0 0 1 17.34-14.65zm43.83-22.1h2.61a3.55 3.55 0 0 1 2 .65 12.14 12.14 0 1 0 -6.71 0 3.55 3.55 0 0 1 2-.65zm6 2.3a14.11 14.11 0 1 0 -9.31 0 3.61 3.61 0 0 0 1.09 4.08 3.76 3.76 0 0 0 -.2 1.22v15.72a3.77 3.77 0 1 0 7.53 0v-15.76a3.85 3.85 0 0 0 -.2-1.22 3.61 3.61 0 0 0 1.09-4.08zm-2.91 4.85c-.38 0-3.11 0-3.49 0a2.14 2.14 0 0 0 0 .45v15.72a1.79 1.79 0 0 0 2.97 1.24 1.76 1.76 0 0 0 .53-1.27v-15.73a2.14 2.14 0 0 0 -.05-.45zm-.44-5.18h-2.65a1.67 1.67 0 0 0 -.8.21 1 1 0 0 1 -.53.5 1.59 1.59 0 0 0 -.29.91 1.63 1.63 0 0 0 .48 1.14c.41.42.41.14.79.43h.35 2.61a1.62 1.62 0 0 0 0-3.24zm-30.23-14.41 2.84 3.5a1 1 0 0 0 1.4.12l7.38-6.39a1 1 0 0 0 -1.28-1.49l-6.62 5.73-2.2-2.71a1 1 0 0 0 -1.52 1.24zm45.07 35.3h-8.61a1 1 0 0 0 0 2h8.61a1 1 0 1 0 0-2zm-23.35 0h-14.13a1 1 0 1 0 0 2h14.13a1 1 0 1 0 0-2zm23.35-8.85h-8.61a1 1 0 0 0 0 2h8.61a1 1 0 1 0 0-2zm-23.35 0h-14.13a1 1 0 1 0 0 2h14.13a1 1 0 1 0 0-2zm19.07-52h-21.2a1 1 0 0 0 0 2h21.2a1 1 0 0 0 0-2zm4.28 43.1h-8.61a1 1 0 0 0 0 2h8.61a1 1 0 1 0 0-2zm-23.35 0h-14.13a1 1 0 1 0 0 2h14.13a1 1 0 1 0 0-2zm9.87-17.94a2.71 2.71 0 0 0 -1.72-2.52v-.25a1 1 0 1 0 -2 0v.25a2.74 2.74 0 0 0 -.92.61 2.7 2.7 0 0 0 1.91 4.61.73.73 0 1 1 -.74.73 1 1 0 1 0 -2 0 2.69 2.69 0 0 0 1.72 2.51v.45a1 1 0 0 0 2 0v-.4a2.69 2.69 0 0 0 -1-5.21.73.73 0 1 1 .73-.73 1 1 0 0 0 2 0zm-2.7-8.85a10.64 10.64 0 1 0 10.63 10.66 10.63 10.63 0 0 0 -10.63-10.63zm6.12 4.51a8.66 8.66 0 1 0 0 12.25 8.65 8.65 0 0 0 0-12.25zm15.36-22.11v74.67a1 1 0 0 1 -1.07 1l-38-.18a17.24 17.24 0 0 1 1.48 4.19h41.32v-79.68zm-9.76 7.13h-16.75a1 1 0 1 0 0 2h16.75a1 1 0 0 0 0-2zm-43.81.85h10.45v-12.27zm-1.15 2-.13 34a9.12 9.12 0 0 1 3.34 7.05v3.45a9.13 9.13 0 0 1 -3.19 6.92v4.38a17.61 17.61 0 0 1 14.52 7.74l38.21.18v-79.68h-39.15v15a1 1 0 0 1 -1 1zm15.16 69.68a15.68 15.68 0 0 0 -15.17-11.93h-1a1 1 0 0 1 -1-1v-5.81a1 1 0 0 1 .44-.82 7.37 7.37 0 0 0 2-2.49 7.09 7.09 0 0 0 .74-3.15v-3.45a7.18 7.18 0 1 0 -14.36 0v3.45a7.22 7.22 0 0 0 .79 3.15 7.4 7.4 0 0 0 2 2.49 1 1 0 0 1 .44.82v5.82a1 1 0 0 1 -1 1h-1a15.68 15.68 0 0 0 -15.08 11.92z" fill-rule="evenodd"/></svg>