<svg clip-rule="evenodd" fill-rule="evenodd" height="512" image-rendering="optimizeQuality" shape-rendering="geometricPrecision" text-rendering="geometricPrecision" viewBox="0 0 512 512" width="512" xmlns="http://www.w3.org/2000/svg" xmlns:xodm="http://www.corel.com/coreldraw/odm/2003"><g id="Layer_x0020_1"><g id="_2456912231776"><g><g><g id="_204193928"><path d="m454.57 409.85c-1.53 0-3.07-.58-4.24-1.75l-16.48-16.49c-2.34-2.34-2.34-6.13 0-8.47s6.14-2.34 8.47 0l16.49 16.48c2.34 2.34 2.34 6.14 0 8.48-1.17 1.17-2.71 1.75-4.24 1.75z"/></g><g id="_204188408"><path d="m492.06 458.66c-4.64 0-8.99-1.8-12.25-5.06l-29.48-29.48c-3.26-3.26-5.06-7.61-5.06-12.25s1.8-8.99 5.06-12.25c3.27-3.26 7.62-5.06 12.25-5.06 4.64 0 8.99 1.8 12.25 5.06l29.48 29.48c6.76 6.75 6.76 17.75 0 24.5-3.26 3.26-7.61 5.06-12.25 5.06zm-29.48-52.11c-1.43 0-2.77.55-3.77 1.55s-1.55 2.34-1.55 3.77c0 1.44.55 2.77 1.55 3.77l29.48 29.48c1 1 2.34 1.55 3.77 1.55 1.43 0 2.77-.55 3.77-1.55 2.08-2.08 2.08-5.46 0-7.54l-29.48-29.48c-.99-1-2.33-1.55-3.77-1.55z"/></g><g id="_204194480"><path d="m382.35 416.46c-22.66 0-43.96-8.82-59.98-24.85-33.07-33.07-33.07-86.88 0-119.95 16.02-16.02 37.32-24.85 59.98-24.85 22.65 0 43.95 8.83 59.97 24.85 16.03 16.02 24.85 37.32 24.85 59.98 0 22.65-8.82 43.95-24.85 59.98-16.02 16.02-37.32 24.84-59.97 24.84zm0-157.66c-19.46 0-37.75 7.58-51.51 21.33-28.39 28.4-28.39 74.61 0 103.01 13.76 13.76 32.05 21.33 51.51 21.33 19.45 0 37.74-7.57 51.5-21.33 13.75-13.76 21.33-32.05 21.33-51.5 0-19.46-7.58-37.75-21.33-51.51-13.76-13.75-32.05-21.33-51.5-21.33z"/></g><g id="_204194000"><path d="m382.35 395.89c-17.17 0-33.3-6.69-45.44-18.82-25.05-25.05-25.05-65.82 0-90.87 12.14-12.13 28.27-18.82 45.44-18.82 17.16 0 33.29 6.69 45.43 18.82 12.14 12.14 18.82 28.27 18.82 45.44 0 17.16-6.68 33.29-18.82 45.43s-28.27 18.82-45.43 18.82zm0-116.52c-13.96 0-27.09 5.44-36.96 15.31-20.38 20.38-20.38 53.53 0 73.91 9.87 9.87 23 15.31 36.96 15.31s27.08-5.44 36.95-15.31 15.31-23 15.31-36.96-5.44-27.08-15.31-36.95-22.99-15.31-36.95-15.31z"/></g></g><g id="_204192512"><path d="m327.29 511.75h-282.92c-23.02 0-41.75-19.99-41.75-44.56v-373.4-43.78c0-9.04 2.27-17.52 6.23-24.83 8.05-14.89 23.12-24.93 40.34-24.93h356.51c25.68 0 46.57 22.32 46.57 49.76v43.76.09.02c-.02.81-.19 1.59-.5 2.29-.3.7-.74 1.35-1.32 1.91-.03.04-.06.07-.1.1l-25.41 23.77c-.45.42-.94.76-1.47 1.02v.01c-.84.41-1.75.62-2.66.62-.9 0-1.8-.2-2.62-.61-.01 0-.01 0-.02 0-.53-.26-1.04-.61-1.49-1.05l-21.34-19.95-21.33 19.96c-.47.44-.98.79-1.53 1.06h-.01c-.82.39-1.71.59-2.59.59-.29 0-.57-.02-.85-.06v131.66c0 3.31-2.69 5.99-6 5.99s-5.99-2.68-5.99-5.99v-141.4l-12.63-11.81-21.33 19.96c-.46.44-.98.79-1.53 1.06h-.01c-.82.39-1.7.59-2.59.59-.02 0-.03 0-.05 0-.01 0-.01 0-.01 0-.84-.01-1.68-.19-2.46-.55-.58-.27-1.13-.64-1.61-1.1l-21.34-19.96-21.33 19.96c-.46.44-.97.79-1.52 1.05s0 0-.01.01c-.82.39-1.72.58-2.62.59-.87 0-1.73-.19-2.54-.57s-.01 0-.01-.01c-.56-.26-1.09-.62-1.56-1.07l-21.34-19.95-21.33 19.95c-.44.42-.93.76-1.44 1.01-.85.43-1.77.64-2.69.64-.92 0-1.83-.21-2.67-.63h-.01c-.52-.26-1.01-.6-1.45-1.02l-21.34-19.95-21.33 19.95c-.46.44-.97.79-1.51 1.05-.01.01-.01.01-.02.01-.82.39-1.71.59-2.6.59-.89 0-1.77-.19-2.59-.58-.55-.27-1.07-.62-1.54-1.07l-21.33-19.95-21.35 19.96c-.45.43-.95.77-1.49 1.03v.01c-.01 0-.01 0-.01 0-.84.41-1.74.59-2.65.6-.87 0-1.74-.19-2.54-.57-.56-.27-1.09-.63-1.56-1.08l-25.42-23.77c-.02-.02-.05-.05-.08-.08-.58-.56-1.02-1.21-1.33-1.91-.32-.72-.49-1.52-.5-2.36 0-.02 0-.03 0-.05v-43.77c0-20.83-15.51-37.77-34.58-37.77-11.95 0-22.5 6.65-28.72 16.75-3.7 6.02-5.86 13.25-5.86 21.02v43.78.08 373.32c0 17.96 13.35 32.57 29.76 32.57h282.92c16.4 0 29.75-14.61 29.75-32.57v-59.12c0-3.31 2.68-5.99 5.99-5.99s6 2.68 6 5.99v59.12c0 24.57-18.73 44.56-41.74 44.56zm72.18-422.31 21.34 19.96 19.47-18.22v-41.17c0-20.83-15.52-37.77-34.58-37.77h-326.23c9.97 9.13 16.29 22.68 16.29 37.77v41.17l19.47 18.22 21.34-19.96c.45-.43.96-.78 1.49-1.04h.01v-.01c.84-.4 1.76-.61 2.65-.6.87.01 1.74.2 2.54.58.57.26 1.09.62 1.56 1.07l21.34 19.96 21.33-19.96c.46-.43.96-.78 1.5-1.04h.01v-.01c.83-.4 1.72-.6 2.62-.6.9 0 1.8.2 2.62.6.01 0 .01.01.01.01h.01c.53.26 1.04.61 1.49 1.04l21.34 19.96 21.33-19.96c.47-.44.99-.8 1.55-1.06 0 0 0-.01.01-.01.8-.38 1.66-.57 2.52-.58.9.01 1.84.2 2.69.61 0 0 .01.01.01.01.53.26 1.03.61 1.48 1.03l21.33 19.96 21.34-19.96c.47-.45 1-.8 1.56-1.07h.01s0 0 0-.01c.8-.37 1.66-.56 2.52-.56.91.01 1.82.19 2.66.6h.01c.54.26 1.04.61 1.49 1.04l21.34 19.96 21.34-19.96c.45-.43.96-.78 1.5-1.04h.01c.82-.41 1.72-.61 2.62-.61.89 0 1.78.2 2.6.6h.02c.54.27 1.05.62 1.51 1.05l21.33 19.96 21.34-19.96c.45-.43.95-.77 1.48-1.03 0 0 .01 0 .01-.01.82-.4 1.72-.6 2.62-.61h.02c.9 0 1.8.21 2.64.61 0 .01 0 .01.01.01.53.26 1.03.6 1.48 1.03z"/></g><g id="_204193328"><path d="m192.78 347.1h-13.91v-5.99 5.99c-5.62 0-10.22-4.4-10.68-10.22l-1.41-17.51c-7.13-1.81-13.91-4.62-20.25-8.39l-13.37 11.38c-2.09 1.77-4.7 2.75-7.35 2.75-2.82 0-5.46-1.09-7.45-3.07l-9.83-9.84c-3.98-3.98-4.12-10.33-.33-14.79l11.39-13.38c-3.77-6.33-6.58-13.11-8.39-20.24l-17.51-1.41c-5.83-.47-10.22-5.06-10.22-10.69v-13.9c0-5.63 4.39-10.23 10.23-10.69l17.49-1.41c1.81-7.13 4.62-13.91 8.4-20.25l-11.39-13.37c-3.79-4.46-3.65-10.81.33-14.79l9.83-9.84c1.99-1.98 4.63-3.07 7.45-3.07 2.65 0 5.26.98 7.35 2.75l13.37 11.38c6.33-3.77 13.11-6.58 20.25-8.39l1.4-17.5c.47-5.83 5.07-10.23 10.69-10.23h13.91c5.63 0 10.22 4.4 10.69 10.23l1.41 17.5c7.13 1.81 13.91 4.62 20.25 8.39l13.37-11.38c2.08-1.77 4.69-2.75 7.35-2.75 2.81 0 5.46 1.09 7.44 3.07l9.84 9.84c3.97 3.98 4.11 10.34.32 14.79l-11.39 13.38c3.78 6.33 6.59 13.11 8.4 20.25l17.5 1.4c5.83.47 10.23 5.06 10.23 10.69v13.91c0 5.62-4.4 10.22-10.23 10.69l-17.5 1.4c-1.81 7.13-4.62 13.92-8.39 20.25l11.38 13.38c3.79 4.45 3.65 10.8-.32 14.78l-9.84 9.84c-1.98 1.98-4.62 3.07-7.44 3.07-2.66 0-5.27-.97-7.35-2.74l-13.38-11.39c-6.33 3.77-13.12 6.59-20.24 8.39l-1.41 17.51c-.47 5.82-5.06 10.22-10.69 10.22zm-12.71-11.99h11.51l1.7-21.11c.22-2.69 2.2-4.9 4.85-5.41 8.68-1.66 16.8-5.02 24.15-10.01 2.23-1.51 5.2-1.35 7.25.4l16.13 13.73 8.14-8.14-13.73-16.13c-1.75-2.05-1.91-5.02-.4-7.25 4.99-7.34 8.35-15.46 10.02-24.15.5-2.65 2.72-4.63 5.41-4.85l21.1-1.69v-11.52l-21.11-1.69c-2.69-.22-4.9-2.2-5.41-4.85-1.66-8.68-5.03-16.81-10.01-24.15-1.51-2.23-1.35-5.2.4-7.25l13.73-16.13-8.14-8.14-16.13 13.73c-2.05 1.75-5.02 1.91-7.25.39-7.34-4.98-15.47-8.35-24.15-10.01-2.65-.51-4.64-2.72-4.85-5.41l-1.7-21.1h-11.51l-1.69 21.1c-.22 2.69-2.21 4.9-4.85 5.41-8.69 1.66-16.81 5.03-24.16 10.01-2.23 1.51-5.19 1.35-7.25-.39l-16.13-13.73-8.14 8.14 13.73 16.13c1.75 2.05 1.91 5.02.4 7.25-4.98 7.34-8.35 15.46-10.01 24.15-.51 2.65-2.72 4.63-5.41 4.85l-21.11 1.69v11.52l21.11 1.69c2.69.22 4.9 2.2 5.41 4.85 1.66 8.68 5.03 16.81 10.01 24.15 1.52 2.23 1.35 5.2-.39 7.25l-13.74 16.13 8.14 8.14 16.13-13.73c2.06-1.75 5.02-1.91 7.26-.39 7.34 4.98 15.46 8.35 24.15 10.01 2.64.5 4.63 2.72 4.84 5.41z"/></g><g id="_204194024"><path d="m185.83 298.51c-29.65 0-53.77-24.12-53.77-53.77s24.12-53.77 53.77-53.77 53.77 24.12 53.77 53.77-24.12 53.77-53.77 53.77zm0-95.55c-23.04 0-41.79 18.74-41.79 41.78s18.75 41.78 41.79 41.78 41.78-18.74 41.78-41.78-18.74-41.78-41.78-41.78z"/></g><g id="_204194408"><path d="m202.17 295.64c-3.31 0-6-2.68-6-5.99v-40.12c0-3.3 2.69-5.99 6-5.99s5.99 2.69 5.99 5.99v40.12c0 3.31-2.68 5.99-5.99 5.99z"/></g><g id="_204194576"><path d="m202.17 255.53c-9.57 0-17.36-7.79-17.36-17.36 0-9.58 7.79-17.37 17.36-17.37s17.36 7.79 17.36 17.37c0 9.57-7.79 17.36-17.36 17.36zm0-22.74c-2.96 0-5.38 2.41-5.38 5.38 0 2.96 2.42 5.37 5.38 5.37s5.37-2.41 5.37-5.37c0-2.97-2.41-5.38-5.37-5.38z"/></g><g id="_204194648"><path d="m167.88 295.02c-3.31 0-6-2.68-6-5.99v-33.41c0-3.31 2.69-5.99 6-5.99s5.99 2.68 5.99 5.99v33.41c0 3.31-2.68 5.99-5.99 5.99z"/></g><g id="_204194720"><path d="m167.88 261.62c-8.69 0-15.76-7.07-15.76-15.76 0-8.68 7.07-15.75 15.76-15.75 8.68 0 15.75 7.07 15.75 15.75 0 8.69-7.07 15.76-15.75 15.76zm0-19.52c-2.08 0-3.77 1.69-3.77 3.76 0 2.08 1.69 3.77 3.77 3.77 2.07 0 3.76-1.69 3.76-3.77 0-2.07-1.69-3.76-3.76-3.76z"/></g><g id="_204194240"><path d="m282.19 390.25h-137.43c-3.31 0-5.99-2.69-5.99-6s2.68-5.99 5.99-5.99h137.43c3.31 0 6 2.68 6 5.99s-2.69 6-6 6zm-161.07 0h-31.66c-3.31 0-5.99-2.69-5.99-6s2.68-5.99 5.99-5.99h31.66c3.31 0 5.99 2.68 5.99 5.99s-2.68 6-5.99 6z"/></g><g id="_204194840"><path d="m282.19 429.7h-84.54c-3.31 0-5.99-2.68-5.99-5.99s2.68-6 5.99-6h84.54c3.31 0 6 2.69 6 6s-2.69 5.99-6 5.99zm-108.19 0h-84.54c-3.31 0-5.99-2.68-5.99-5.99s2.68-6 5.99-6h84.54c3.31 0 6 2.69 6 6s-2.69 5.99-6 5.99z"/></g><g id="_204194912"><path d="m282.19 469.16h-31.65c-3.31 0-6-2.68-6-5.99s2.69-6 6-6h31.65c3.31 0 6 2.69 6 6s-2.69 5.99-6 5.99zm-55.3 0h-137.43c-3.31 0-5.99-2.68-5.99-5.99s2.68-6 5.99-6h137.43c3.31 0 6 2.69 6 6s-2.69 5.99-6 5.99z"/></g><g id="_204195008"><path d="m238.71 480.98c-9.82 0-17.81-7.99-17.81-17.81 0-9.83 7.99-17.82 17.81-17.82 9.83 0 17.82 7.99 17.82 17.82 0 9.82-7.99 17.81-17.82 17.81zm0-23.64c-3.21 0-5.82 2.61-5.82 5.83 0 3.21 2.61 5.82 5.82 5.82 3.22 0 5.83-2.61 5.83-5.82 0-3.22-2.61-5.83-5.83-5.83z"/></g><g id="_204195080"><path d="m185.83 441.52c-9.83 0-17.82-7.99-17.82-17.81 0-9.83 7.99-17.82 17.82-17.82 9.82 0 17.81 7.99 17.81 17.82.01 9.82-7.99 17.81-17.81 17.81zm0-23.64c-3.22 0-5.83 2.61-5.83 5.83 0 3.21 2.61 5.83 5.83 5.83 3.21 0 5.82-2.62 5.82-5.83 0-3.22-2.61-5.83-5.82-5.83z"/></g><g id="_204195152"><path d="m132.94 402.07c-9.82 0-17.82-8-17.82-17.82s8-17.82 17.82-17.82 17.82 8 17.82 17.82-7.99 17.82-17.82 17.82zm0-23.65c-3.21 0-5.83 2.62-5.83 5.83s2.62 5.83 5.83 5.83 5.83-2.62 5.83-5.83-2.62-5.83-5.83-5.83z"/></g><g id="_204195224"><path d="m385.28 56.01h-234.52c-3.31 0-6-2.69-6-6s2.69-5.99 6-5.99h234.52c3.31 0 5.99 2.68 5.99 5.99s-2.68 6-5.99 6z"/></g></g></g></g></svg>