<?xml version="1.0"?>
<svg xmlns="http://www.w3.org/2000/svg" data-name="Layer 1" id="Layer_1" viewBox="0 0 64 64"><path d="M3,62H34V60H5l7.9-11a3,3,0,0,1,2-1.31L26.15,46A1,1,0,0,0,27,44.88l-1-8A1,1,0,0,0,25,36H18a1,1,0,0,1-1-1,.81.81,0,0,0,0-.16l-1-6A1,1,0,0,0,15,28H10.77l5.09-8.49A1,1,0,0,0,16,19V18A14,14,0,0,1,30,4,14,14,0,0,1,44,18V30h2V18a16,16,0,0,0-32,0v.72L8.14,28.49A1,1,0,0,0,9,30h5.15L15,35.09A3,3,0,0,0,18,38h6.12l.77,6.16-10.3,1.58a5,5,0,0,0-3.38,2.15l-9,12.53A1,1,0,0,0,3,62Z"/><path d="M24,18a6,6,0,1,0,6-6A6,6,0,0,0,24,18Zm10,0a4,4,0,1,1-4-4A4,4,0,0,1,34,18Z"/><path d="M29,5V7.05a11,11,0,0,0-9.95,10H17v2h2.05A11,11,0,0,0,29,29V31h2V29A11,11,0,0,0,41,19h2V17H41A11,11,0,0,0,31,7.05V5Zm9.94,12H37v2h1.94A9,9,0,0,1,31,26.94V25H29v1.94A9,9,0,0,1,21.06,19H23V17H21.06A9,9,0,0,1,29,9.06V11h2V9.06A9,9,0,0,1,38.94,17Z"/><path d="M41.9,28.88a1.06,1.06,0,0,0-.43-.71,1,1,0,0,0-.82-.14,18,18,0,0,0-4.58,1.9,1,1,0,0,0-.28,1.48,3.12,3.12,0,0,1-4.38,4.38,1,1,0,0,0-1.48.28A18.39,18.39,0,0,0,28,40.65a1,1,0,0,0,.14.82,1,1,0,0,0,.71.43,3.12,3.12,0,0,1,0,6.2,1,1,0,0,0-.71.43,1,1,0,0,0-.14.82,18.39,18.39,0,0,0,1.9,4.58,1,1,0,0,0,1.48.28,3.12,3.12,0,0,1,4.38,4.38,1,1,0,0,0,.28,1.48A18,18,0,0,0,40.65,62a1,1,0,0,0,.82-.14,1.06,1.06,0,0,0,.43-.71,3.12,3.12,0,0,1,6.2,0,1,1,0,0,0,.43.71,1.06,1.06,0,0,0,.57.17,1.07,1.07,0,0,0,.25,0,18,18,0,0,0,4.58-1.9,1,1,0,0,0,.47-.68,1,1,0,0,0-.2-.8,3.13,3.13,0,0,1,4.39-4.38,1,1,0,0,0,.8.19,1,1,0,0,0,.68-.47A18.77,18.77,0,0,0,62,49.35a1,1,0,0,0-.85-1.25,3.12,3.12,0,0,1,0-6.2A1,1,0,0,0,62,40.65a18.77,18.77,0,0,0-1.9-4.58,1,1,0,0,0-.68-.47,1,1,0,0,0-.8.19,3.13,3.13,0,0,1-4.39-4.38,1,1,0,0,0,.2-.8,1,1,0,0,0-.47-.68A18,18,0,0,0,49.35,28a1,1,0,0,0-1.25.85,3.12,3.12,0,0,1-6.2,0Zm7.92,1.38a15.67,15.67,0,0,1,2.2.91A5.13,5.13,0,0,0,58.83,38a15.67,15.67,0,0,1,.91,2.2,5.14,5.14,0,0,0,0,9.64,15.67,15.67,0,0,1-.91,2.2A5.13,5.13,0,0,0,52,58.83a15.67,15.67,0,0,1-2.2.91,5.14,5.14,0,0,0-9.64,0,15.67,15.67,0,0,1-2.2-.91A5.13,5.13,0,0,0,31.17,52a15.67,15.67,0,0,1-.91-2.2,5.14,5.14,0,0,0,0-9.64,15.67,15.67,0,0,1,.91-2.2A5.13,5.13,0,0,0,38,31.17a15.67,15.67,0,0,1,2.2-.91,5.14,5.14,0,0,0,9.64,0Z"/><path d="M50,45a5.44,5.44,0,0,1-.07.82l2,.36a6.38,6.38,0,0,0,0-2.36l-2,.36A5.44,5.44,0,0,1,50,45Z"/><path d="M38,45a7,7,0,0,0,13.06,3.5l-1.74-1a5,5,0,1,1,0-5l1.74-1A7,7,0,0,0,38,45Z"/></svg>
