<svg id="Layer_1" enable-background="new 0 0 500 500" viewBox="0 0 500 500" xmlns="http://www.w3.org/2000/svg"><path clip-rule="evenodd" d="m328.307 161.081c2.39 2.718 2.125 6.859-.591 9.243l-52.226 45.964c-2.709 2.38-6.831 2.137-9.234-.575l-21.587-24.367c-2.401-2.718-2.149-6.859.558-9.253 2.71-2.401 6.851-2.149 9.252.56l17.255 19.484 47.324-41.648c2.719-2.387 6.86-2.125 9.249.592zm8.609 64.075c.018-.026.035-.053.052-.07 18.245-22.445 18.245-54.876 0-77.313-1.591-2.168-6.771-7.352-8.978-8.971-22.427-18.225-54.826-18.234-77.263-.026l-4.751 4.281c-23.914 23.913-23.914 62.826 0 86.739l4.732 4.272c22.436 18.225 54.848 18.225 77.282-.008 2.658-1.977 6.775-6.281 8.926-8.904zm26.87-38.731c0-42.364-35.197-76.315-78.153-74.349-18.435.844-35.908 8.682-48.923 21.72-29.024 29.022-29.024 76.244 0 105.268 29.232 29.235 76.302 28.965 105.275 0 14.087-14.082 21.801-32.795 21.801-52.639zm89.282 142.463-21.425 21.326c-.105 0-.151-.044-.169-.061l-58.975-58.98v-.333c.205 0 21.052-21.317 21.427-21.317.063 0 .127.017.166.061l58.975 58.974c.082.085.082.251.001.33zm-90.512-69.247c.745-.742 1.471-1.504 2.189-2.263l11.342 11.34-4.448 4.448-11.342-11.34c.762-.717 1.517-1.443 2.259-2.185zm-137.153-9.269c35.342 35.34 92.545 35.338 127.886 0 35.26-35.253 35.26-92.629 0-127.882-35.34-35.337-92.545-35.343-127.884 0-.002 0-.002 0-.002 0-35.258 35.253-35.258 92.629 0 127.882zm236.932 68.923-58.975-58.983c-4.911-4.909-12.725-5.18-17.963-.812l-12.252-12.257c29.396-40.462 25.872-97.565-10.589-134.023-40.46-40.459-105.959-40.456-146.42 0-40.368 40.363-40.368 106.047 0 146.42 36.182 36.181 93.163 40.391 134.034 10.598l12.244 12.241c-4.395 5.259-4.065 13.075.82 17.962l58.974 58.974c5.209 5.209 13.661 5.21 18.869 0l21.258-21.256c5.203-5.2 5.203-13.666 0-18.864zm-178.676 84.722h-111.843v-89.727h30.354v19.448c0 6.822 5.551 12.37 12.372 12.37h26.387c6.822 0 12.372-5.548 12.372-12.37v-19.448h30.357v89.727zm-236.79-89.727h30.355v19.448c0 6.822 5.55 12.37 12.372 12.37h26.386c6.822 0 12.373-5.548 12.373-12.37v-19.448h30.355v89.727h-111.841zm30.354-205.657v19.44c0 6.822 5.55 12.379 12.372 12.379h26.386c6.822 0 12.373-5.557 12.373-12.379v-19.44h30.355v89.718h-111.84v-89.718zm13.104 0v18.716h24.923v-18.716zm0 102.824h24.923v18.713h-24.923zm-43.458 89.727h111.841v-89.726h-30.355v19.449c0 6.822-5.55 12.37-12.373 12.37h-26.386c-6.822 0-12.372-5.548-12.372-12.37v-19.449h-30.355zm43.458 13.106v18.713h24.923v-18.713zm124.949 0h24.923v18.713h-24.923zm74.933-13.106h-118.393v-199.103c0-3.625-2.933-6.553-6.553-6.553h-124.947c-3.62 0-6.553 2.928-6.553 6.553v308.489c0 3.618 2.933 6.553 6.553 6.553h249.894c3.62 0 6.553-2.935 6.553-6.553v-102.833c-.001-3.618-2.934-6.553-6.554-6.553z" fill-rule="evenodd"/></svg>