<svg id="icons" height="512" viewBox="0 0 340 340" width="512" xmlns="http://www.w3.org/2000/svg"><path d="m312.509 43a13.967 13.967 0 0 0 -18.946-17.972c-19.469 9.33-45.671 27.092-67.488 60.136a256.746 256.746 0 0 1 22.25-49.564c2.346-3.949-3.471-7.552-5.957-3.675a256.351 256.351 0 0 0 -25.075 58c-.441-.854-.855-1.57-1.2-2.125 2.654-14.23-4.152-22.721-7.11-25.646-1.154-15.013-9.82-22.762-13.4-25.347-2.667-16.4-10.437-24.578-16.98-29.892a13.062 13.062 0 0 0 -14.76-1.239c-16.416 9.3-19.362 27.491-19.885 33.161-8.3 7.037-8.449 17.288-6.958 23.558a20.356 20.356 0 0 0 -7.038 14c-7.016-36.533-23.162-67.68-23.973-69.234-2.2-4.032-8.267-.869-6.2 3.247.206.4 18.581 35.869 24.542 74.535-16.531-23.467-39.368-51.063-64.288-66.967a11.487 11.487 0 0 0 -14.852 1.833 11.52 11.52 0 0 0 -1.031 14.974 397.751 397.751 0 0 1 45.2 81.909 3.5 3.5 0 1 0 6.495-2.609 404.907 404.907 0 0 0 -46.006-83.383 4.768 4.768 0 0 1 6.429-6.826c27.8 17.723 53.012 50.842 69.48 75.507a33.872 33.872 0 0 0 1.956 13.263 23.522 23.522 0 0 0 -5.556 16.117 119.727 119.727 0 0 0 -13.3-27.717c-2.674-3.736-8.306.142-5.762 3.974a117.981 117.981 0 0 1 14.626 33.512c-7.375-7.125-13.551-10.561-22.547-8.613a59.585 59.585 0 0 1 -7.215 1.294c-18.14-41.758-54.538-66.568-56.108-67.621a3.5 3.5 0 0 0 -3.9 5.809c.36.244 34.978 23.871 52.644 62.455-3.346.189-6.9.21-10.471.154a3.523 3.523 0 0 0 -3.156 2.191c-.316.78-5.052 14.2-2.347 49.98 1.475 19.175.54 35.424-2.779 48.294-2.321 8.789 9.754 14.067 14.6 6.213 8.123-13.116 12.967-29.468 14.395-48.6.693-8.752 2.719-17.694 6.8-24.78 6.173 11.846 8.83 26.921 7.893 41.354-.243 4.242-.489 7.987-.66 13.588-2.845-7.151-5.067-10.259-5.253-10.512-2.763-3.628-8.266.361-5.652 4.13.079.109 7.278 10.426 12.328 38.456 3.039 26.523 16.333 55.077 44.829 60.36a41.714 41.714 0 0 1 4.4 13.105 12.071 12.071 0 0 0 11.932 10.264h7.5a12.01 12.01 0 0 0 12-10.82c.043-.2.006-2.377.018-2.627a3.5 3.5 0 0 0 -7 0v2.078a5.033 5.033 0 0 1 -5.02 4.369h-7.5a5.1 5.1 0 0 1 -5.018-4.366 49.349 49.349 0 0 0 -3.058-10.86c11.992 1.561 27.22.541 36.323-4.1 19.708-8.026 30.191-23.892 37.4-56.59 7.305-33.151 24.948-48.509 25.2-48.725a3.5 3.5 0 0 0 -4.51-5.353c-.8.673-19.66 16.873-27.526 52.573-1.234 5.6-2.561 10.581-3.977 15.028 2.67-28.2 15.833-123.869 75.021-200.006a82.918 82.918 0 0 0 15.201-23.652zm-103.248 43.221a22.038 22.038 0 0 1 -10.055 1.54 3.5 3.5 0 0 0 -.452 6.987 28.913 28.913 0 0 0 12.288-1.683 27.3 27.3 0 0 1 1.933 20.756c-7.5 2.817-15.841 1.926-20.42 1.062 3.084-11.472-1.508-19.464-4.176-22.9 3.328-9.04 2.23-16.256.434-21.075a33.486 33.486 0 0 0 16.149-2.83c2.251 2.622 5.974 8.586 4.299 18.143zm-7.346-24.438c-5.3 2.5-11.348 2.368-15.078 1.934a38.33 38.33 0 0 0 -.146-17.978 22.669 22.669 0 0 0 5.739-2.551c2.911 2.367 8.399 8.141 9.485 18.595zm-48.333 84.487c-1.522 5.247-2.3 13.429 2.208 23.3-13.623 2.144-20.589-.948-22.706-2.175a96.589 96.589 0 0 0 -5.762-14.782l-.006-.057c.157-3.822.522-7.594 1.768-10.545 4.278 2.395 12.299 5.389 24.498 4.259zm-23.943 146.6c-18.636-19.15-19.03-63.045-17.229-84.027a102.294 102.294 0 0 0 -.16-17.294c-1.957-19.077-8.925-34.631-20.71-46.235a3.5 3.5 0 0 0 -4.911 4.988 58.214 58.214 0 0 1 7.046 8.387c-6.014 7.932-9.006 20.13-9.822 30.872-1.344 18-5.841 33.287-13.366 45.438a.941.941 0 0 1 -1.3.426.912.912 0 0 1 -.574-1.206c3.511-13.618 4.513-30.635 2.979-50.58-1.985-25.8.15-39.515 1.285-44.6 13.046.068 21.068-1.58 24.025-2.334a10.971 10.971 0 0 1 6.67.34c7.166 2.737 24.351 14.775 29.154 67.309 3.542 38.744 18.332 58.355 30.116 67.983a3.5 3.5 0 1 0 4.429-5.42c-15.8-12.6-25.625-36.642-27.783-65.367 2.567 1.315 13.322 5.353 13.692-1.088a3.5 3.5 0 0 0 -3.5-3.5 14.341 14.341 0 0 1 -11.356-5.1c-.836-5.881-1.843-11.209-2.983-16.041 5.312 1.653 13.7 1.9 20.429.841-1.557 6.182-2.281 16.078 4.783 25.195-3.381 5.011-8.9 16.9.629 32.222a29.185 29.185 0 0 0 .6 18.724 3.5 3.5 0 1 0 6.541-2.493 22.19 22.19 0 0 1 -.883-12.5 31.79 31.79 0 0 0 13.663-.813 3.5 3.5 0 1 0 -1.85-6.752 24.135 24.135 0 0 1 -11.958.4c-7.833-12.387-3.416-21.416-1-24.876 5.66 1.321 12.589 1.078 19.685-.615a3.5 3.5 0 0 0 -1.616-6.81c-9.5 2.251-15.45.945-17.3.4-9.721-11.068-3.164-24.43-2.88-24.993a3.482 3.482 0 0 0 .184-2.722c-6.561-10.84-5.292-20.666-3.467-24.618a30.688 30.688 0 0 0 16.251.631 3.5 3.5 0 0 0 -1.6-6.814 22.374 22.374 0 0 1 -13.857-.974 21.577 21.577 0 0 1 -.772-20.422 32.119 32.119 0 0 0 13.054.25 3.5 3.5 0 0 0 -1.3-6.879 24.07 24.07 0 0 1 -11.172-.456c-5-8.319.762-19.81.838-19.958 2.037-4.118-4.036-7.259-6.219-3.214-.322.622-7.414 14.6-.98 26.163-2.121 4.08-5.851 13.688-1.293 24.489-14.246 1.58-21.523-3.169-23.282-4.533a16.562 16.562 0 0 1 2.054-16.956 28.227 28.227 0 0 0 11.7 1.907 3.5 3.5 0 0 0 -.286-6.994 19.639 19.639 0 0 1 -9.507-1.731 26.209 26.209 0 0 1 -1.73-11.727 20.09 20.09 0 0 1 2.362-7.775 15.3 15.3 0 0 0 8.159 2.252 3.5 3.5 0 0 0 0-7 7.509 7.509 0 0 1 -5.686-2.182c-.637-2.22-2.571-10.784 3.457-16.357a27.214 27.214 0 0 0 12.4 3.645c.636 2.321 1.454 6.66 4.735 6.581a3.52 3.52 0 0 0 3.167-4.984c-2.956-6.315-.39-10.643-.234-10.9 2.429-3.868-3.248-7.616-5.848-3.847a16.072 16.072 0 0 0 -2.121 6.1c-5.184-.527-8.017-2.209-9.1-3.014-.738-2.552-2.444-10.654 3.379-16.585a19.3 19.3 0 0 0 9.309 1.948 3.5 3.5 0 0 0 0-7 13.28 13.28 0 0 1 -5.789-.991c.544-4.931 3.252-19.933 16.313-27.329a6.108 6.108 0 0 1 6.9.582c5.827 4.732 12.021 11.418 14.373 25-4.812 3.042-12.827 3.058-15.789 2.759a3.5 3.5 0 0 0 -.72 6.963 47.369 47.369 0 0 0 7.724-.035 31.931 31.931 0 0 1 -.791 18.639 3.522 3.522 0 0 0 .788 3.169c.074.083 7.375 8.461 1.338 22.46a3.534 3.534 0 0 0 .811 3.93c1.16 1.061 7.833 8.6 2.624 21.929a3.557 3.557 0 0 0 1.329 3.028c.089.07 8.849 7.142 3.195 22.21a3.52 3.52 0 0 0 2.2 4.558c2.442 1.044 11.87 2.372 15.987-.411 3.992-2.31.691-8.271-3.377-6.13-1.85 1.02-4.693.959-7.023.628 2.152-8.046.962-14.227-.973-18.579a43.789 43.789 0 0 0 18.283-1.648 33.974 33.974 0 0 1 2.872 20.525 3.532 3.532 0 0 0 .343 2.238 40.279 40.279 0 0 1 3.19 9.783 399.615 399.615 0 0 0 -17.532 37.6 41.293 41.293 0 0 0 .425-11.914 10.794 10.794 0 0 0 -13.488-9.176c-7.65 2.069-15.431-.551-15.508-.577-4.352-1.429-6.623 5.014-2.3 6.61.4.14 9.847 3.368 19.635.725 6.67-1.213 4.865 8.572 4.442 12.375a28.041 28.041 0 0 0 .057 9.852c1.1 6.254.621 8.858.363 9.687-2.564 8.117-4.884 16.435-6.766 24.957-7.066 31.708-17.109 56.36-29.848 73.362-12.567-.871-22.8-5.564-30.428-13.982zm85.253-21.966c-2.04 23.956-20.8 37.876-46.625 36.563 12.226-17.676 21.564-41.462 28.47-72.454a264.371 264.371 0 0 1 13.463-43.089c19.678-47.765 43.9-80.733 61.7-100.725-46.9 76.791-55.646 161.709-57.008 179.707zm10.5-126.337c-.484-1.335-.936-2.409-1.266-3.136a40.765 40.765 0 0 0 -4.51-25.371 33.539 33.539 0 0 0 1.575-8.7c22.518-43.7 53.464-65.528 75.4-76.019a6.966 6.966 0 0 1 9.454 8.977 77.045 77.045 0 0 1 -13.734 21.431c-3.554 2.673-35.918 27.963-66.923 82.82z"/><path d="m257.964 21.176c3.073-3.533-2.1-8.192-5.294-4.765-3.07 3.532 2.104 8.189 5.294 4.765z"/></svg>