<svg id="Layer_1" enable-background="new 0 0 500 500" viewBox="0 0 500 500" xmlns="http://www.w3.org/2000/svg"><g><path d="m306.501 342.469c-22.469 0-44.485-7.912-61.852-22.508l-41.42-34.815c-35.649-29.96-40.276-83.335-10.318-118.98 14.515-17.27 34.882-27.852 57.357-29.799 22.489-1.956 44.359 4.973 61.626 19.485l41.42 34.811c20.516 17.24 32.961 42.484 34.145 69.26l2.871 64.85c.191 4.297-2.939 8.022-7.204 8.575l-64.377 8.333c-4.08.525-8.174.788-12.248.788zm-100.915-165.652c-24.086 28.658-20.364 71.569 8.294 95.654l41.42 34.814c16.982 14.272 39.334 20.826 61.322 17.975l56.833-7.356-2.532-57.251c-.983-22.158-11.281-43.05-28.26-57.315l-41.42-34.811c-13.881-11.666-31.5-17.225-49.546-15.666-18.067 1.565-34.445 10.072-46.111 23.956z"/><path d="m202.45 448.243c-1.177 0-2.37-.252-3.502-.779l-58.796-27.507c-24.27-11.353-42.82-32.522-50.884-58.079l-16.278-51.601c-14.014-44.404 10.716-91.933 55.123-105.943 18.511-5.839 38.62-5.109 56.617 2.063 4.249 1.691 6.318 6.506 4.627 10.751-1.688 4.249-6.515 6.312-10.751 4.627-14.467-5.762-30.63-6.35-45.514-1.655-35.7 11.265-55.579 49.478-44.317 85.178l16.277 51.599c6.677 21.15 22.026 38.668 42.115 48.065l51.906 24.283 28.577-49.675c9.839-17.781 9.073-37.104 6.628-64.387l-2.412-7.654c-1.378-4.359 1.044-9.008 5.403-10.383 4.358-1.374 9.008 1.045 10.382 5.403l2.684 8.51c.181.569.297 1.154.352 1.746 2.693 29.867 3.653 52.721-8.62 74.902l-32.438 56.387c-1.521 2.646-4.298 4.149-7.179 4.149z"/><path d="m125.543 351.192c-3.515 0-6.777-2.26-7.89-5.791l-10.153-32.182c-8.342-26.449-4.355-46.383 11.847-59.255 3.573-2.833 8.788-2.247 11.631 1.336 2.842 3.579 2.244 8.785-1.336 11.631-10.431 8.284-12.51 21.796-6.357 41.31l10.153 32.182c1.377 4.359-1.041 9.008-5.404 10.382-.826.261-1.666.387-2.491.387z"/><path d="m90.622 250.226c-3.088 0-6.05-1.736-7.469-4.711-1.465-3.066-35.483-75.837-1.277-138.911 23.882-44.036 74.595-71.468 150.739-81.53 2.726-.372 5.513.688 7.337 2.79s2.464 4.986 1.713 7.667c-.064.22-6.179 22.401-1.807 42.015 13.086 58.703-10.57 80.474-11.582 81.372-3.417 3.036-8.649 2.722-11.686-.705-3.033-3.421-2.716-8.653.705-11.686.055-.058 17.153-17.156 6.402-65.379-3.081-13.836-1.992-28.176-.478-37.961-64.074 10.399-106.684 34.329-126.738 71.213-30.22 55.583 1.293 123.313 1.614 123.989 1.959 4.126.21 9.063-3.916 11.029-1.148.546-2.364.808-3.557.808z"/><path d="m130.587 220.494c-3.803 0-7.224-2.632-8.071-6.496-.575-2.629-13.457-64.898 41.391-114.162 3.401-3.062 8.64-2.781 11.689.624 3.055 3.401 2.778 8.636-.624 11.689-47.483 42.652-36.758 96.078-36.279 98.329.951 4.465-1.886 8.866-6.344 9.829-.591.126-1.18.187-1.762.187z"/><path d="m382.063 475c-1.811 0-3.602-.081-5.365-.239-18.909-1.708-34.555-13.428-41.869-31.351-7.592-18.615-4.291-39.58 8.617-54.716l32.318-37.902c3.143-3.686 9.455-3.686 12.598 0l32.318 37.902c12.908 15.135 16.209 36.101 8.617 54.716-7.314 17.923-22.961 29.644-41.857 31.351-1.778.158-3.57.239-5.377.239zm0-106.079-26.019 30.514c-8.876 10.409-11.129 24.862-5.885 37.721 4.931 12.083 15.404 19.976 28.017 21.114 2.551.227 5.222.227 7.786 0 12.604-1.138 23.077-9.031 28.004-21.114 5.245-12.859 2.991-27.313-5.884-37.721z"/><path d="m313.98 303.625c-14.728 0-29.062-4.779-40.906-13.736l-42.513-32.143c-3.648-2.758-4.369-7.948-1.611-11.595 2.758-3.644 7.951-4.362 11.595-1.61l42.513 32.143c10.173 7.689 22.783 11.301 35.471 10.185l10.532-.931c4.481-.443 8.568 2.959 8.973 7.518.404 4.552-2.962 8.572-7.518 8.973l-10.531.931c-2.005.178-4.006.265-6.005.265z"/></g></svg>