<svg id="Layer_1" enable-background="new 0 0 90 90" viewBox="0 0 90 90" xmlns="http://www.w3.org/2000/svg"><g><path d="m26.25 52.5v-1.25c0-.6903572-.5596447-1.25-1.25-1.25-.6903572 0-1.25.5596428-1.25 1.25v1.25h-2.5c-.4258823-.0001831-.8486538.0725365-1.25.2150002v-1.4650002c0-.6903572-.5596428-1.25-1.25-1.25s-1.25.5596428-1.25 1.25v1.4650002c-.4013462-.1424637-.8241177-.2151833-1.25-.2150002h-2.5v-1.25c0-.6903572-.5596437-1.25-1.25-1.25s-1.25.5596428-1.25 1.25v1.25c-.6903563 0-1.25.5596428-1.25 1.25v2.5c-.0006399.5592804.1246452 1.1115265.3665628 1.6157799-.2350759.2341575-.3670167.5524215-.3665628.8842201v2.5c-.0006399.5592804.1246452 1.1115265.3665628 1.6157799-.2350759.2341575-.3670167.5524215-.3665628.8842201v2.5c.0023251 2.0700989 1.6798964 3.747673 3.75 3.75h3.75v3.75c0 .6903534.5596428 1.25 1.25 1.25s1.25-.5596466 1.25-1.25v-3.75h3.75c2.0701046-.002327 3.7476749-1.6799011 3.75-3.75v-2.5c.000452-.3317986-.131485-.6500626-.3665619-.8842201.2419167-.5042534.3672009-1.0564995.3665619-1.6157799v-2.5c.000452-.3317986-.131485-.6500626-.3665619-.8842201.2419167-.5042534.3672009-1.0564995.3665619-1.6157799v-2.5c0-.6903572-.5596447-1.25-1.25-1.25zm-5 2.5h3.75v1.25c-.0007744.6900368-.5599651 1.2492218-1.25 1.25h-3.75v-1.25c.0007744-.6900368.5599651-1.2492218 1.25-1.25zm3.75 5v1.25c-.0007744.6900368-.5599651 1.2492218-1.25 1.25h-3.75v-1.25c.0007744-.6900368.5599651-1.2492218 1.25-1.25zm-12.5 1.25v-1.25h3.75c.6900349.0007782 1.2492256.5599632 1.25 1.25v1.25h-3.75c-.6900349-.0007782-1.2492256-.5599632-1.25-1.25zm5-5v1.25h-3.75c-.6900349-.0007782-1.2492256-.5599632-1.25-1.25v-1.25h3.75c.6900349.0007782 1.2492256.5599632 1.25 1.25zm-5 10v-1.25h3.75c.6900349.0007782 1.2492256.559967 1.25 1.25v1.25h-3.75c-.6900349-.0007782-1.2492256-.559967-1.25-1.25zm12.5 0c-.0007744.690033-.5599651 1.2492218-1.25 1.25h-3.75v-1.25c.0007744-.690033.5599651-1.2492218 1.25-1.25h3.75z"/><path d="m84.53125 52.7739029-6.25-5c-.2217407-.1773911-.4972763-.2739945-.78125-.2739029h-5v-6.25c-.0038757-3.4501724-2.7998276-6.2461243-6.25-6.25h-1.25v-16.25c0-.6903572-.5596466-1.25-1.25-1.25h-7.5c-.6903572 0-1.25.5596428-1.25 1.25v16.25h-1.25c-.4198303-.0001335-.8386078.0420036-1.25.125782v-18.875782c-.0038757-3.4501734-2.7998276-6.2461252-6.25-6.25h-5c-3.4501762.0038748-6.2461243 2.7998266-6.25 6.25v13.75h-23.75c-.6903563 0-1.25.5596447-1.25 1.25v4.7048416l-4.8679686 9.7360954c-.0037503.0073433-.0062504.015625-.0098438.0226555-.0140624.029686-.0271878.0599976-.0390625.0909348-.0048437.0126572-.0093751.0253105-.0139065.0379715-.0106249.0312538-.02.0625-.0282812.0950012-.0032811.0126534-.006875.0253105-.0096874.0379715-.0075002.0335922-.0131249.0675011-.0179687.1018753-.0015626.0115623-.0039062.0229683-.0053124.0346832-.0051866.0458107-.0078468.0918694-.0079689.13797v32.5c0 .6903534.5596442 1.25 1.25 1.25h77.5c.6903534 0 1.25-.5596466 1.25-1.25v-25c.0000916-.3796692-.1723709-.7388039-.46875-.9760971zm-42.03125-5.2739029h1.25c.6903534 0 1.25.5596428 1.25 1.25 0 .6903534-.5596466 1.25-1.25 1.25h-1.25zm7.5 8.75h3.5357819c-.5314026 1.497139-1.9471283 2.4981461-3.5357819 2.5h-3.5357819c.5314026-1.497139 1.9471283-2.4981461 3.5357819-2.5zm10-1.25c.8467484-.0058174 1.689537.1159668 2.5.3612518v4.2775002c-.8104668.2452698-1.6532555.367054-2.5.361248-1.7490616 0-3.8614082-.5839081-4.6945343-1.7018738.4478416-.7159958.7448387-1.5158615.8728142-2.3506279.96875-.5985908 2.3557853-.9474983 3.8217201-.9474983zm-15 6.25c4.1421356 0 7.5 3.3578644 7.5 7.5s-3.3578644 7.5-7.5 7.5-7.5-3.3578644-7.5-7.5c.0045624-4.1402435 3.3597565-7.4954376 7.5-7.5zm-5-1.1546898c-.9383926.544487-1.7826118 1.2370644-2.5 2.0509377v-20.6010895l2.5 5zm-2.5-24.140625v-.9546852h6.25c.6903534 0 1.25.5596466 1.25 1.25 0 .6903572-.5596466 1.25-1.25 1.25h-5.4775009zm-2.5 41.5453148h-2.5v-30.9548416l2.5-5zm2.5-2.1462479c.7594719.8623734 1.6610527 1.5882874 2.6656227 2.1462479h-2.6656227zm17.5-6.6037521c-.0009117-.4179459-.0279427-.8354263-.0809402-1.25h7.5809402v10h-12.6656265c3.1848106-1.7604141 5.1628761-5.1110306 5.1656265-8.75zm-.7323456-3.75c-.6174278-1.5176506-1.5967216-2.8612251-2.8525009-3.9135933.7751274-.1803551 1.5084381-.5077858 2.1601562-.9645309 1.32547 1.4664077 3.7317238 2.3781242 6.4246903 2.3781242.8411179.000988 1.6796913-.0923538 2.5-.2782822v2.7782822zm8.5974961-12.1326561c-.9350014-.2465668-1.8981858-.3700561-2.8651505-.3673439-1.8840637 0-3.658596.4493752-5.0146866 1.25h-4.9853134v-3.75h16.4365616l-3.4678116 2.7739029c-.0362968.0291328-.0708885.0603294-.1035919.093441zm-.3651505-32.8673439v5h-5v-5zm-5 7.5h5v7.5h-5zm8.75 10c2.0700684.0024109 3.7475891 1.6799316 3.75 3.75v6.25h-20v-6.25c.0024109-2.0700684 1.6799316-3.7475891 3.75-3.75zm-25-25h5c2.0700684.0024109 3.7475853 1.6799316 3.75 3.75v20.003437c-1.5735588 1.1790009-2.4998512 3.0303192-2.5 4.996563v13.0234375c-1.883831.8262367-3.2426033 2.5238991-3.6360931 4.5429726-.4599037.0514717-.9156456.1350098-1.3639069.25v-6.5664101h1.25c2.071064 0 3.75-1.678936 3.75-3.75 0-2.0710678-1.678936-3.75-3.75-3.75h-1.7275009l-2.5-5h4.2275009c2.071064 0 3.75-1.6789322 3.75-3.75s-1.678936-3.75-3.75-3.75h-6.25v-5h6.25c2.071064 0 3.75-1.6789322 3.75-3.75s-1.678936-3.75-3.75-3.75h-6.25v-3.75c.0024109-2.0700684 1.6799316-3.7475891 3.75-3.75zm-3.75 10h6.25c.6903534 0 1.25.5596428 1.25 1.25s-.5596466 1.25-1.25 1.25h-6.25zm-25 10h22.5v2.5h-22.5zm17.6320305 13.190937c-.0868454.173565-.1320515.3649788-.1320305.559063v31.25h-22.5v-30h18.75c.6903553 0 1.25-.5596466 1.25-1.25 0-.6903572-.5596447-1.25-1.25-1.25h-17.9775l3.75-7.5h22.2050018zm52.3679695 31.809063h-17.5v-23.1492195l5.438591-4.3507805h6.6228104l5.4385986 4.3507805z"/><path d="m73.75 62.5c.690033.0007782 1.2492218.5599632 1.25 1.25 0 .6903534.5596466 1.25 1.25 1.25s1.25-.5596466 1.25-1.25c-.0020447-1.5884132-1.0030441-3.0038109-2.5-3.5349998v-1.4650002c0-.6903572-.5596466-1.25-1.25-1.25s-1.25.5596428-1.25 1.25v1.4650002c-1.9523239.6911888-2.974678 2.8341866-2.2834854 4.7865105.5299835 1.4969939 1.9454422 2.4978484 3.5334854 2.4984893.6903534 0 1.25.5596466 1.25 1.25s-.5596466 1.25-1.25 1.25-1.25-.5596466-1.25-1.25-.5596466-1.25-1.25-1.25-1.25.5596466-1.25 1.25c.0020447 1.5884094 1.0030441 3.0038147 2.5 3.534996v1.465004c0 .6903534.5596466 1.25 1.25 1.25s1.25-.5596466 1.25-1.25v-1.465004c1.9523239-.691185 2.974678-2.8341827 2.2834854-4.7865067-.5299835-1.4970016-1.9454422-2.4978484-3.5334854-2.4984893-.6903534 0-1.25-.5596466-1.25-1.25 0-.6903572.5596466-1.25 1.25-1.25z"/><circle cx="73.75" cy="53.75" r="1.25"/></g></svg>