<svg id="Layer_1" enable-background="new 0 0 1024 1024" viewBox="0 0 1024 1024" xmlns="http://www.w3.org/2000/svg"><g id="XMLID_194_"><g id="XMLID_278_"><g id="XMLID_60_"><path id="XMLID_64_" d="m561.7 394.5c11.8 0 23-10.3 22.5-22.5s-9.9-22.5-22.5-22.5c-11.8 0-23 10.3-22.5 22.5s9.8 22.5 22.5 22.5z"/></g></g><g id="XMLID_300_"><g id="XMLID_54_"><path id="XMLID_58_" d="m900.9 345c.4.9 2.8 6.3.5 1.1.6 1.3 1.1 2.7 1.7 4.1 1.2 3 2.4 6 3.6 9 2.3 6 4.5 12.1 6.5 18.3 3.9 11.8 7.4 23.8 10.3 35.9 2.9 12.2 5.4 24.6 7.3 37 .3 1.8.6 3.6.8 5.4-.5-5.2-.1-1 0 .3.4 3 .7 6 1 9 .7 7 1.3 14 1.7 21 1.2 21.7.9 43.5-1 65.1-.4 4.8-.9 9.6-1.5 14.5-.1 1.1-.3 2.3-.4 3.4-.6 5 .8-5.5.1-.5-.4 2.7-.8 5.4-1.2 8.1-1.5 9.4-3.3 18.8-5.4 28.1-4.3 18.8-9.7 37.3-16.4 55.4-1.5 4.2-3.1 8.3-4.8 12.4-.7 1.6-3.9 8.6-.8 2-1.1 2.4-2.1 4.9-3.2 7.3-3.8 8.5-7.8 16.8-12.1 25-8.8 16.7-18.6 32.9-29.4 48.4-2.5 3.6-5.1 7.1-7.7 10.7-1.3 1.7-2.7 3.4-4 5.2 3.7-5.4 1.2-1.6.3-.4-.8 1-1.6 2.1-2.4 3.1-6 7.5-12.2 14.8-18.7 21.9-12.4 13.6-25.5 26.4-39.5 38.3-3.5 3-7 5.9-10.6 8.8-1.9 1.5-3.8 3-5.7 4.5-1.1.9-3.4 2.2 1.4-1.1-1.4 1-2.8 2.1-4.2 3.2-7.4 5.5-14.9 10.8-22.6 15.8-15.6 10.2-31.9 19.5-48.7 27.7-4.2 2-8.4 4-12.6 5.9-2 .9-4 1.8-6.1 2.7-.6.2-4.7 2-1 .4 3.8-1.6-1.6.6-2.2.9-8.7 3.5-17.4 6.8-26.3 9.7-18.4 6.2-37.1 11.1-56.1 14.8-4.5.9-9 1.7-13.4 2.4-2.3.4-4.5.7-6.8 1-1.4.2-2.7.3-4.1.6 6.8-1.2 2-.3.5-.1-9.9 1.2-19.8 2.1-29.7 2.7-19.8 1.1-39.8 1-59.6-.5-4.6-.3-9.2-.8-13.8-1.2-2.5-.3-5-.6-7.5-.9-1.1-.1-2.3-.3-3.4-.4 7 .6 1.5.2-.1 0-9.7-1.4-19.3-3.1-28.9-5.2-18.7-4-37.1-9.2-55.1-15.5-4.4-1.6-8.8-3.2-13.1-4.9-2.1-.8-4.1-1.6-6.2-2.5-.8-.3-1.6-.7-2.5-1-2.2-.9-1.6-.7 1.7.7-.8-.3-1.6-.7-2.4-1-8.5-3.7-16.9-7.6-25.2-11.8-16.8-8.6-33.1-18.2-48.8-28.9-3.6-2.5-7.2-5-10.8-7.6-1.8-1.3-3.5-2.6-5.3-3.9-1.1-.8-2.1-1.6-3.1-2.4-3.4-2.5 4 3.1.4.3-7.4-5.8-14.6-11.8-21.7-18-13.9-12.3-27-25.5-39.3-39.4-2.9-3.3-5.7-6.6-8.5-10-1.5-1.9-3.1-3.7-4.6-5.6-.7-.9-1.4-1.7-2-2.6-.4-.6-4-5-1.5-1.9s-.3-.4-.6-.9c-.7-.9-1.3-1.7-2-2.6-1.4-1.9-2.9-3.9-4.3-5.8-2.8-3.9-5.6-7.9-8.3-11.9-10.3-15.3-19.7-31.3-28-47.8-4.4-8.7-8.2-17.6-12.3-26.5 3.1 6.5-.2-.4-.8-2-.8-2.1-1.6-4.1-2.4-6.2-1.8-4.6-3.5-9.2-5.1-13.8-6.4-18.3-11.5-36.9-15.4-55.9-1.9-9.4-3.5-18.8-4.9-28.3-.7-5 .7 5.5.1.5-.1-.9-.2-1.8-.3-2.7-.3-2.3-.5-4.6-.8-6.9-.5-5.1-1-10.1-1.3-15.2-1.4-20.1-1.5-40.2-.3-60.3.6-9.7 1.6-19.3 2.7-29 .6-5-.8 5.5-.1.5.2-1.1.3-2.3.5-3.4.4-2.5.8-5 1.2-7.4.8-4.9 1.7-9.9 2.7-14.8 3.7-18.5 8.6-36.8 14.7-54.7 3.1-9.3 6.6-18.4 10.3-27.5.5-1.3 1.8-3.8-.7 1.7.6-1.2 1-2.4 1.6-3.7.9-2 1.8-4.1 2.7-6.1 2-4.4 4.1-8.8 6.2-13.2 8.4-17 17.8-33.4 28.3-49.1 5.1-7.7 10.4-15.2 16-22.5.4-.5 3.1-4 .6-.9s.3-.4.7-.8c1.4-1.7 2.7-3.4 4.1-5.1 3-3.7 6.1-7.4 9.3-11.1 12.3-14.2 25.5-27.7 39.4-40.2 6.8-6.1 13.8-12.1 21-17.8 1-.8 2.1-1.6 3.1-2.4 2.9-2.3-1.1.9-1.4 1.1 2-1.3 3.8-2.9 5.8-4.3 4-3 8.1-5.9 12.3-8.8 15.2-10.5 31-20 47.4-28.5 8.6-4.5 17.4-8.7 26.3-12.6 1.7-.7 8.7-3.3 2-.9 2.1-.7 4.1-1.7 6.2-2.5 4.5-1.8 9.1-3.6 13.7-5.2 18.1-6.6 36.7-12 55.6-16.1 9.3-2.1 18.7-3.8 28.2-5.2 2.3-.3 4.5-.6 6.8-1-7.4 1.3.4 0 2.2-.2 5-.6 10.1-1.1 15.1-1.5 22.4-1.9 45-2.1 67.4-.6 6.1.4 12.2.9 18.2 1.6 3 .3 6 .7 9 1.1 6.1.8-4.9-.7 1.2.2 1.8.3 3.6.5 5.4.8 12.7 2 25.4 4.5 37.9 7.6 11.8 2.9 23.4 6.3 34.9 10.2 5.6 1.9 11.1 3.9 16.6 6 2.7 1 5.5 2.1 8.2 3.2 1.6.7 3.3 1.3 4.9 2-5.2-2.3.2.1 1.1.5 5.8 2.5 11 4 17.3 2.3 5.2-1.4 10.9-5.5 13.4-10.3 5.1-9.7 3.5-25.8-8.1-30.8-51-22.2-104.6-35.6-160.1-39.3-44-2.9-88.6.8-131.7 10.2-78.6 17.3-152 55.9-211.7 109.6-59.5 53.5-104.4 122.6-130 198.3-26.8 79.1-31 165.3-13.9 246.9 16.6 78.8 54.6 152.5 107.9 212.8 53 59.9 121.7 105.3 197.1 131.6 78.8 27.5 165 32.4 246.7 16 79.1-15.9 153-53.3 213.8-106.1 60.4-52.5 106.3-120.7 133.2-196 31-86.5 35-182.5 12.6-271.4-6.5-25.7-15.4-50.5-26-74.7-4.7-10.8-21.4-14.1-30.8-8.1-11.3 7.5-13.2 19.5-8.1 31.1z"/></g></g><g id="XMLID_279_"><g id="XMLID_48_"><path id="XMLID_52_" d="m652 484.8c11.8 0 23-10.3 22.5-22.5s-9.9-22.5-22.5-22.5c-11.8 0-23 10.3-22.5 22.5s9.9 22.5 22.5 22.5z"/></g></g><g id="XMLID_276_"><g id="XMLID_42_"><path id="XMLID_46_" d="m561.7 394.5c11.8 0 23-10.3 22.5-22.5s-9.9-22.5-22.5-22.5c-11.8 0-23 10.3-22.5 22.5s9.8 22.5 22.5 22.5z"/></g></g><g id="XMLID_196_"><g id="XMLID_36_"><path id="XMLID_40_" d="m786.1 452.1c.9 4 1.7 7.9 2.4 11.9.4 2.2.8 4.3 1.1 6.5.1.9.3 1.9.4 2.8.1.7.1 4.4.2 1.7.2-2.9.1.9.2 1.7.1.9.2 1.9.3 2.8.2 1.9.4 3.8.6 5.7.4 4.4.7 8.9.9 13.4.6 14.1.3 28.1-1 42.2-.3 3-.6 6-1 8.9-.5 4.2.7-4.7.1-.5-.3 1.8-.5 3.6-.8 5.4-1 6.1-2.1 12.1-3.5 18.1-2.7 12-6.1 23.9-10.3 35.5-1 2.7-2 5.4-3 8.1-.5 1.2-1 2.5-1.5 3.7-.3.8-.7 1.6-1 2.5-1.1 2.7 1.9-4.3.7-1.7-2.5 5.4-4.9 10.9-7.6 16.2-5.4 10.8-11.5 21.3-18.2 31.3-3.3 4.9-6.7 9.8-10.3 14.5-.4.5-.8 1-1.2 1.6-1.4 2 1.6-2.1 1.5-2-1 1.1-1.9 2.4-2.9 3.6-1.9 2.4-3.9 4.7-5.9 7.1-7.7 9-15.9 17.5-24.5 25.5-4.5 4.2-9.1 8.2-13.8 12.1-1 .8-2 1.7-3.1 2.5-.5.4-1 .8-1.5 1.2-2.9 2.3 1.2-.9 1.4-1.1-2.5 1.7-4.9 3.7-7.4 5.5-9.6 6.9-19.6 13.3-30 19-5.4 3-10.9 5.8-16.5 8.5-2.4 1.1-4.8 2.3-7.2 3.3-.7.3-5.8 2.5-2.2 1s-2.1.8-2.8 1.2c-11.2 4.5-22.7 8.3-34.3 11.4-12.1 3.2-24.3 5.4-36.7 7.4-.2 0 5.1-.6 2.6-.4-.7.1-1.4.2-2.1.3-1.6.2-3.2.4-4.8.5-3.2.3-6.4.6-9.7.8-6.3.4-12.6.7-18.9.8-12.6.1-25.2-.5-37.7-2-1.1-.1-6.3-.8-2.5-.3s-.9-.1-1.8-.3c-3.4-.5-6.8-1.1-10.1-1.7-6-1.1-12-2.4-17.9-3.9-11.7-2.9-23.3-6.5-34.6-10.8-2.7-1-5.4-2.1-8.1-3.2-3.7-1.5 4.4 2-.1-.1-1.4-.6-2.8-1.3-4.2-1.9-5.6-2.6-11.2-5.3-16.6-8.2-10.5-5.6-20.6-11.8-30.4-18.5-2.3-1.6-4.7-3.3-6.9-5-1.2-.9-2.5-1.8-3.7-2.8-2.9-2.2 3.8 3-.1-.1-4.6-3.7-9.1-7.5-13.6-11.4-9-8-17.5-16.5-25.4-25.5-3.9-4.4-7.7-9-11.4-13.6-2.4-3 3.1 4.2-.1-.1-.8-1.1-1.6-2.1-2.4-3.2-1.8-2.5-3.6-5-5.3-7.5-6.9-9.9-13.1-20.3-18.8-31-2.8-5.3-5.4-10.6-7.9-16.1-.5-1.2-1.1-2.4-1.6-3.6-2.2-5 1.4 3.5-.1-.1-1.2-2.9-2.3-5.8-3.4-8.7-4.3-11.3-7.9-22.9-10.8-34.6-1.5-6.2-2.8-12.4-4-18.6-.5-2.9-1-5.8-1.4-8.8-.1-.9-.8-5.6-.3-1.8.5 3.9-.2-2.1-.4-3.2-1.4-12.5-2-25.1-1.9-37.7.1-6.5.4-13.1.8-19.6.2-3 .5-6 .8-9 .1-1.4.3-2.7.5-4.1.1-.7.2-1.4.3-2.1.3-2.9-.8 5.3-.2 1.2 3.6-24.3 9.9-48.1 19.1-70.9.3-.8 2.1-5.1.7-1.6-1.4 3.4.6-1.2 1-2.2 1.3-2.8 2.6-5.6 3.9-8.4 2.6-5.4 5.3-10.6 8.2-15.8 5.8-10.3 12.2-20.4 19.1-30 1.7-2.3 3.5-4.5 5.1-6.8-3.6 5.4-.9 1.2.1-.1 1.1-1.4 2.2-2.7 3.3-4.1 3.8-4.5 7.6-9 11.7-13.3 8-8.6 16.6-16.8 25.5-24.5 2.2-1.8 4.4-3.7 6.6-5.4 1.2-.9 2.5-1.8 3.6-2.9.1-.1-3.9 2.9-2 1.5.9-.6 1.7-1.3 2.6-2 4.7-3.5 9.6-6.9 14.5-10.2 9.9-6.5 20.2-12.5 30.8-17.8 5.3-2.6 11.1-4.6 16.2-7.6-.3.2-5.2 2.1-1.7.7.6-.3 1.2-.5 1.8-.8 1.2-.5 2.5-1 3.7-1.5 3.1-1.2 6.2-2.4 9.4-3.5 11.4-4 23.1-7.4 35-10 6-1.3 12-2.5 18.1-3.4 1.6-.3 3.2-.5 4.7-.7 4.2-.6-4.7.6-.5.1 3.2-.4 6.4-.7 9.6-1 14.1-1.3 28.3-1.6 42.4-.9 4.1.2 8.3.5 12.4.8 1.9.2 3.8.4 5.7.6 1.3.1 2.5.3 3.8.4.4 0 3.6.6.8.1-2.7-.5 2.7.4 3.5.5 2.2.3 4.3.7 6.5 1.1 4.3.8 8.6 1.6 12.8 2.6 11.5 2.5 24.9-3.4 27.7-15.7 2.6-11.4-3.4-25-15.7-27.7-59.4-13-122.5-10.1-179.9 10.5-49.4 17.7-94.5 46.8-130.3 85.4s-62.2 85.8-75.9 136.6c-14.3 53.2-14.8 110-1.7 163.5 12.6 51.5 38.5 99.3 73.7 138.8 35 39.3 79.5 69 128.6 87.7 51.4 19.5 107.1 24.4 161.4 16.9 51.1-7.1 101-27.4 142.6-57.9 42.2-30.9 77.4-71.1 100.7-118.1 24.9-50.1 37-106.3 34.1-162.2-1-18.6-3.6-37.3-7.5-55.5-2.5-11.5-16.5-19.3-27.7-15.7-11.9 4.1-18.2 15.5-15.5 27.8z"/></g></g><g id="XMLID_195_"><g id="XMLID_30_"><path id="XMLID_34_" d="m652 484.8c11.8 0 23-10.3 22.5-22.5s-9.9-22.5-22.5-22.5c-11.8 0-23 10.3-22.5 22.5s9.9 22.5 22.5 22.5z"/></g></g><g id="XMLID_217_"><g id="XMLID_24_"><path id="XMLID_28_" d="m630.3 468.3c2.6 7.6 4.7 15.3 6.2 23.2.2 1.2.4 2.4.6 3.6.5 2.6-.1-1.4-.2-1.5.6 1.5.4 3.8.6 5.4.4 4.3.6 8.6.6 12.9 0 3.3-.1 6.6-.3 9.8-.1 1.4-.2 2.8-.3 4.2-.1.7-.1 1.4-.2 2.1-.4 3.6-.1.7.2-1.2-1.1 6-2.1 12-3.7 18-.8 2.8-1.6 5.6-2.5 8.4s-2.8 5.9-3.2 8.8c0 .1 2-4.5 1-2.3-.4.8-.7 1.6-1.1 2.4-.5 1.2-1.1 2.4-1.7 3.6-1.4 2.8-2.8 5.5-4.3 8.2-3.1 5.4-6.6 10.3-10.1 15.4-1.3 2 1.6-2.1 1.5-1.9-.4.5-.8 1-1.2 1.5-1 1.2-1.9 2.4-2.9 3.5-2 2.3-4 4.6-6.2 6.8-4.1 4.2-8.4 8.2-13 12-.5.4-1 .8-1.5 1.2-1.5 1.2-2.4.8 1.4-1.1-1.1.5-2.2 1.6-3.2 2.3-2.5 1.8-5.1 3.5-7.7 5.1-5.2 3.3-10.7 6.2-16.3 8.8-1.2.5-2.5 1-3.6 1.6-.1.1 4.6-1.8 2.3-1-.8.3-1.7.7-2.5 1-2.9 1.1-5.9 2.1-8.9 3.1-5.8 1.8-11.8 3.2-17.8 4.3-1.3.2-2.7.4-4.1.7-3.9.6 5.1-.6-.2 0-3.2.3-6.5.6-9.7.7-6.3.3-12.6.1-18.9-.4-1.6-.1-3.2-.3-4.8-.5-2.5-.2 2.8.4 2.6.4-.7-.1-1.4-.2-2-.3-3.4-.5-6.7-1.2-10-1.9-5.9-1.3-11.7-3-17.4-5.1-1.3-.5-2.5-.9-3.7-1.4-5.1-2 3.4 1.6-.2 0-2.8-1.3-5.6-2.6-8.4-4-5.3-2.7-10.4-5.8-15.3-9.1-1.3-.9-2.5-1.7-3.8-2.6-.5-.4-1-.8-1.6-1.2-2-1.3 2.1 1.6 1.9 1.5-2.2-2.1-4.8-3.8-7.1-5.9-4.6-4.1-8.9-8.4-13-13-1.9-2.1-3.6-4.4-5.5-6.5-1.5-1.8 1.6 2.1 1.5 2-.2-.5-.8-1.1-1.2-1.6-1-1.4-2-2.8-3-4.3-3.3-4.9-6.4-10-9.1-15.3-1.3-2.6-2.5-5.2-3.7-7.8-2.1-4.5 1.4 3.5-.1-.1-.6-1.5-1.1-2.9-1.7-4.4-2.1-5.9-3.9-12-5.2-18.1-.6-2.9-1.2-5.8-1.7-8.7-.1-.7-.2-1.4-.3-2-.4-2.5.4 2.8.3 2.6-.1-1.8-.4-3.7-.6-5.5-.5-6.3-.7-12.6-.4-18.9.1-3 .3-6 .7-9 .1-.7.2-1.4.2-2.1.3-3-.7 4.9-.3 1.9.3-1.6.5-3.2.8-4.7 1.1-6 2.5-11.9 4.3-17.8.9-2.8 1.8-5.5 2.8-8.2.3-.7 2.4-5.9.8-2.3-1.5 3.6.9-2 1.3-2.8 2.5-5.4 5.3-10.6 8.5-15.7 1.5-2.4 3.1-4.8 4.7-7.1.8-1.1 2.1-2.5 2.7-3.7.1-.1-3 3.8-1.5 2 .6-.7 1.1-1.4 1.6-2 3.7-4.6 7.7-8.9 12-13 2-2 4.1-3.9 6.3-5.7 1.2-1 2.3-2 3.5-2.9.5-.4 1-.8 1.5-1.2 2.1-1.7-4.7 3.4-.9.7 4.8-3.4 9.7-6.7 14.9-9.7 2.5-1.4 5-2.8 7.6-4 1.2-.6 2.4-1.2 3.6-1.7.8-.4 1.6-.7 2.4-1.1 2.8-1.3-.9.6-1.7.7 2.7-.4 5.5-2.2 8.1-3 3-1 6-1.9 9-2.7 5.9-1.6 11.9-2.6 18-3.7-6.8 1.2-1.5.2.2.1 1.6-.2 3.2-.3 4.8-.4 3.3-.2 6.5-.3 9.8-.3 4 0 8 .2 12 .5 1.8.1 3.6.4 5.5.5 2.7.3-1.4-.2-1.5-.2 1.1-.2 3.3.5 4.5.7 7.9 1.4 15.6 3.5 23.2 6.2 11.1 3.9 25.1-4.4 27.7-15.7 2.9-12.5-3.8-23.5-15.7-27.7-60.3-21-128.9-5.2-174.7 38.9-42.8 41.3-60.4 103.1-47.6 161 12.6 56.9 55.4 103.1 109.7 123 56.5 20.6 120 7.6 166.2-29.8 47.9-38.8 69-102 58.9-162.1-1.4-8.5-3.6-16.9-6.5-25-3.9-11.1-15.6-19.6-27.7-15.7-10.6 3.2-19.5 15.4-15.3 27.3z"/></g></g><g id="XMLID_248_"><g id="XMLID_20_"><path id="XMLID_29_" d="m941.6 160c-20.6 20.6-41.2 41.2-61.7 61.7-32.5 32.5-65.1 65.1-97.6 97.6-7.5 7.5-15.1 15.1-22.6 22.6 5.3-2.2 10.6-4.4 15.9-6.6-31.7-.2-63.4-.5-95.1-.7-4.5 0-9-.1-13.6-.1l22.5 22.5c-.2-31.7-.5-63.4-.7-95.1 0-4.5-.1-9-.1-13.6-2.2 5.3-4.4 10.6-6.6 15.9 20.6-20.6 41.2-41.2 61.7-61.7 32.5-32.5 65.1-65.1 97.6-97.6 7.5-7.5 15.1-15.1 22.6-22.6-12.8-5.3-25.6-10.6-38.4-15.9.2 31.7.5 63.4.7 95.1 0 4.5.1 9 .1 13.6.1 12.2 10.2 22.4 22.5 22.5 31.7.2 63.4.5 95.1.7 4.5 0 9 .1 13.6.1 11.8.1 23-10.4 22.5-22.5-.5-12.3-9.9-22.4-22.5-22.5-31.7-.2-63.4-.5-95.1-.7-4.5 0-9-.1-13.6-.1 7.5 7.5 15 15 22.5 22.5-.2-31.7-.5-63.4-.7-95.1 0-4.5-.1-9-.1-13.6-.1-19.4-24.6-29.8-38.4-15.9-11.6 11.6-23.2 23.2-34.8 34.8-24 24-48 48-72 72-20.7 20.7-41.4 41.4-62.2 62.2-4.2 4.2-8.6 8.3-12.7 12.7-8.8 9.6-6.8 22.2-6.8 34.1.2 29.5.4 59.1.6 88.6v2.1c.1 12.2 10.2 22.4 22.5 22.5 26.6.2 53.2.4 79.9.6 9.5.1 19.2.5 28.7.2 11.2-.4 17.1-7.7 24.1-14.8 19.2-19.2 38.4-38.4 57.6-57.6 24.6-24.6 49.1-49.1 73.7-73.7 13.9-13.9 28.2-27.5 41.8-41.8.2-.2.4-.4.7-.7 8.3-8.3 9-23.6 0-31.8-8.8-8.1-22.7-8.8-31.6.1z"/></g></g><g id="XMLID_249_"><g id="XMLID_35_"><path id="XMLID_59_" d="m529.4 526.4c17.2-17.2 34.5-34.5 51.7-51.7 27.6-27.6 55.2-55.2 82.8-82.8 6.3-6.3 12.6-12.6 18.9-18.9 8.3-8.3 9-23.6 0-31.8s-22.9-8.9-31.8 0c-17.2 17.2-34.5 34.5-51.7 51.7-27.6 27.6-55.2 55.2-82.8 82.8-6.3 6.3-12.6 12.6-18.9 18.9-8.3 8.3-9 23.6 0 31.8 9 8.3 22.9 8.9 31.8 0z"/></g></g></g></svg>