<svg id="Layer_1" enable-background="new 0 0 512 512" viewBox="0 0 512 512" xmlns="http://www.w3.org/2000/svg"><path d="m205.6 401.6c-4.4-5.2-11.7-6.5-17.5-3.6l-7.5-16.1c-4.4-9.4-12.3-17-21.6-20.9l-62.4-27.1c-8.4-3.7-18-2.3-23.9 4.2l-30.7-91.8c-3.7-12.3-19-20.6-30.1-15.2-7.5 3.4-11.5 11.3-10.2 20.1l16.8 115.2c1.5 10 6.8 19.6 14.7 26.5l35.2 31 45.3 37.4c-3.3 5.2-3.1 12.2 1.1 17.2l19.8 23.3c4.9 6.1 14.7 6.9 20.6 1.7 0 0 68.5-58.1 68.5-58.1 3-2.5 4.8-6 5.1-9.9s-.9-7.7-3.4-10.6zm-130.3 14.2-35.1-30.9c-6-5.3-10.1-12.6-11.2-20.1l-16.8-115.1c-.6-4 1-7.4 4.1-8.8 5.4-2.7 13.7 2.5 15.5 8.9 0 0 35.5 106.6 35.5 106.6.1.3.3.6.4 1 1.8 7.9 7.9 15.2 15.4 18.4l37 16.3c6.3 2.8 10.7-6.9 4.3-9.8 0 0-37.1-16.4-37.1-16.4-2.2-1-4.2-2.5-5.8-4.4-7.8-8.7-2.2-23.3 10.5-17.9 13.3 5.8 49.6 21.7 62.5 27.1 13.4 4.6 19 22.3 24.6 33.8l-58 49.2zm141.4 21.5-68.5 58.1c-.8.7-1.8 1-2.9.9-1-.1-2-.6-2.7-1.4l-19.6-23.3c-1.3-1.6-1.2-3.9.3-5.3.7-.2 1.5-.5 2.1-1l64.2-54.9c.4-.4.8-.8 1-1.2 1.8-2 4.8-3 6.8-.7l19.7 23.3c1.5 1.6 1.3 4.1-.4 5.5zm283.4-206.2c-11.1-5.4-26.4 2.9-30.1 15.2 0 0-30.6 91.8-30.6 91.8-6-6.5-15.5-7.9-23.9-4.2l-42.7 18.6-19.7 8.5c-9.3 3.9-17.2 11.5-21.6 21l-7.5 16c-5.9-2.9-13.1-1.6-17.5 3.6l-19.7 23.3c-5.2 5.9-4.4 15.6 1.7 20.6 0 0 68.5 58.1 68.5 58.1 6.1 5.2 15.3 4.5 20.6-1.7l19.7-23.3c4.1-4.7 4.6-12 1.2-17.2l45.4-37.5 35-30.9c7.9-6.9 13.2-16.6 14.7-26.5l16.9-115.2c1.1-8.9-2.9-16.8-10.4-20.2zm-111.1 240.5-19.7 23.3c-1.4 1.6-3.9 1.9-5.5.5l-68.5-58.1c-.8-.7-1.3-1.6-1.4-2.7-.1-1 .2-2.1.9-2.8l19.7-23.3c2.6-3 6-.6 7.9 1.9 0 0 64.2 54.9 64.2 54.9.6.5 1.4.8 2.1 1 1.5 1.4 1.7 3.8.3 5.3zm110.8-221.9-16.9 115.1c-1.1 7.5-5.2 14.8-11.2 20.1-19.1 17.5-60.8 52.5-81.1 69l-58-49.2c5.7-11.6 11.1-29.2 24.6-33.8 0 0 62.5-27.1 62.5-27.1 17.4-6.4 18.2 17.1 4.7 22.2 0 0-37 16.3-37 16.3-6.4 2.8-2.1 12.6 4.3 9.8 0 0 37-16.3 37-16.3 8.1-3.3 13.7-11.3 15.9-19.5 0 0 35.5-106.5 35.5-106.5 3-10.9 21-14.4 19.7-.1zm-196.3 116.5c15.9-1.6 22.8-22.7 10.9-33.3 12.7-11.5 3.8-34.1-13.5-33.5-1.4-21.3 5.9-42.4 22.8-56.5 46.5-38.3 49.1-113.5 5.1-154.6-66.2-65.2-178.8-14.4-177.2 77.5.7 29.6 14 57.5 36.4 76.7 17.6 14.8 24.7 35.6 23.2 56.9-17.4-.6-26.3 22-13.6 33.5-11.9 10.6-5 31.7 10.9 33.3 1.2 22 19.4 39.6 41.8 39.6h11.4c22.3 0 40.6-17.6 41.8-39.6zm-108.5-131.8c-20.1-17.2-32.1-42.3-32.7-68.9-1.2-50.5 40.5-94.5 91-96 51.4-2.6 97.6 42.3 96.5 93.8 0 27.5-12 53.5-33 71.5-19.2 16.1-28.1 40.3-26.6 64.6h-68.3c1.6-24.4-7.1-48.2-26.9-65zm7.2 112.6c0-4.8 3.9-8.8 8.7-8.8h27.4c7 0 7-10.6 0-10.7h-27.4c-11.5-.2-11.5-17.3 0-17.5h90.1c4.8 0 8.8 3.9 8.8 8.8s-3.9 8.8-8.8 8.8h-16.5c-7 0-7 10.6 0 10.7h16.5c4.8 0 8.8 3.9 8.8 8.8 0 4.8-3.9 8.8-8.8 8.8h-90c-4.9-.2-8.8-4.1-8.8-8.9zm59.5 48.1h-11.4c-16.4 0-29.8-12.7-31.1-28.7h73.6c-1.3 16-14.7 28.7-31.1 28.7zm68.1-220.1c1.3-1.8 1.3-4.3 0-6.1-16.9-24.2-44.5-38.6-73.8-38.6-29.4 0-57 14.4-73.8 38.6-1.3 1.8-1.3 4.3 0 6.1 34.7 51.1 112.9 51.1 147.6 0zm-39.1-25.9c10.9 5.3 20.5 13.1 28.1 22.9-7.6 9.8-17.2 17.6-28.1 22.9 9.1-12.9 9.1-32.9 0-45.8zm-69.4 45.8c-10.9-5.3-20.5-13.1-28.1-22.9 7.6-9.8 17.2-17.6 28.1-22.9-9.1 12.9-9.1 32.9 0 45.8zm3.7-22.9c1.3-40.9 60.6-40.9 61.9 0-1.3 40.9-60.5 40.9-61.9 0zm16 0c.5 19.8 29.5 19.8 30 0-.5-19.8-29.5-19.8-30 0zm10.7 0c0-5.7 8.6-5.7 8.6 0 0 5.6-8.6 5.6-8.6 0zm-113.8 110.6 15.1-15.1c2.1-2.1 5.5-2.1 7.5 0 2.1 2.1 2.1 5.5 0 7.5l-15.1 15.1c-2.1 2.1-5.5 2.1-7.5 0-2.1-2.1-2.1-5.5 0-7.5zm213.6-206.1c-2.1-2.1-2.1-5.5 0-7.5l15.1-15.1c2.1-2.1 5.5-2.1 7.5 0s2.1 5.5 0 7.5l-15.1 15.1c-2.1 2.1-5.4 2.1-7.5 0zm-257.2 90.1h21.3c7 0 7 10.6 0 10.7h-21.3c-7 0-7-10.6 0-10.7zm302.1 0h21.3c7 0 7 10.6 0 10.7h-21.3c-7 0-7-10.6 0-10.7zm-258.5-105.2c-4.9-5 2.6-12.5 7.5-7.5 0 0 15.1 15.1 15.1 15.1 4.9 5-2.6 12.5-7.5 7.6 0-.1-15.1-15.2-15.1-15.2zm236.2 221.2c4.9 5-2.6 12.5-7.5 7.6 0 0-15.1-15.1-15.1-15.1-4.9-5 2.6-12.5 7.5-7.5 0-.1 15.1 15 15.1 15zm-123.4-251v-21.3c0-7 10.7-7 10.7 0v21.3c-.1 7-10.7 7-10.7 0z"/></svg>