<svg id="Layer_1" enable-background="new 0 0 64 64" viewBox="0 0 64 64" xmlns="http://www.w3.org/2000/svg"><g fill="none" stroke="#000" stroke-linecap="round" stroke-linejoin="round" stroke-miterlimit="10"><g><path d="m5.49 49.17v-1.65c0-2.3 1.86-4.17 4.15-4.17 1.15 0 2.18.47 2.93 1.22s1.22 1.8 1.22 2.95v1.65"/><path d="m5.48 49.17c-.6.75-.41 2.34.52 2.71.1.04.17.12.18.23.08.98.59 1.94 1.51 2.87.06.06.11.15.12.24.05.59-.14 1.05-.6 1.38 1.64 1.87 3.29 1.86 4.94 0-.44-.3-.68-.77-.66-1.24.01-.16.09-.31.2-.42.83-.81 1.39-1.8 1.53-3.07.01-.07.06-.13.12-.15.94-.34 1.16-1.93.43-2.53"/><path d="m7.22 56.59c-3.98 1.05-7.08 3.52-7.22 5.56h19.47c-.5-2.52-3.7-4.53-7.3-5.55"/></g><g><path d="m27.68 49.17v-1.65c0-2.3 1.86-4.17 4.15-4.17 1.15 0 2.18.47 2.93 1.22s1.22 1.8 1.22 2.95v1.65"/><path d="m27.68 49.17c-.6.75-.41 2.34.52 2.71.1.04.17.12.18.23.08.98.59 1.94 1.51 2.87.06.06.11.15.12.24.05.59-.14 1.05-.6 1.38 1.64 1.87 3.29 1.86 4.94 0-.44-.3-.68-.77-.66-1.24.01-.16.09-.31.2-.42.83-.81 1.39-1.8 1.53-3.07.01-.07.06-.13.12-.15.94-.34 1.16-1.93.43-2.53"/><path d="m29.42 56.59c-3.98 1.05-7.09 3.52-7.22 5.55h19.47c-.5-2.52-3.7-4.53-7.3-5.55"/></g><g><path d="m50.02 49.17v-1.65c0-2.3 1.86-4.17 4.15-4.17 1.15 0 2.18.47 2.93 1.22s1.22 1.8 1.22 2.95v1.65"/><path d="m50.02 49.17c-.6.75-.41 2.34.52 2.71.1.04.17.12.18.23.08.98.59 1.94 1.51 2.87.06.06.11.15.12.24.05.59-.14 1.05-.6 1.38 1.64 1.87 3.29 1.86 4.94 0-.44-.3-.68-.77-.66-1.24.01-.16.09-.31.2-.42.83-.81 1.39-1.8 1.53-3.07.01-.07.06-.13.12-.15.94-.34 1.16-1.93.43-2.53"/><path d="m51.76 56.59c-3.98 1.05-7.09 3.52-7.22 5.55h19.46c-.5-2.52-3.7-4.53-7.3-5.55"/></g><path d="m9.64 43.35v-7.88h44.53v7.88"/><path d="m31.84 43.35v-17.1"/><path d="m29.49 3.65h3.95l1.21-1.8 3.76 1.8-.51 1.85 2.42 2.76h2.54l1.66 3.05-2 1.41.02 3.97 1.98 1.55-1.55 3.46-1.91-.75-3.16 3.23.42 2.07-3.52 1.66-1.17-1.92-4.14-.15-1.42 2.07-3.52-1.83.83-1.99-3.14-3.09-2.31.81-1.51-3.74 2.01-1.3.07-3.97-2.08-1.47 1.84-3.35 2 .64 2.72-2.97-.22-2.39 3.36-1.41z"/><ellipse cx="31.47" cy="14.88" rx="7.48" ry="7.52"/><g><path d="m29.02 13.83h4.9"/><path d="m32.37 19.54-3.35-3.51h1.26c1.24 0 2.25-1.01 2.25-2.26 0-1.25-1.01-2.26-2.25-2.26h-1.26 4.9"/></g></g></svg>