<svg clip-rule="evenodd" fill-rule="evenodd" height="2in" image-rendering="optimizeQuality" shape-rendering="geometricPrecision" text-rendering="geometricPrecision" viewBox="0 0 2000 2000" width="2in" xmlns="http://www.w3.org/2000/svg"><g id="Layer_x0020_1"><path d="m1310 1073c-18 0-27-21-14-34 115-116 24-206-63-183-5 88-86 103-156 49-12-9-28 4-21 17 51 109 145 224 234 287 22 16-2 48-23 33-94-67-193-188-248-303-24-51 38-100 83-66 89 70 124-24 54-124h-165c-27 0-27-40 0-40h468c26 0 26 40 0 40h-256c12 20 22 42 27 67 54-12 111 8 140 52 38 58 21 132-46 199-4 5-9 6-14 6zm-46 780h-877c-73 0-133-59-133-132v-1442c0-73 60-132 133-132h877c73 0 133 59 133 132v165c203 71 349 265 349 492s-146 420-349 491v294c0 73-60 132-133 132zm-970-166v33c0 52 42 93 93 93h877c51 0 93-41 93-93v-33c-24 23-57 38-93 38h-877c-36 0-69-15-93-38zm1063-1255v-153c0-51-42-92-93-92h-877c-51 0-93 41-93 92v1313c0 51 42 93 93 93h877c51 0 93-42 93-93v-152c-202 53-411-20-538-178h-152c-9 47-51 83-101 83-57 0-104-46-104-103s47-104 104-104c50 0 92 36 101 84h123c-51-77-82-168-86-266h-142c-9 47-51 83-101 83-57 0-104-46-104-103s47-104 104-104c50 0 92 36 101 84h142c4-98 35-189 86-266h-123c-9 47-51 83-101 83-57 0-104-46-104-103s47-103 104-103c50 0 92 35 101 83h152c127-158 336-231 538-178zm-380-143h-302c-27 0-27-40 0-40h302c26 0 26 40 0 40zm248 166c-265 0-481 216-481 481s216 481 481 481 481-216 481-481-216-481-481-481zm0 902c-232 0-421-189-421-421 0-27 40-27 40 0 0 210 171 381 381 381 26 0 26 40 0 40zm401-401c-11 0-20-9-20-20 0-210-171-381-381-381-27 0-27-40 0-40 232 0 421 189 421 421 0 11-9 20-20 20zm-1165-84c-83 0-83 127 0 127s83-127 0-127zm105-305c-84 0-84 126 0 126 83 0 83-126 0-126zm0 611c-84 0-84 127 0 127 35 0 63-28 63-63 1-34-28-64-63-64zm0 280c-119 0-216-97-216-216 0-27 40-27 40 0 0 97 79 176 176 176 26 0 26 40 0 40zm-196-808c-12 0-20-9-20-20 0-119 97-216 216-216 26 0 26 40 0 40-98 0-176 79-176 176 0 11-9 20-20 20z"/></g></svg>