<svg id="Layer_1" viewBox="0 0 512 512" xmlns="http://www.w3.org/2000/svg" data-name="Layer 1"><path d="m181.25 181.31c-19.97 19.95-30.98 46.47-30.98 74.69 0 28.21 11 54.74 30.98 74.68 20.62 20.59 47.69 30.89 74.76 30.89s54.14-10.29 74.74-30.89c19.97-19.95 30.97-46.47 30.97-74.68s-11-54.74-30.97-74.69c-41.21-41.17-108.27-41.18-149.51 0zm139.6 139.45c-35.74 35.73-93.92 35.72-129.69 0-17.32-17.3-26.86-40.3-26.86-64.76s9.54-47.47 26.86-64.77c17.89-17.87 41.37-26.79 64.86-26.79s46.96 8.93 64.83 26.79c17.32 17.3 26.86 40.3 26.86 64.77 0 24.46-9.54 47.46-26.86 64.77zm-14.04-125.54c-.41-.43-.86-.79-1.35-1.09-13.57-10.84-30.75-17.35-49.44-17.35s-35.86 6.5-49.43 17.32c-.51.31-.99.7-1.42 1.15-17.39 14.54-28.47 36.36-28.47 60.73s11.08 46.19 28.47 60.73c.43.46.91.84 1.43 1.16 13.57 10.82 30.74 17.32 49.42 17.32s35.84-6.49 49.4-17.32c.49-.3.95-.67 1.36-1.1 17.42-14.54 28.53-36.39 28.53-60.79s-11.1-46.23-28.51-60.77zm-17.24 4.88c-3.71 2.22-7.62 4.07-11.68 5.52-1.13-4.44-2.47-8.61-4.03-12.32 5.57 1.58 10.85 3.88 15.71 6.8zm-33.55-9.17c1.39.95 4.98 5.53 8.21 17.95-2.71.34-5.45.52-8.2.52s-5.53-.17-8.23-.51c3.24-12.44 6.84-17.02 8.23-17.96zm-11 31.7c3.64.51 7.31.79 11.01.79s7.36-.27 10.98-.78c.31 2.04.59 4.13.85 6.26-4.17-.2-8.16-.29-11.83-.29s-7.68.09-11.86.29c.25-2.14.53-4.23.85-6.27zm-34.35-13.47c6.37 4.43 13.35 7.89 20.68 10.29-.55 3.48-1 7.01-1.37 10.52-13.19 1.38-26.66 3.94-36.76 8.19 3.19-11.18 9.29-21.14 17.44-29zm-19.82 46.83c.99-1.42 5.7-5.09 18.52-8.34 5.81-1.48 12.43-2.65 19.54-3.49-.2 4.17-.29 8.16-.29 11.83s.09 7.66.29 11.83c-7.11-.84-13.73-2.01-19.54-3.49-12.82-3.26-17.53-6.92-18.52-8.34zm2.38 17.83c10.1 4.25 23.57 6.81 36.76 8.19.37 3.51.82 7.04 1.37 10.52-7.33 2.4-14.31 5.86-20.68 10.29-8.15-7.87-14.26-17.83-17.44-29zm29.22 38.05c3.73-2.25 7.63-4.11 11.69-5.55 1.13 4.46 2.47 8.64 4.04 12.36-5.58-1.59-10.87-3.88-15.73-6.81zm11.69-106.21c-4.06-1.44-7.96-3.3-11.69-5.55 4.87-2.93 10.15-5.22 15.73-6.81-1.57 3.72-2.91 7.9-4.04 12.36zm21.89 115.4c-1.39-.94-4.99-5.52-8.23-17.96 2.71-.34 5.45-.51 8.23-.51s5.49.18 8.2.52c-3.23 12.41-6.82 17-8.21 17.95zm10.99-31.71c-3.63-.51-7.29-.78-10.98-.78s-7.37.27-11.01.79c-.31-2.04-.59-4.13-.85-6.27 4.18.2 8.18.29 11.86.29s7.66-.09 11.83-.29c-.25 2.13-.53 4.23-.85 6.26zm2.04-20.33c-4.26.23-8.61.34-13.02.34s-8.78-.12-13.05-.34c-.23-4.26-.34-8.61-.34-13.02s.12-8.77.34-13.02c4.27-.23 8.63-.34 13.05-.34s8.76.12 13.02.34c.23 4.26.34 8.62.34 13.02s-.12 8.77-.34 13.02zm4.81 49.67c1.56-3.71 2.9-7.88 4.03-12.32 4.06 1.44 7.98 3.3 11.68 5.52-4.86 2.92-10.14 5.22-15.71 6.8zm27.51-15.86c-6.37-4.44-13.35-7.9-20.69-10.3.54-3.48 1-7 1.36-10.51 13.19-1.38 26.66-3.94 36.76-8.19-3.19 11.18-9.29 21.13-17.44 29zm19.81-46.83c-.99 1.42-5.7 5.09-18.51 8.34-5.81 1.48-12.43 2.65-19.55 3.49.2-4.17.29-8.16.29-11.83s-.09-7.66-.29-11.83c7.11.84 13.73 2.01 19.54 3.49 12.82 3.26 17.53 6.92 18.51 8.34zm-39.14-26.02c-.37-3.51-.82-7.03-1.36-10.51 7.34-2.4 14.32-5.86 20.69-10.3 8.15 7.87 14.25 17.82 17.44 29-10.1-4.25-23.57-6.81-36.76-8.19zm193.48-2.02c-13.07 0-24.08 8.95-27.2 21.03h-9.94v-14.87c0-2.9-1.78-5.5-4.48-6.54l-37.78-14.59c-2.71-8.82-6.25-17.38-10.56-25.53l16.36-37c1.17-2.65.59-5.75-1.46-7.79l-10.52-10.51 7.02-7.01c4.38 2.58 9.32 3.87 14.26 3.87 7.18 0 14.37-2.73 19.84-8.2 5.31-5.3 8.24-12.35 8.24-19.84s-2.92-14.54-8.24-19.84c-10.94-10.93-28.74-10.92-39.68 0-5.31 5.3-8.24 12.35-8.24 19.84 0 5.1 1.36 9.98 3.89 14.26l-7.01 7.01-10.53-10.52c-2.04-2.04-5.13-2.62-7.78-1.45l-37.05 16.34c-8.14-4.32-16.72-7.86-25.58-10.58l-14.61-37.73c-1.04-2.7-3.64-4.48-6.54-4.48h-14.9v-9.91c12.09-3.12 21.06-14.11 21.06-27.15 0-15.48-12.59-28.07-28.07-28.07s-28.09 12.59-28.09 28.07c0 13.05 8.97 24.04 21.08 27.15v9.91h-14.9c-2.89 0-5.49 1.78-6.54 4.47l-14.63 37.73c-8.86 2.71-17.44 6.26-25.59 10.58l-37.02-16.34c-2.65-1.17-5.74-.59-7.78 1.45l-10.54 10.52-7.03-7.01c2.54-4.27 3.89-9.16 3.89-14.25 0-7.49-2.92-14.54-8.24-19.84-10.94-10.93-28.74-10.93-39.68 0-5.31 5.3-8.24 12.35-8.24 19.84s2.92 14.54 8.24 19.84c5.47 5.47 12.66 8.2 19.84 8.2 4.94 0 9.88-1.29 14.27-3.88l7.03 7-10.53 10.51c-2.05 2.05-2.63 5.15-1.46 7.8l16.39 36.99c-4.32 8.13-7.87 16.69-10.58 25.54l-37.78 14.59c-2.7 1.04-4.48 3.64-4.48 6.54v14.87h-9.94c-3.13-12.08-14.14-21.03-27.2-21.03-15.47 0-28.06 12.58-28.06 28.04s12.59 28.04 28.06 28.04c13.07 0 24.08-8.95 27.2-21.03h9.94v14.87c0 2.9 1.78 5.49 4.48 6.54l37.78 14.62c2.73 8.88 6.28 17.43 10.58 25.52l-16.38 36.99c-1.17 2.65-.59 5.75 1.46 7.8l10.53 10.51-7.03 7.01c-10.76-6.34-24.88-4.9-34.11 4.32-5.31 5.3-8.24 12.35-8.24 19.84s2.92 14.54 8.24 19.84c5.47 5.46 12.66 8.2 19.84 8.2s14.37-2.73 19.84-8.2c5.31-5.3 8.24-12.35 8.24-19.84 0-5.09-1.36-9.98-3.89-14.26l7.03-7.01 10.54 10.52c2.05 2.04 5.13 2.62 7.78 1.45l37.02-16.34c8.14 4.32 16.72 7.86 25.59 10.58l14.63 37.73c1.05 2.7 3.64 4.47 6.54 4.47h14.9v9.91c-12.11 3.12-21.08 14.11-21.08 27.16 0 15.48 12.6 28.07 28.09 28.07s28.07-12.59 28.07-28.07c0-13.04-8.96-24.04-21.06-27.15v-9.91h14.9c2.89 0 5.49-1.78 6.54-4.48l14.61-37.73c8.86-2.71 17.44-6.26 25.58-10.58l37.05 16.34c2.65 1.17 5.74.59 7.78-1.45l10.52-10.51 7.02 7c-2.54 4.27-3.89 9.16-3.89 14.26 0 7.49 2.92 14.54 8.24 19.84 5.47 5.46 12.66 8.2 19.84 8.2s14.37-2.73 19.84-8.2c5.31-5.3 8.24-12.35 8.24-19.84s-2.92-14.54-8.24-19.84c-9.23-9.22-23.35-10.66-34.11-4.32l-7.02-7 10.53-10.52c2.05-2.05 2.63-5.15 1.46-7.79l-16.36-37c4.35-8.21 7.89-16.78 10.57-25.54l37.77-14.59c2.7-1.04 4.48-3.64 4.48-6.54v-14.87h9.94c3.13 12.08 14.14 21.03 27.2 21.03 15.48 0 28.07-12.58 28.07-28.04s-12.59-28.04-28.07-28.04zm-74.24-136.9c2.74-2.74 6.34-4.1 9.94-4.1s7.2 1.37 9.94 4.1c2.66 2.66 4.12 6.18 4.12 9.92s-1.46 7.27-4.12 9.92c-5.48 5.47-14.39 5.47-19.87 0-2.66-2.66-4.12-6.18-4.12-9.92s1.46-7.27 4.12-9.92zm-290.56 19.85c-5.48 5.47-14.39 5.47-19.87 0-2.66-2.66-4.12-6.18-4.12-9.92s1.46-7.27 4.12-9.92c5.48-5.47 14.39-5.47 19.87 0 2.66 2.66 4.12 6.18 4.12 9.92s-1.46 7.27-4.12 9.92zm-74.24 159.11c-7.74 0-14.04-6.29-14.04-14.02s6.3-14.02 14.04-14.02 14.07 6.29 14.07 14.02-6.31 14.02-14.07 14.02zm74.24 150.92c-5.48 5.47-14.39 5.47-19.87 0-2.66-2.66-4.12-6.18-4.12-9.92s1.46-7.27 4.12-9.92c5.48-5.47 14.39-5.47 19.87 0 2.66 2.66 4.12 6.18 4.12 9.92s-1.46 7.27-4.12 9.93zm290.56-19.85c5.48-5.47 14.39-5.47 19.87 0 2.66 2.66 4.12 6.18 4.12 9.92s-1.46 7.27-4.12 9.92c-5.48 5.47-14.39 5.47-19.87 0-2.66-2.66-4.12-6.18-4.12-9.92s1.46-7.27 4.12-9.92zm-159.35-364.31c0-7.75 6.31-14.05 14.07-14.05s14.05 6.3 14.05 14.05-6.3 14.02-14.05 14.02-14.07-6.29-14.07-14.02zm28.12 438.45c0 7.75-6.3 14.05-14.05 14.05s-14.07-6.3-14.07-14.05 6.31-14.02 14.07-14.02 14.05 6.29 14.05 14.02zm154.29-202.15-36.52 14.1c-2.07.8-3.63 2.53-4.23 4.66-2.78 9.99-6.81 19.73-11.98 28.96-1.08 1.92-1.19 4.24-.3 6.26l15.81 35.76-24.18 24.15-35.82-15.8c-2.02-.89-4.34-.78-6.26.3-9.11 5.12-18.86 9.15-29 11.99-2.13.6-3.85 2.16-4.65 4.22l-14.12 36.47h-34.21l-14.15-36.48c-.8-2.06-2.52-3.62-4.65-4.21-10.14-2.84-19.89-6.87-29-11.99-1.92-1.08-4.24-1.2-6.26-.3l-35.79 15.8-11.95-11.92s-.08-.1-.13-.14c-.05-.05-.11-.1-.16-.15l-11.96-11.93 15.84-35.75c.9-2.03.78-4.36-.31-6.29-5.1-9.03-9.14-18.76-12-28.93-.6-2.12-2.16-3.84-4.22-4.64l-36.52-14.13v-34.15l36.52-14.1c2.06-.8 3.63-2.52 4.22-4.64 2.84-10.12 6.88-19.87 12-28.96 1.09-1.93 1.2-4.26.3-6.28l-15.84-35.75 24.2-24.15 35.79 15.8c2.02.89 4.34.78 6.26-.3 9.11-5.12 18.86-9.15 29-11.99 2.13-.59 3.85-2.16 4.65-4.21l14.15-36.48h34.21l14.12 36.47c.8 2.06 2.52 3.62 4.65 4.22 10.14 2.84 19.9 6.87 29 11.99 1.92 1.08 4.24 1.19 6.26.3l35.82-15.8 24.18 24.15-15.81 35.76c-.89 2.02-.78 4.34.29 6.26 5.12 9.13 9.15 18.88 11.98 28.97.6 2.13 2.16 3.85 4.22 4.64l36.52 14.1v34.15zm51.17-3.05c-7.76 0-14.07-6.29-14.07-14.02s6.31-14.02 14.07-14.02 14.05 6.29 14.05 14.02-6.3 14.02-14.05 14.02z"/></svg>