<svg id="Layer_1" enable-background="new 0 0 135 135" height="512" viewBox="0 0 135 135" width="512" xmlns="http://www.w3.org/2000/svg"><g id="Financial_Data"><g><path d="m10.7467241 126.449707c-.2763672 0-.5.2236328-.5.5s.2236328.5.5.5h.2587891c.2763672 0 .5-.2236328.5-.5s-.2236328-.5-.5-.5z"/><path d="m126.6744614 126.949707c0 .2763672.2236328.5.5.5h.0722656c.2763672 0 .4638672-.2236328.4638672-.5s-.2597656-.5-.5361328-.5-.5.2236328-.5.5z"/><path d="m21.4957466 25.8393555h78.5c.5517578 0 1-.4482422 1-1v-5.5439453c0-.5517578-.4482422-1-1-1h-78.5c-.5517578 0-1 .4482422-1 1v5.5439453c0 .5517578.4482422 1 1 1zm0-6.5439453h78.5v-.0009766l.5.0009766h-.5v5.5439453h-78.5z"/><path d="m100.4957504 29.9204102h-79.4990272c-.2763672 0-.5.2236328-.5.5s.2236328.5.5.5h79.4990234c.2763672 0 .5-.2236328.5-.5s-.223629-.5-.4999962-.5z"/><path d="m100.4957504 35.0004883h-79.4990272c-.2763672 0-.5.2236328-.5.5s.2236328.5.5.5h79.4990234c.2763672 0 .5-.2236328.5-.5s-.223629-.5-.4999962-.5z"/><path d="m120.5758286 103.8793945v-.5h-32.4804688v.5c0 1.2431641-.9257813 2.3203125-2.1796875 2.5097656-.2222443.0444489-.4026413.026062-.8603516.0302734v14.9404297h.5c1.4138718 0 2.5400391 1.176651 2.5400391 2.5498047v.5h32.4804688v-.5c0-1.40625 1.1396484-2.5498047 2.5400391-2.5498047h.5v-14.9404297h-.5c-1.4003907.0000001-2.5400391-1.1396483-2.5400391-2.540039zm2.040039 16.515625c-1.5537109.2216797-2.7851563 1.4570313-3.0048828 3.0146484-10.7900162 0-17.9351349 0-30.5517578 0-.2165527-1.5122223-1.4197083-2.7871017-3.0039063-3.0136719v-13.015625c.0117188-.0019531.0234375-.0039063.0341797-.0068359 1.546875-.2324219 2.75-1.4785156 2.9697266-2.9941406h30.5517578c.2207031 1.5527344 1.4521484 2.7841797 3.0048828 3.0048828z"/><path d="m126.6656723 103.2602539c0-1.6103516-1.3144531-2.9208984-2.9296875-2.9208984h-11.0800781v-89.6796875c0-1.7148438-1.3994141-3.109375-3.1201172-3.109375h-87.5800819c-1.7148438 0-3.1103516 1.3945313-3.1103516 3.109375v1.890625h-1.8896484c-1.7148428 0-3.1103506 1.3945313-3.1103506 3.109375v78.2423706c-.4264183.5570908-5.7343445 7.4916306-5.4072266 7.06427-1.8710942 2.4521484-1.407227 5.96875 1.0332031 7.8398438.1021786.0488358 1.7926378 1.5198441 4.3740234 1.050415v14.4827881c0 .8165283.322937 1.5548096.8395386 2.1103516h-1.4918823c-.2763672 0-.5.2236328-.5.5s.2236328.5.5.5h112.84375c.2763672 0 .5-.2236328.5-.5s-.2236328-.5-.5-.5h-.1139526c.456604-.5167847.7428589-1.1876221.7428589-1.9296875v-21.2597657zm-106.8203163-92.6005859c0-1.1630859.9462891-2.109375 2.1103516-2.109375h87.5800781c1.1689453 0 2.1201172.9462891 2.1201172 2.109375v89.6796875h-4v-84.6796875c0-1.7148438-1.3994141-3.109375-3.1201172-3.109375h-84.6904297zm-4.9999991 5c0-1.1630859.9462891-2.109375 2.1103506-2.109375h87.5800781c1.1689453 0 2.1201172.9462891 2.1201172 2.109375v84.6796875c-10 .0047836-83.5193481.0399323-83.6898193.0400391l3.8286743-5h75.4207153c.2763672 0 .5-.2236328.5-.5s-.2236328-.5-.5-.5h-74.6550292l.2722168-.3554688c1.3182373-1.7230835 1.5029907-4.0109253.5280151-5.9258423l2.0236816-2.6442261c6.8029861 4.1110229 15.2329712 4.0887451 21.8151245.3128052.3260499.2333374.7230225.3627319 1.1361085.3627319h41.6782265l-2.2729492 1.9082031c-.2119141.1777344-.2392578.4931641-.0615234.7041016.1772461.2123489.4940033.2387924.7041016.0615234.341095-.2869568-1.2361603 1.0389252 3.3356934-2.8067627.1013718-.0920334.1662598-.2282639.1662598-.3670654 0-.1500854-.0692139-.2804565-.1737061-.3720703-.1002808-.0879211-3.4298553-2.8992844-3.3272705-2.8066406-.2099609-.1748047-.5244141-.1503906-.7050781.0605469-.1777344.2109375-.1503906.5263672.0605469.7050781l2.2712402 1.9130859h-5.9876099c.1646118-.2873535.2661743-.6154175.2661743-.9697266v-30.8701171c0-1.0849609-.8828125-1.9667969-1.9677734-1.9667969h-5.6503906c-1.0849609 0-1.9667969.8818359-1.9667969 1.9667969v30.8701172c0 .3543091.1014404.682373.2659302.9697266h-5.1092532c.1646118-.2873535.2661743-.6154175.2661743-.9697266v-21.125c0-1.0849609-.8828125-1.9677734-1.9677734-1.9677734h-5.6640625c-1.0849609 0-1.9677734.8828125-1.9677734 1.9677734v21.125c0 .3543091.1015625.682373.2661743.9697266h-5.1043129c.1643677-.2875366.2658691-.6155396.2658691-.9697266v-7.6228638c4.3150673-8.6542969 2.3204956-19.0564575-4.7006226-25.5458374.8937378-.034729 1.6782837-.4978638 2.1445313-1.1970825l7.9481239 3.3803711c-.0021362.0440063-.0131226.0854492-.0131226.1299438 0 1.4902344 1.2119141 2.7021484 2.7021484 2.7021484 1.4892578 0 2.7011719-1.2119141 2.7011719-2.7021484 0-.251709-.0457764-.4907227-.1105347-.7221069l10.9996338-7.8516235c.4854126.4641724 1.1396484.753418 1.862854.753418 1.4892578 0 2.7011719-1.2119141 2.7011719-2.7021484 0-1.4892578-1.2119141-2.7011719-2.7011719-2.7011719-1.4902344 0-2.7021484 1.2119141-2.7021484 2.7011719 0 .4066772.0968018.7886963.2583008 1.1349487l-10.8690796 7.7584229c-.4940186-.6470947-1.2652588-1.0720825-2.1401978-1.0720825-1.0910034 0-2.0275269.652771-2.4537964 1.5852051l-7.7939491-3.3148193c.0402832-.1851196.0641479-.3760986.0641479-.5731201 0-1.4892578-1.2119141-2.7011719-2.7021484-2.7011719-1.4892578 0-2.7011719 1.2119141-2.7011719 2.7011719 0 .1865845.019165.3687744.0553589.5448608-5.9411621-3.9371338-13.4799805-4.6931152-20.0993042-2.0089111v-4.5368652l1.9101563 2.274353c.1757813.2119141.4912109.2392578.7041016.0615234.2119141-.1777344.2392578-.4931641.0615234-.7041016-.2873993-.3413696 1.0403214 1.2373009-2.8111572-3.3382568-.1006775-.1091423-.2377319-.1627197-.364624-.1627197-.1909943 0-.2615852.0871582-.3789063.1787109l-2.7988281 3.3212891c-.1777344.2109375-.1503906.5263672.0605469.7050781.2131042.1775856.5260868.150032.7050781-.0605469l1.9121094-2.2700806v4.9616699c-3.1546021 1.4650879-5.9403076 3.6921387-8.0673828 6.4695435-6.6702881 8.7184448-5.6598511 21.2597046 2.2254028 28.7771606l-2.0237427 2.6520386c-2.1878185-.4826355-4.3414116.4375229-5.5922852 2.0708008l-4.1025381 5.3597412v-76.9359132zm43.123046 63.8066406c-1.6396484 2.1445313-3.6435547 3.9150391-5.9628906 5.2666016-6.6592331 4.0396118-16.0105476 3.9397964-23.0166016-1.4208984-9.0885506-6.9412537-10.6843262-20.0427437-3.8554688-28.96875 2.0895386-2.7294922 4.84375-4.9091797 7.9666138-6.3027954.0004883-.0001831.0009155-.0004883.0013428-.0006714.0029297-.0012817.0056763-.0028687.008606-.0041504 19.5847778-8.7596856 37.8690299 14.594345 24.8583984 31.430664zm-3.5185547-31.1660156c0-.9384766.7626953-1.7011719 1.7011719-1.7011719s1.7021484.7626953 1.7021484 1.7011719-.7636719 1.7011719-1.7021484 1.7011719-1.7011719-.7626954-1.7011719-1.7011719zm5.5058594 30.0418701v5.8175049c0 .5351563-.4345703.9697266-.9697266.9697266h-5.6503906c-.0281372 0-.0533447-.0144653-.0812378-.0169678 2.1091919-1.3468628 3.9694214-3.0253296 5.507019-5.0367432.4247437-.5493774.8212891-1.1308594 1.194336-1.7335205zm-31.5742188 5.7647705c.3837891.2929688.7685547.5683594 1.1474609.8203125l-1.7275391 2.2568359c-.2919922-.3769531-.6298828-.7119141-1.0097656-1-.375-.2900391-.7910156-.53125-1.2265625-.7128906l1.7246094-2.2617188c.334961.2978516.6953125.5947266 1.0917969.897461zm38.1464882.0527344v-21.125c0-.5429688.4248047-.9677734.9677734-.9677734h5.6640625c.5429688 0 .9677734.4248047.9677734.9677734v21.125c0 .5332031-.4345703.9667969-.9677734.9667969h-5.6640625c-.5332031-.0000001-.9677734-.4335938-.9677734-.9667969zm14.1767578 0v-30.8701172c0-.5332031.4335938-.9667969.9667969-.9667969h5.6503906c.5332031 0 .9677734.4335938.9677734.9667969v30.8701172c0 .5332031-.4345703.9667969-.9677734.9667969h-5.6503906c-.5332031-.0000001-.9667969-.4335938-.9667969-.9667969zm-13.3701172-30.8554688c0-.9384766.7636719-1.7011719 1.7021484-1.7011719s1.7011719.7626953 1.7011719 1.7011719-.7626953 1.7021484-1.7011719 1.7021484-1.7021484-.7636718-1.7021484-1.7021484zm15.453125-10.5224609c0-.921875.7792969-1.7011719 1.7021484-1.7011719.9384766 0 1.7011719.7626953 1.7011719 1.7011719s-.7626953 1.7021484-1.7011719 1.7021484c-.9506759 0-1.7021484-.7920532-1.7021484-1.7021484zm-72.7998075 65.1582031c-1.9238281-1.5537109-2.2685552-4.3837891-.7558594-6.3662109l1.2329102-1.6102295 3.4116211 2.6112061c.2193298.1674423.5333433.1255875.7011719-.09375.1669922-.21875.1259766-.5332031-.09375-.7011719l-3.4108276-2.6105957 8.6793814-11.3356934c1.5753403-2.0641174 4.4801083-2.3662338 6.4306641-.8554688 1.9220238 1.4594574 2.4596767 4.3402176.8554688 6.4375l-10.5205078 13.7412109c-2.7111704 3.5578462-6.4302571.80645-6.5302727.7832032zm6.9677725 18.5097656c-1.1640615 0-2.1103506-.9462891-2.1103506-2.1103516v-14.7666016c.9764404-.3609619 1.8295279-.9714966 2.4667959-1.8095703l4.8882446-6.3837891h60.4991493c-.4294434.5109863-.6842651 1.1694336-.6842651 1.8808594v3.1191406h-62.729496c-.2763672 0-.4707031.2236328-.4707031.5s.2539063.5.5302734.5h62.6699257v5h-62.729496c-.2763672 0-.4707031.2236328-.4707031.5s.2539063.5.5302734.5h62.6699257v5h-62.729496c-.2763672 0-.4707031.2236328-.4707031.5s.2539063.5.5302734.5h62.6699257v5.140625c0 .7420654.2852783 1.4129028.7402344 1.9296875h-65.7998085zm108.7099647-1.9296875c0 1.0644531-.8652344 1.9296875-1.9296875 1.9296875-13.5566025 0-25.124649 0-38.8007813 0-1.0585938 0-1.9199219-.8652344-1.9199219-1.9296875v-21.2597656c0-.9187622.6448975-1.6999512 1.5529175-1.8808594 4.0048904-.004097-14.5079269.0148315 39.1677856-.0400391 1.0644531 0 1.9296875.8613281 1.9296875 1.9208984v21.2597657z"/><path d="m94.8951645 113.394043h-3.3808594c-.2763672 0-.5.2236328-.5.5s.2236328.5.5.5h3.3808594c.2763672 0 .5-.2236328.5-.5s-.2236328-.5-.5-.5z"/><path d="m117.1578598 113.394043h-3.3818359c-.2763672 0-.5.2236328-.5.5s.2236328.5.5.5h3.3818359c.2763672 0 .5-.2236328.5-.5s-.2236328-.5-.5-.5z"/><path d="m105.3150864 113.3901367h-.4794922v-2.4599609h1.7001953c.2763672 0 .5-.2236328.5-.5s-.2236328-.5-.5-.5h-1.7001953v-.4707031c0-.2763672-.2236328-.5-.5-.5s-.5.2236328-.5.5v.4707031h-.4804688c-1.2294922 0-2.2294922 1-2.2294922 2.2392578 0 .3311157.0703125.6384277.1980591.8978882.0013428.0032959.0020752.0067139.00354.0100098.0010986.0021973.0014038.0049438.0025024.0071411.3554688.7929688 1.1513672 1.3056641 2.0253906 1.3056641h.4804688v2.4599609h-1.7001953c-.2763672 0-.5.2236328-.5.5s.2236328.5.5.5h1.7001953v.4794922c0 .2763672.2236328.5.5.5s.5-.2236328.5-.5v-.4794922h.4794922c1.2294922 0 2.2304688-.9960938 2.2304688-2.2207031v-.0097656c0-1.2294923-1.0009765-2.2294923-2.2304687-2.2294923zm-1.4794922 0h-.4804688c-.2676392 0-.5162964-.0939941-.723938-.2492065.2306671-.3651962-.0526352-.7615356-.4157104-.7615356h-.0421753c-.0141602-.0742798-.0476685-.1351929-.0476685-.2197266 0-.6777344.5517578-1.2294922 1.2294922-1.2294922h.4804688zm1.4794922 3.459961h-.4794922v-2.4599609h.4794922c.6787109 0 1.2304688.5517578 1.2304688 1.2392578-.0000001.6728515-.5517579 1.2207031-1.2304688 1.2207031z"/><path d="m50.3277779 52.5942383c-.005188-.0032349-.0107422-.0057983-.0159302-.0090332-.0014648-.0007935-.0027466-.0016479-.0042114-.0024414-5.373291-3.302063-12.303833-3.2675781-17.6654053.0925293-1.7109375 1.0625-3.2001953 2.4160156-4.4238281 4.0205078-5.6415558 7.3752441-4.2433987 17.897728 3.1347656 23.5419922 6.4703598 4.9053726 15.0566406 4.3921814 20.828125-.3398438 6.5393906-5.312851 8.1325836-14.8763123 3.4853516-22.0791016-1.3740044-2.1352043-3.1949769-3.9011077-5.3388672-5.2246093zm-17.921875 27.171936c-.1446533-.1029663-.2872925-.2035522-.4462891-.3242798-6.9336891-5.3017578-8.2549191-15.2002335-2.9462891-22.1396484.9616699-1.260498 2.105896-2.3444824 3.3925781-3.25354v25.7174682zm13.3798828 2.3303833c-2.4735107.6929932-5.0834961.7683105-7.6005859.2263184v-10.3829346c0-.5351563.4355469-.9697266.9707031-.9697266h5.6699219c.5292969 0 .9599609.4345703.9599609.9697266zm5.7626953-2.9730224c-1.4281006 1.1711426-3.0323486 2.0487671-4.7626953 2.6494751v-9.8330688c0-1.0859375-.8789063-1.9697266-1.9599609-1.9697266h-5.6699219c-1.0869141 0-1.9707031.8837891-1.9707031 1.9697266v10.1248169c-1.3268433-.3858643-2.5931396-.9367676-3.7792969-1.6536865v-27.0224c4.7892799-2.8851357 10.8320503-3.02845 15.7598877-.3048096l-5.6730957 4.3972778c-.494873-.5508423-1.204895-.90448-2.0018311-.90448-1.4892578 0-2.7011719 1.2119141-2.7011719 2.7011719s1.2119141 2.7011719 2.7011719 2.7011719 2.7011719-1.2119141 2.7011719-2.7011719c0-.3300171-.0679321-.6427002-.1768188-.9353027l6.0752563-4.7089844c1.963398 1.2702293 3.5303955 2.8542404 4.7353516 4.7272949 4.4003295 6.8190766 2.8250923 15.8064652-3.2773438 20.7626954zm-8.3564453-19.8457032c0 .9384766-.7626953 1.7011719-1.7011719 1.7011719s-1.7011719-.7626953-1.7011719-1.7011719.7626953-1.7011719 1.7011719-1.7011719 1.7011719.7626954 1.7011719 1.7011719z"/><path d="m16.751606 104.1450195c.1679688-.2197266.1259766-.5332031-.09375-.7011719l-.5839844-.4462891c-.218749-.1679688-.5332022-.1259766-.7011709.09375s-.1259766.5332031.09375.7011719l.5839834.4462891c.2193318.1674424.5333443.1255875.7011719-.09375z"/></g></g></svg>