<svg id="Layer_1" height="512" viewBox="0 0 50 50" width="512" xmlns="http://www.w3.org/2000/svg"><g><g style="fill:none;stroke:#000;stroke-linecap:round;stroke-linejoin:round;stroke-miterlimit:10;stroke-width:1.5"><path d="m42.8 37.2v-30.6"/><path d="m31.1 45.3h6.8"/><path d="m18.6 1.7h-.1c-2.5 0-4.6 2.1-4.6 4.6v28.5"/><path d="m23.3 6.6h24.9c0-2.7-1.9-4.8-4.2-4.8h-25.4c2.6-.1 4.7 2.2 4.7 4.8z"/></g><g style="fill:none;stroke:#000;stroke-linecap:round;stroke-linejoin:round;stroke-miterlimit:10;stroke-width:1.5"><path d="m4.6 9.6h5.4v16.2h-5.4z"/><path d="m9.9 25.8v2.8c0 1.5-1.2 2.7-2.7 2.7-1.5 0-2.7-1.2-2.7-2.7v-2.8"/><path d="m4.6 9.6 2.6-5 2.7 5"/></g><g><g><g><g style="fill:none;stroke:#000;stroke-linecap:round;stroke-linejoin:round;stroke-miterlimit:10;stroke-width:1.5"><path d="m29.8 42h-.1"/><path d="m31.4 39.3h.9c.7 0 1.3.6 1.3 1.3s-.6 1.3-1.3 1.3h-.9c.7 0 1.3.6 1.3 1.3s-.6 1.3-1.3 1.3h-1.6c.7 0 1.3.6 1.3 1.3s-.6 1.3-1.3 1.3h-14.5v-10.4c3.5-.6 3.9-6 3.9-6 .2-.4.6-.7 1-.7.6 0 1.1.5 1.1 1.1 0 0 .5 3.4 0 5.6h10c.7 0 1.3.6 1.3 1.3 0 .4-.1.7-.4.9-.1.3-.4.4-.8.4z"/><path d="m1.8 35.3h12.6c.5 0 1 .4 1 1v11c0 .5-.4 1-1 1h-12.6"/></g></g><circle cx="11.2" cy="44.5" r="1.4" style="fill:none;stroke:#000;stroke-linecap:round;stroke-linejoin:round;stroke-miterlimit:10;stroke-width:1.5"/></g><g style="fill:none;stroke:#000;stroke-linecap:round;stroke-linejoin:round;stroke-miterlimit:10;stroke-width:1.5"><path d="m29.8 44.6h-2"/><path d="m31.4 42h-3.5"/><path d="m31.5 39.3h-3.1"/><g><circle cx="29.9" cy="26.7" r="7.3"/><circle cx="29.9" cy="26.7" r="4.4"/><path d="m28.4 33.8-1.5 2.9"/><path d="m22.7 36.7 2.4-4.6"/></g></g></g><g style="fill:none;stroke:#000;stroke-linecap:round;stroke-linejoin:round;stroke-miterlimit:10;stroke-width:1.5"><path d="m19 10v6.6"/><path d="m21.8 14.9v1.7"/><path d="m24.6 13v3.6"/><path d="m32.1 14.9v1.7"/><path d="m34.9 10v6.6"/><path d="m37.6 12v4.6"/></g><circle cx="42.9" cy="42.9" r="5.4" style="fill:none;stroke:#000;stroke-linecap:round;stroke-linejoin:round;stroke-miterlimit:10;stroke-width:1.5"/><g><g><g><g><g><g><path d="m42.9 40.9v-.9" style="fill:none;stroke:#000;stroke-linecap:round;stroke-linejoin:round;stroke-miterlimit:10;stroke-width:1.5"/></g><g><path d="m41.8 44.8h1.1.1c.5 0 .9-.4.9-1 0-.3-.1-.5-.3-.7s-.4-.3-.7-.3h-.3c-.5 0-.9-.4-.9-1 0-.3.1-.5.3-.7s.4-.3.7-.3h.2 1.1" style="fill:none;stroke:#000;stroke-linecap:round;stroke-linejoin:round;stroke-miterlimit:10;stroke-width:1.5"/><g><path d="m42.9 45.8v-1" style="fill:none;stroke:#000;stroke-linecap:round;stroke-linejoin:round;stroke-miterlimit:10;stroke-width:1.5"/></g></g></g></g></g></g></g></g></svg>