<?xml version="1.0" encoding="UTF-8" standalone="no"?>
<!-- Created with Inkscape (http://www.inkscape.org/) -->

<svg
   version="1.1"
   id="svg5811"
   xml:space="preserve"
   width="682.66669"
   height="682.66669"
   viewBox="0 0 682.66669 682.66669"
   xmlns="http://www.w3.org/2000/svg"
   xmlns:svg="http://www.w3.org/2000/svg"><defs
     id="defs5815"><clipPath
       clipPathUnits="userSpaceOnUse"
       id="clipPath5825"><path
         d="M 0,512 H 512 V 0 H 0 Z"
         id="path5823" /></clipPath></defs><g
     id="g5817"
     transform="matrix(1.3333333,0,0,-1.3333333,0,682.66667)"><g
       id="g5819"><g
         id="g5821"
         clip-path="url(#clipPath5825)"><g
           id="g5827"
           transform="translate(174.9336,444.7959)"><path
             d="m 0,0 c 55.871,-55.871 45.904,-156.423 45.904,-156.423 0,0 -100.551,-9.967 -156.423,45.904 -55.871,55.872 -67.89,134.438 -45.904,156.424 C -134.437,67.891 -55.871,55.872 0,0 Z"
             style="fill:none;stroke:#000000;stroke-width:15;stroke-linecap:round;stroke-linejoin:round;stroke-miterlimit:10;stroke-dasharray:none;stroke-opacity:1"
             id="path5829" /></g><g
           id="g5831"
           transform="translate(18.5107,490.7012)"><path
             d="M 0,0 202.327,-202.328"
             style="fill:none;stroke:#000000;stroke-width:15;stroke-linecap:round;stroke-linejoin:round;stroke-miterlimit:10;stroke-dasharray:none;stroke-opacity:1"
             id="path5833" /></g><g
           id="g5835"
           transform="translate(58.3564,340.6113)"><path
             d="m 0,0 110.245,-0.006 0.006,110.245"
             style="fill:none;stroke:#000000;stroke-width:15;stroke-linecap:round;stroke-linejoin:round;stroke-miterlimit:10;stroke-dasharray:none;stroke-opacity:1"
             id="path5837" /></g><g
           id="g5839"
           transform="translate(19.4688,402.7041)"><path
             d="m 0,0 h 87.033 l 0.006,50.949"
             style="fill:none;stroke:#000000;stroke-width:15;stroke-linecap:round;stroke-linejoin:round;stroke-miterlimit:10;stroke-dasharray:none;stroke-opacity:1"
             id="path5841" /></g><g
           id="g5843"
           transform="translate(349.2461,154.2686)"><path
             d="m 0,0 c -52.013,-52.012 -42.734,-145.618 -42.734,-145.618 0,0 93.606,-9.278 145.619,42.733 52.011,52.012 63.201,125.152 42.733,145.618 C 125.15,63.201 52.012,52.012 0,0 Z"
             style="fill:none;stroke:#000000;stroke-width:15;stroke-linecap:round;stroke-linejoin:round;stroke-miterlimit:10;stroke-dasharray:none;stroke-opacity:1"
             id="path5845" /></g><g
           id="g5847"
           transform="translate(494.8643,197.002)"><path
             d="M 0,0 -188.353,-188.352"
             style="fill:none;stroke:#000000;stroke-width:15;stroke-linecap:round;stroke-linejoin:round;stroke-miterlimit:10;stroke-dasharray:none;stroke-opacity:1"
             id="path5849" /></g><g
           id="g5851"
           transform="translate(355.1348,159.9043)"><path
             d="m 0,0 0.006,-102.63 102.63,0.005"
             style="fill:none;stroke:#000000;stroke-width:15;stroke-linecap:round;stroke-linejoin:round;stroke-miterlimit:10;stroke-dasharray:none;stroke-opacity:1"
             id="path5853" /></g><g
           id="g5855"
           transform="translate(412.9453,196.1113)"><path
             d="M 0,0 0.005,-81.027 H 81.023"
             style="fill:none;stroke:#000000;stroke-width:15;stroke-linecap:round;stroke-linejoin:round;stroke-miterlimit:10;stroke-dasharray:none;stroke-opacity:1"
             id="path5857" /></g><g
           id="g5859"
           transform="translate(137.9424,100.9883)"><path
             d="m 0,0 c 45.382,-7.959 73.807,13.175 86.417,26.013 4.361,4.438 2.56,11.871 -3.347,13.829 -24.13,7.999 -48.607,1.071 -48.607,1.071 9.466,9.625 16.144,28.039 19.878,40.759 1.854,6.32 -3.984,12.207 -10.312,10.38 -11.49,-3.318 -27.945,-9.515 -40.58,-20.126 0,0 6.929,24.477 -1.07,48.608 -1.958,5.906 -9.391,7.707 -13.83,3.347 C -24.288,111.27 -45.423,82.846 -37.463,37.463 L -124.327,-49.4 c -8.154,-8.156 -8.154,-21.376 0,-29.532 l 7.932,-7.931 c 8.155,-8.156 21.376,-8.156 29.532,0 l 62.053,62.053"
             style="fill:none;stroke:#000000;stroke-width:15;stroke-linecap:round;stroke-linejoin:round;stroke-miterlimit:10;stroke-dasharray:none;stroke-opacity:1"
             id="path5861" /></g><g
           id="g5863"
           transform="translate(142.8994,211.2363)"><path
             d="M 0,0 8.74,8.74 C 21.63,21.63 40,27.4 57.94,24.19 L 77.48,20.7 C 83.11,19.69 87.521,15.28 88.53,9.65 L 92.021,-9.88 C 95.23,-27.83 89.46,-46.2 76.57,-59.09 l -8.74,-8.74"
             style="fill:none;stroke:#000000;stroke-width:15;stroke-linecap:round;stroke-linejoin:round;stroke-miterlimit:10;stroke-dasharray:none;stroke-opacity:1"
             id="path5865" /></g><g
           id="g5867"
           transform="translate(404.9697,320.5166)"><path
             d="m 0,0 c 4.02,-11.44 6.97,-22.85 6.97,-31.72 0,-20.41 -15.59,-47.84 -23.991,-61.13 -2.689,-4.26 -7.719,-4.26 -10.419,0 -8.39,13.29 -23.99,40.72 -23.99,61.13 0,8.87 2.95,20.28 6.97,31.72"
             style="fill:none;stroke:#000000;stroke-width:15;stroke-linecap:round;stroke-linejoin:round;stroke-miterlimit:10;stroke-dasharray:none;stroke-opacity:1"
             id="path5869" /></g><g
           id="g5871"
           transform="translate(382.7393,224.4668)"><path
             d="M 0,0 V 97.56"
             style="fill:none;stroke:#000000;stroke-width:15;stroke-linecap:round;stroke-linejoin:round;stroke-miterlimit:10;stroke-dasharray:none;stroke-opacity:1"
             id="path5873" /></g><g
           id="g5875"
           transform="translate(336.9395,362.1963)"><path
             d="m 0,0 c -13.05,-2.26 -25.76,-5.56 -34.13,-10.39 -17.67,-10.21 -33.63,-37.429 -40.939,-51.349 -2.351,-4.461 0.17,-8.821 5.21,-9.021 15.699,-0.63 47.259,-0.42 64.939,9.79 7.95,4.59 16.68,13.27 24.8,22.861"
             style="fill:none;stroke:#000000;stroke-width:15;stroke-linecap:round;stroke-linejoin:round;stroke-miterlimit:10;stroke-dasharray:none;stroke-opacity:1"
             id="path5877" /></g><g
           id="g5879"
           transform="translate(341.1699,340.2266)"><path
             d="M 0,0 -79.471,-45.88"
             style="fill:none;stroke:#000000;stroke-width:15;stroke-linecap:round;stroke-linejoin:round;stroke-miterlimit:10;stroke-dasharray:none;stroke-opacity:1"
             id="path5881" /></g><g
           id="g5883"
           transform="translate(337.7393,366.127)"><path
             d="m 0,0 c -13.33,2.26 -26.39,5.6 -34.93,10.529 -17.67,10.2 -33.63,37.431 -40.939,51.34 -2.351,4.471 0.17,8.83 5.21,9.03 15.699,0.621 47.26,0.42 64.939,-9.79 7.37,-4.25 15.401,-12.019 23,-20.759"
             style="fill:none;stroke:#000000;stroke-width:15;stroke-linecap:round;stroke-linejoin:round;stroke-miterlimit:10;stroke-dasharray:none;stroke-opacity:1"
             id="path5885" /></g><g
           id="g5887"
           transform="translate(337.2295,390.4961)"><path
             d="M 0,0 -75.53,43.61"
             style="fill:none;stroke:#000000;stroke-width:15;stroke-linecap:round;stroke-linejoin:round;stroke-miterlimit:10;stroke-dasharray:none;stroke-opacity:1"
             id="path5889" /></g><g
           id="g5891"
           transform="translate(359.0195,412.3262)"><path
             d="m 0,0 c -3.24,9.931 -5.479,19.601 -5.479,27.341 0,20.409 15.599,47.84 23.989,61.13 2.7,4.259 7.73,4.259 10.42,0 8.4,-13.29 23.99,-40.721 23.99,-61.13 0,-7.74 -2.24,-17.401 -5.48,-27.33"
             style="fill:none;stroke:#000000;stroke-width:15;stroke-linecap:round;stroke-linejoin:round;stroke-miterlimit:10;stroke-dasharray:none;stroke-opacity:1"
             id="path5893" /></g><g
           id="g5895"
           transform="translate(382.7393,411.957)"><path
             d="M 0,0 V 92.029"
             style="fill:none;stroke:#000000;stroke-width:15;stroke-linecap:round;stroke-linejoin:round;stroke-miterlimit:10;stroke-dasharray:none;stroke-opacity:1"
             id="path5897" /></g><g
           id="g5899"
           transform="translate(410.46,406.4668)"><path
             d="M 0,0 C 7.6,8.75 15.64,16.52 23.01,20.77 40.68,30.979 72.239,31.18 87.949,30.56 92.979,30.359 95.5,26 93.149,21.529 85.84,7.62 69.89,-19.601 52.21,-29.811 43.67,-34.74 30.609,-38.08 17.279,-40.34"
             style="fill:none;stroke:#000000;stroke-width:15;stroke-linecap:round;stroke-linejoin:round;stroke-miterlimit:10;stroke-dasharray:none;stroke-opacity:1"
             id="path5901" /></g><g
           id="g5903"
           transform="translate(503.7793,434.1064)"><path
             d="M 0,0 -75.52,-43.6"
             style="fill:none;stroke:#000000;stroke-width:15;stroke-linecap:round;stroke-linejoin:round;stroke-miterlimit:10;stroke-dasharray:none;stroke-opacity:1"
             id="path5905" /></g><g
           id="g5907"
           transform="translate(428.54,362.1963)"><path
             d="M 0,0 C 13.05,-2.26 25.76,-5.56 34.13,-10.39 51.81,-20.6 67.77,-47.819 75.08,-61.739 77.42,-66.2 74.899,-70.56 69.869,-70.76 54.159,-71.39 22.6,-71.18 4.93,-60.97 c -7.951,4.59 -16.67,13.27 -24.8,22.85"
             style="fill:none;stroke:#000000;stroke-width:15;stroke-linecap:round;stroke-linejoin:round;stroke-miterlimit:10;stroke-dasharray:none;stroke-opacity:1"
             id="path5909" /></g><g
           id="g5911"
           transform="translate(503.7793,294.3467)"><path
             d="M 0,0 -79.47,45.88"
             style="fill:none;stroke:#000000;stroke-width:15;stroke-linecap:round;stroke-linejoin:round;stroke-miterlimit:10;stroke-dasharray:none;stroke-opacity:1"
             id="path5913" /></g><g
           id="g5915"
           transform="translate(389.917,413.9023)"><path
             d="m 0,0 v 0 c 8.123,4.752 18.538,0.437 20.922,-8.667 1.301,-4.967 5.181,-8.847 10.147,-10.147 9.105,-2.384 13.419,-12.799 8.667,-20.922 -2.593,-4.433 -2.593,-9.919 0,-14.351 4.752,-8.124 0.438,-18.539 -8.667,-20.923 -4.966,-1.3 -8.846,-5.179 -10.147,-10.147 C 18.538,-94.262 8.123,-98.575 0,-93.823 c -4.433,2.593 -9.919,2.593 -14.351,0 -8.124,-4.752 -18.539,-0.439 -20.922,8.666 -1.3,4.968 -5.18,8.847 -10.148,10.147 -9.104,2.384 -13.418,12.799 -8.666,20.923 2.593,4.432 2.593,9.918 0,14.351 -4.752,8.123 -0.438,18.538 8.666,20.922 4.968,1.3 8.848,5.18 10.148,10.147 C -32.89,0.437 -22.475,4.752 -14.351,0 -9.919,-2.594 -4.433,-2.594 0,0 Z"
             style="fill:none;stroke:#000000;stroke-width:15;stroke-linecap:round;stroke-linejoin:round;stroke-miterlimit:10;stroke-dasharray:none;stroke-opacity:1"
             id="path5917" /></g><g
           id="g5919"
           transform="translate(228.3066,49.7881)"><path
             d="m 0,0 c 0,-4.135 3.352,-7.486 7.485,-7.486 4.135,0 7.487,3.351 7.487,7.486 0,4.135 -3.352,7.486 -7.487,7.486 C 3.352,7.486 0,4.135 0,0"
             style="fill:#000000;fill-opacity:1;fill-rule:nonzero;stroke:none"
             id="path5921" /></g><g
           id="g5923"
           transform="translate(257.9736,87.5918)"><path
             d="m 0,0 c 0,-4.135 3.352,-7.486 7.486,-7.486 4.134,0 7.486,3.351 7.486,7.486 0,4.135 -3.352,7.486 -7.486,7.486 C 3.352,7.486 0,4.135 0,0"
             style="fill:#000000;fill-opacity:1;fill-rule:nonzero;stroke:none"
             id="path5925" /></g><g
           id="g5927"
           transform="translate(298.3848,227.2832)"><path
             d="m 0,0 c 0,-4.134 3.352,-7.485 7.485,-7.485 4.135,0 7.487,3.351 7.487,7.485 0,4.135 -3.352,7.486 -7.487,7.486 C 3.352,7.486 0,4.135 0,0"
             style="fill:#000000;fill-opacity:1;fill-rule:nonzero;stroke:none"
             id="path5929" /></g><g
           id="g5931"
           transform="translate(390.5859,358.959)"><path
             d="M 0,0 -15.692,15.691"
             style="fill:none;stroke:#000000;stroke-width:15;stroke-linecap:round;stroke-linejoin:round;stroke-miterlimit:10;stroke-dasharray:none;stroke-opacity:1"
             id="path5933" /></g><g
           id="g5935"
           transform="translate(390.5859,374.6504)"><path
             d="M 0,0 -15.692,-15.691"
             style="fill:none;stroke:#000000;stroke-width:15;stroke-linecap:round;stroke-linejoin:round;stroke-miterlimit:10;stroke-dasharray:none;stroke-opacity:1"
             id="path5937" /></g><g
           id="g5939"
           transform="translate(62.7305,238.4434)"><path
             d="m 0,0 c 0,-4.14 3.356,-7.496 7.496,-7.496 4.14,0 7.496,3.356 7.496,7.496 0,4.14 -3.356,7.496 -7.496,7.496 C 3.356,7.496 0,4.14 0,0"
             style="fill:#000000;fill-opacity:1;fill-rule:nonzero;stroke:none"
             id="path5941" /></g></g></g></g></svg>
