<svg id="Layer_1" enable-background="new 0 0 68 68" height="512" viewBox="0 0 68 68" width="512" xmlns="http://www.w3.org/2000/svg"><g><path d="m23.8599854 26.3498535h-4.8399658l1.2299804 4.6899414c.0500488.1699219-.0900879.340332-.2700195.3300781l-1.8599854-.0297852c-.1700439 0-.3000488.159668-.2700195.3300781l.4899902 2.4697266c.0599365.3100586-.3699951.4599609-.5100098.1699219l-2.3099365-4.5400391c-.1000977-.1699219.0300293-.3896484.2399902-.3896484h1.7399903c.1699219 0 .3000488-.1503906.2700195-.3203125l-.4500732-2.7099609h-4.5098877c-.2700195 0-.4801025.2299805-.4801025.4902344v5.2197266c0 2.9501953 2.2399902 5.3901367 5.1199951 5.6699219v5.8203125h-1.1300049c-.4000244 0-.7199707.3300781-.7199707.7299805 0 .409668.3199463.7299805.7199707.7299805h4.3299561c.4001465 0 .7301025-.3203125.7301025-.7299805 0-.3999023-.3299561-.7299805-.7301025-.7299805h-1.1298828v-5.8500977c2.7299805-.4301758 4.8299561-2.7900391 4.8299561-5.6401367v-5.2197266c-.0000001-.2602539-.2199708-.4902344-.4899903-.4902344z"/><path d="m60.5100098 22.6999512h-3.0800781v-16.5600586c0-2.2802734-1.8499756-4.1298828-4.119873-4.1298828-13.2451706 0-30.2934437 0-47.1501465 0-2.2799072 0-4.1298828 1.8496094-4.1298828 4.1298828v42.4697266c0 2.2705078 1.8499756 4.1201172 4.1298828 4.1201172h24.9799805v7.800293c0 3.0097656 2.4500732 5.4599609 5.460083 5.4599609h23.9100342c3.0100098 0 5.4599609-2.4501953 5.4599609-5.4599609v-32.3701173c-.0000001-3.0102539-2.4499513-5.4599609-5.459961-5.4599609zm3.4599609 37.8300781c0 1.909668-1.5500488 3.4599609-3.4599609 3.4599609h-23.9100342c-1.9000244 0-3.460083-1.550293-3.460083-3.4599609 0-9.9133835 0-21.0408936 0-32.3701172 0-1.9101563 1.5600586-3.4599609 3.460083-3.4599609.6809731 0 25.3156433 0 23.9100342 0 1.9099121 0 3.4599609 1.5498047 3.4599609 3.4599609zm-32.8300781-13.3999023h-23.5v-39.510254h13.2900391v8.0400391c0 .8102551.8929329 1.2531815 1.5400391.8500977l2.0999756-1.3300781 2.0999756 1.3300781c.3300781.199707.7399902.199707 1.0700684 0l2.0999756-1.3300781 2.1099854 1.3300781c.3300781.199707.7399902.199707 1.0700684 0l2.0999756-1.3300781 2.1099854 1.3300781c.6727905.4121494 1.5400391-.0612373 1.5400391-.8500977v-8.0400391h13.0599365v15.0800781h-15.2299808c-3.0100098 0-5.460083 2.449707-5.460083 5.4599609z"/><path d="m42.9899902 37.3098145h-5.0900879c-.4599609 0-.8299561.3701172-.8299561.8203125v4.4697266c0 .4501953.3699951.8203125.8299561.8203125h5.0900879c.4599609 0 .8299561-.3701172.8299561-.8203125v-4.4697266c0-.4501954-.3699951-.8203125-.8299561-.8203125zm-2.9899902 2.8798828c.1000099-.0990257 1.140049-1.1288109 1.0400391-1.0297852.25-.25.6599121-.25.9199219 0 .25.25.25.6601563 0 .9199219l-1.5 1.4902344c-.2542725.2540321-.6655693.2543526-.9199219 0l-.75-.7402344c-.25-.2597656-.25-.6699219 0-.9199219.2600098-.2602539.6699219-.2602539.9199219 0 .1001243.0965843.3901634.3763695.290039.2797852z"/><path d="m42.9899902 46.0598145h-5.0900879c-.4599609 0-.8299561.3701172-.8299561.8300781 0 .3044319 0 4.6313057 0 4.4599609 0 .4782295.3867722.8300781.8299561.8300781h5.0900879c.4752731 0 .8299561-.3953476.8299561-.8300781 0-1.4877281 0-2.9761658 0-4.4599609 0-.459961-.3699951-.8300781-.8299561-.8300781zm-1.0300293 2.7700195-1.5 1.5c-.2739143.2530823-.6459007.253418-.9199219 0l-.75-.75c-.2690163-.2690163-.2377281-.6826401 0-.9199219.2600098-.25.6699219-.25.9199219 0 .1000481.1000481.3900872.3900871.2900391.2900391.1751976-.1751976 1.141346-1.1413345 1.0400391-1.0400391.25-.25.6599121-.25.9199219 0 .2341117.2332955.2611617.6587601-.0000001.9199219z"/><path d="m42.9899902 54.8098145h-5.0900879c-.4599609 0-.8299561.3798828-.8299561.8300781v4.4599609c0 .4599609.3699951.8300781.8299561.8300781h5.0900879c.4599609 0 .8299561-.3701172.8299561-.8300781v-4.4599609c0-.4501953-.3699951-.8300781-.8299561-.8300781zm-2.9899902 2.8901367c.1000099-.0990257 1.140049-1.1288109 1.0400391-1.0297852.25-.2602539.6599121-.2602539.9199219 0 .25.25.25.659668 0 .9199219l-1.5 1.4897461c-.2542725.2540321-.6655693.2543526-.9199219 0l-.75-.75c-.25-.25-.25-.659668 0-.9199219.2600098-.25.6699219-.25.9199219 0 .100048.1000481.3900871.3900871.290039.2900391z"/><path d="m49.5600586 43.0100098c.1609879 0 5.7125473 0 5.6098633 0 .5270538 0 1-.4186707 1-1 0-.567524-.4667664-1-1-1-.5249557 0-5.8309402 0-5.6098633 0-.5600586 0-1 .449707-1 1 0 .5600586.4399414 1 1 1z"/><path d="m59.2099609 37.3898926c-.1688805 0-10.1306801 0-9.6499023 0-.5600586 0-1 .4501953-1 1s.4399414 1 1 1c.6900101 0 10.2601852 0 9.6499023 0 .5500488 0 1-.4501953 1-1s-.4499511-1-1-1z"/><path d="m49.5600586 51.6896973c2.0602798 0 5.788414 0 5.6098633 0 .5500488 0 1-.449707 1-1 0-.5544243-.4516335-1-1-1-.183876 0-5.710556 0-5.6098633 0-.6580544 0-.9932213.4955864-.9985085.9933624-.0053329.5022011.3251076 1.0066376.9985085 1.0066376z"/><path d="m59.2099609 46.0700684c-.430397 0-9.7579842 0-9.6499023 0-.6463928 0-.973732.4673882-.9915543.9502754-.019043.5160141.3153534 1.0497246.9915543 1.0497246.2365189 0 9.8013306 0 9.6499023 0 .5500488 0 1-.4501953 1-1 0-.5600586-.4499511-1-1-1z"/><path d="m55.1699219 58.6896973h-5.6098633c-.5600586 0-1 .4404297-1 1 0 .550293.4399414 1 1 1h5.6098633c.5500488 0 1-.449707 1-1 0-.5595703-.4499512-1-1-1z"/><path d="m59.2099609 55.0598145h-9.6499023c-.5600586 0-1 .4501953-1 1s.4399414 1 1 1h9.6499023c.5500488 0 1-.4501953 1-1s-.4499511-1-1-1z"/><path d="m40.3399658 32.4899902c.5659142 1.2651749.5395355 1.4891663.8099365 1.6699219.2098465.1463814.5382652.1419106.75-.0698242.1853333-.1857452.1987839-.4830055.1000977-.6601563l-2.4599609-5.8100586c-.0600586-.1401367-.1401367-.25-.2600098-.3398438-.1201172-.1000977-.2600098-.1401367-.4300537-.1401367h-.0999756c-.1700439 0-.3100586.0400391-.4300537.1401367-.1099854.0898438-.1999512.199707-.2598877.3398438l-2.460083 5.8100586c-.039917.0898438-.0599365.1796875-.0599365.25 0 .1601563.0499268.2998047.1599121.4101563.1800537.1899414.5100098.2299805.75.0698242.1000977-.0600586.1700439-.1499023.2199707-.2602539l.5900879-1.409668zm-.4599609-1.1000976h-2.1600342l1.0800781-2.5898438z"/><path d="m46.8199463 29.119873c-.1199951.1098633-.1800537.25-.1800537.4101563v2.8398438c-.1999512.25-.4199219.4501953-.6499023.6000977s-.4899903.2299804-.7800294.2299804c-.6199951 0-.9099121-.3300781-.9099121-1.0297852v-2.6401367c0-.1601563-.0600586-.300293-.1700439-.4101563-.2200928-.2299805-.5999756-.2299805-.8299561 0-.1201172.1098633-.1800537.25-.1800537.4101563v2.7397461c0 .3701172.0799561.7099609.2299805 1.0200195s.3699951.5600586.6500244.75c.2800293.1801758.6199951.2700195 1 .2700195.4099121 0 .7700195-.0898438 1.0799561-.2597656.1900635-.1103516.3800049-.25.5599365-.4101563v.0302734c0 .159668.0600586.2998047.1800537.4199219.2301025.2299805.6099854.2299805.8299561 0 .1101074-.1201172.1700439-.2602539.1700439-.4199219v-4.1401367c0-.1601563-.0599365-.300293-.1700439-.4101563-.2199708-.2299803-.5998536-.2299803-.8299561.0000001z"/><path d="m50.3199463 33.9899902c.3800049.2099609.7800293.3198242 1.210083.3198242.0999756 0 .1999512-.0097656.2999268-.0200195.3599854-.0400391.7000732-.1699219 1-.3901367.0699463-.0400391.1400146-.0898438.2000732-.1396484.0200195.1298828.0799561.2397461.1699219.3300781.1700439.1699219.4200439.2099609.6300049.1298828.0699463-.0302734.1400146-.0703125.2000732-.1298828.119873-.1103516.1699219-.25.1699219-.4101563v-6.2597656c0-.1601563-.0500488-.300293-.1599121-.4204102-.0600586-.0600586-.130127-.1098633-.210083-.1298828-.2099609-.0800781-.4599609-.0400391-.6300049.1201172-.1199951.1196289-.1699219.2597656-.1699219.4301758v2.0195313c-.0600586-.0498047-.130127-.0996094-.2000732-.1396484-.2999268-.2099609-.6400146-.340332-1-.3798828-.0999756-.0102539-.1999512-.0205078-.2999268-.0205078-.4300537 0-.8300781.1103516-1.210083.3203125-.3800049.2197266-.6899414.5400391-.9200439.9501953-.2399902.409668-.3598633.8896484-.3598633 1.4296875 0 .5498047.119873 1.0302734.3598633 1.4399414.2301025.4101562.540039.7299804.9200439.9501952zm-.0999756-2.3901367c0-.5097656.1300049-.8999023.3900146-1.1699219.2700195-.2802734.6099854-.4101563 1.039917-.4101563.0600586 0 .1201172 0 .1800537.0102539.210083.0200195.4000244.0795898.5899658.1699219.1401367.0800781.2800293.1699219.4100342.2797852.0699463.050293.1400146.1103516.2000732.1699219v1.9101563c-.0600586.0600586-.130127.1201172-.2000732.1699219-.1300049.1103516-.2698975.2001953-.4100342.2802734-.1899414.0898438-.3798828.1499023-.5899658.1699219-.0599365.0097656-.1199951.0097656-.1800537.0097656-.4399414 0-.7698975-.1298828-1.039917-.409668-.2600097-.2700195-.3900146-.6601563-.3900146-1.1801758z"/><path d="m56.4299316 28.9597168c-.1899414-.0297852-.3898926.0102539-.5400391.1601563-.1098633.1201172-.1599121.2602539-.1599121.4199219v4.1401367c0 .1601563.0500488.2998047.1599121.4101563.1201172.1098633.2600098.1699219.420166.1699219.039917 0 .079834 0 .119873-.0102539.1101074-.0200195.2099609-.0698242.3000488-.159668.1099854-.1103516.1699219-.25.1699219-.4101563v-4.1401367c0-.1699219-.0499268-.3100586-.1699219-.4199219-.080078-.0800782-.1899412-.1298829-.3000487-.1601563z"/><path d="m56.2900391 28.2897949h.0599365c.0300293 0 .0499268 0 .0799561-.0097656.1400146-.0102539.2700195-.0703125.3701172-.1704102.1298828-.1298828.1899414-.2797852.1899414-.4599609v-.0400391c0-.1699219-.0600586-.3198242-.1899414-.449707-.1000977-.1000977-.2301025-.1699219-.3701172-.1801758-.0300293-.0097656-.0499268-.0097656-.0799561-.0097656h-.0599365c-.1800537 0-.3300781.0698242-.4500732.1899414-.1300049.1298828-.1900635.2797852-.1900635.449707v.0400391c0 .1801758.0600586.3300781.1900635.4599609.119995.1201172.2700195.1801758.4500732.1801758z"/><path d="m60.9499512 33.1496582c-.0600586 0-.1099854.0102539-.1499023.0102539l-.0900879.0297852c-.2700195.0800781-.5500488.0600586-.7199707-.0297852-.0600586-.0400391-.1000977-.1601563-.1000977-.3500977v-2.7597656h.9400635c.1500244 0 .2800293-.050293.3800049-.1601563.1000977-.1000977.1500244-.2197266.1500244-.3701172 0-.1499023-.0499268-.2700195-.1500244-.3701172-.0999756-.0996094-.2299805-.1499023-.3800049-.1499023h-.9400635v-.6196288c0-.090332-.0299072-.1801758-.0898438-.2402344-.130127-.1401367-.3400879-.1499023-.5100098.0200195l-1.3000488 1.2700195c-.1199951.1000977-.1400146.2099609-.1400146.2900391 0 .0898438.0300293.1699219.0899658.2299805.0700684.0600586.1500244.1000977.2399902.1000977h.5300293v2.8398438c0 .6499023.2700195 1.4199219 1.5600586 1.4199219.2999268 0 .5899658-.0600586.869873-.1899414.25-.1298828.3000488-.3300781.3000488-.4702148 0-.1396484-.0500488-.2597656-.1499023-.3598633-.1000976-.0898439-.2100829-.1401369-.3400878-.1401369z"/></g></svg>