<svg id="Layer_1" enable-background="new 0 0 512 512" viewBox="0 0 512 512" xmlns="http://www.w3.org/2000/svg"><path d="m295.99 177.53c-4.42 0-7.99-3.6-7.99-7.99 0-4.42 3.57-8.02 7.99-8.02h55.62c4.42 0 7.99 3.6 7.99 8.02 0 4.39-3.57 7.99-7.99 7.99zm0 70.02c-4.42 0-7.99-3.57-7.99-7.99s3.57-7.99 7.99-7.99h55.62c4.42 0 7.99 3.57 7.99 7.99s-3.57 7.99-7.99 7.99zm0-35.01c-4.42 0-7.99-3.57-7.99-7.99s3.57-7.99 7.99-7.99h55.62c4.42 0 7.99 3.57 7.99 7.99s-3.57 7.99-7.99 7.99zm-113.45 87.68h110.61v-7.2c0-4.42 3.6-8.02 8.02-8.02h50.43c4.42 0 7.99 3.6 7.99 8.02v30.42c0 4.42-3.57 8.02-7.99 8.02h-17.23v17.66h17.23c4.42 0 7.99 3.57 7.99 7.99v30.44c0 4.42-3.57 7.99-7.99 7.99h-17.23v17.66h17.23c4.42 0 7.99 3.6 7.99 7.99v30.44c0 4.42-3.57 8.02-7.99 8.02h-50.43c-4.42 0-8.02-3.6-8.02-8.02v-7.2h-87.36c-4.42 0-7.99-3.6-7.99-8.02v-40.88h-17.23c-4.42 0-7.99-3.57-7.99-7.99v-30.44c0-4.42 3.57-7.99 7.99-7.99h50.46c4.39 0 7.99 3.57 7.99 7.99v7.23h54.14v-7.23c0-4.42 3.6-7.99 8.02-7.99h17.21v-17.66h-17.21c-4.42 0-8.02-3.6-8.02-8.02v-7.2h-110.62v7.2c0 4.42-3.57 8.02-7.99 8.02h-50.43c-4.42 0-8.02-3.6-8.02-8.02v-30.42c0-4.42 3.6-8.02 8.02-8.02h50.43c4.42 0 7.99 3.6 7.99 8.02zm110.61 80.1h-54.14v7.23c0 4.42-3.6 7.99-7.99 7.99h-17.23v32.88h79.37v-7.23c0-4.39 3.6-7.99 8.02-7.99h17.21v-17.66h-17.21c-4.42 0-8.02-3.57-8.02-7.99v-7.23zm50.46 48.9h-34.44v14.43h34.44zm-120.62-64.12h-34.41v14.46h34.41zm120.62 0h-34.44v14.46h34.44zm0-64.09h-34.44v14.43h34.44zm-177.05 0h-34.44v14.43h34.44zm-43.26-148.93c-4.03-1.76-5.84-6.46-4.05-10.49s6.46-5.84 10.49-4.05l37.25 16.55 31.41-28.63c-8.14-1.84-8.28-13.55-.11-15.51l25.46-6.18c6.01-1.47 11.25 4.17 9.52 9.98v.03l-6.8 23.02c-2.44 8.22-14.34 7.28-15.56-1.11l-36.99 33.68c-2.27 2.04-5.61 2.69-8.59 1.39zm97.65 99.61v-69.31h-15.48v69.31zm0-85.3v-8.11c0-4.42 3.6-7.99 7.99-7.99h31.49c4.39 0 7.99 3.57 7.99 7.99v93.43c4 .45 7.14 3.83 7.14 7.97 0 4.42-3.6 7.99-8.02 7.99h-158.2c-4.42 0-7.99-3.57-7.99-7.99v-91.33c0-4.39 3.57-7.99 7.99-7.99s8.02 3.6 8.02 7.99v83.34h9.18v-58.42c0-4.42 3.57-8.02 7.99-8.02h31.46c4.42 0 7.99 3.6 7.99 8.02v6.24h15.48v-25.11c0-4.42 3.57-7.99 7.99-7.99h23.5zm31.47 85.3v-85.38h-15.45v85.38zm-62.93 0v-36.2h-15.48v36.2zm-31.47 0v-50.43h-15.48v50.43zm-94.33 178.47c-1.96-1.47-3.23-3.83-3.2-6.46v-347.65c0-4.42 3.57-7.99 7.99-7.99h37.33v-31.66c0-4.42 3.57-7.99 7.99-7.99h319.41c4.42 0 8.02 3.57 8.02 7.99v410.34c0 4.42-3.6 7.99-8.02 7.99h-37.33v31.66c0 4.42-3.57 7.99-7.99 7.99h-249.34c-2.49 0-4.17-.94-5.84-2.52zm12.78-14.43h62.08c4.42 0 7.99 3.57 7.99 7.99v54.68h233.35v-394.35h-303.42zm54.09 52.81v-36.82h-41.19zm-8.76-400.48h266.09c4.42 0 7.99 3.57 7.99 7.99v362.69h29.34v-394.35h-303.42z"/></svg>