<svg enable-background="new 0 0 512 512" viewBox="0 0 512 512" xmlns="http://www.w3.org/2000/svg"><g id="_x30_7_Sugar"><g><path d="m46.767 420.878c-1.453 0-2.891-.644-3.858-1.877-11.056-14.086-14.957-32.14-10.699-49.531l16.905-69.103c.641-2.633 3.293-4.241 5.926-3.595 2.628.641 4.239 3.296 3.595 5.926l-16.905 69.103c-3.535 14.447-.294 29.445 8.889 41.149 1.671 2.128 1.3 5.211-.831 6.881-.897.705-1.962 1.047-3.022 1.047z"/><path d="m295.61 82.948c-1 0-2.011-.306-2.882-.941l-43.933-32.018c-2.188-1.594-2.669-4.66-1.075-6.848s4.658-2.671 6.848-1.075l43.933 32.018c2.188 1.594 2.669 4.66 1.075 6.848-.959 1.317-2.45 2.016-3.966 2.016z"/><path d="m222.515 249.086c-47.506 0-86.157 27.226-86.157 60.69s38.65 60.687 86.157 60.687 86.157-27.224 86.157-60.687-38.651-60.69-86.157-60.69zm0 111.574c-42.102 0-76.353-22.827-76.353-50.884 0-28.059 34.251-50.886 76.353-50.886s76.353 22.827 76.353 50.886c0 28.057-34.251 50.884-76.353 50.884z"/><path d="m503.528 395.753-52.092-29.78v-65.383c0-.01-.004-.019-.004-.029 0-.011.004-.022.004-.033-.019-1.556-.99-3.347-2.47-4.193l-33.491-19.145-27.768-113.511h2.91c10.29 0 18.662-8.372 18.662-18.662v-28.698c0-10.29-8.373-18.662-18.662-18.662h-18.158l-103.452-75.397c-13.964-10.177-30.481-15.558-47.765-15.558-17.281 0-33.799 5.381-47.763 15.558l-103.454 75.396h-18.158c-10.29 0-18.662 8.372-18.662 18.662v28.698c0 10.29 8.373 18.662 18.662 18.662h5.455l-48.919 199.969c-12.698 51.901 26.566 102.028 80.075 102.028h189.468c.1.49-.557 3.446 2.329 5.225l54.562 33.641c1.283.937 2.987.854 4.242.397 1.359-.498-3.856 2.431 52.891-32.451l51.989 32.055c.031.019.067.025.098.043.492.092 2.273 1.517 4.864.065.492-.276 54.256-33.348 54.747-33.749 1.448-.893 2.329-2.47 2.329-4.172v-66.719c0-.01-.004-.019-.004-.029 0-.011.004-.022.004-.033-.021-1.799-1.106-3.416-2.469-4.195zm-324.276-365.57c12.279-8.947 26.798-13.677 41.989-13.677 15.194 0 29.713 4.73 41.992 13.677l92.581 67.473h-269.145zm-127.385 123.692c-4.885 0-8.858-3.973-8.858-8.858v-28.698c0-4.885 3.973-8.858 8.858-8.858h338.749c4.885 0 8.858 3.973 8.858 8.858v28.698c0 4.885-3.973 8.858-8.858 8.858-159.28 0-184.608 0-338.749 0zm226.079 246.072c0 .011.004.022.004.033 0 .01-.004.019-.004.029v55.862h-189.468c-47.073 0-81.758-44.094-70.554-89.893l49.488-202.3h310.201l26.128 106.804-9.339-5.339c-1.508-.862-3.361-.862-4.864 0l-54.56 31.19c-1.327.758-2.447 2.317-2.47 4.193 0 .011.004.022.004.033 0 .01-.004.019-.004.029v65.384l-52.092 29.78c-1.364.781-2.448 2.391-2.47 4.195zm54.563 91.64-44.759-27.595v-55.28l44.759 27.133zm4.902-64.235c-5.216-3.162-41.214-24.984-44.902-27.219l44.902-25.67c4.539 2.656-16.443-9.622 44.392 25.978-10.745 6.514-34.368 20.835-44.392 26.911zm49.658 36.64-44.756 27.595v-55.742c4.24-2.57 39.977-24.234 44.756-27.131zm0-72.432c-61.334-36.984-40.18-24.228-44.756-26.987v-55.278c2.012 1.22 41.403 25.101 44.756 27.133zm-39.998-90.846 44.9-25.668 44.902 25.668c-10.019 6.074-33.148 20.095-44.902 27.221zm94.56 8.581v55.278c-4.577 2.759 16.579-9.996-44.759 26.988v-55.132c4.081-2.474 39.578-23.993 44.759-27.134zm0 182.292-44.759-27.595v-55.28l44.759 27.133zm4.902-64.235c-6.484-3.93-26.883-16.296-44.395-26.911 60.839-35.6 39.855-23.322 44.395-25.978l44.902 25.67c-3.882 2.353-39.056 23.676-44.902 27.219zm49.661 36.64-44.759 27.595v-55.742l44.759-27.133z"/><path d="m170.133 66.492-7.547 5.931c-2.13 1.673-2.499 4.754-.826 6.881 1.671 2.131 4.752 2.499 6.884.826l7.547-5.931c2.128-1.673 2.496-4.754.823-6.881-1.673-2.133-4.756-2.494-6.881-.826z"/><path d="m217.996 40.14c-2.13-1.675-5.213-1.302-6.881.826-1.673 2.128-1.304 5.211.826 6.881l7.547 5.929c2.132 1.677 5.211 1.3 6.881-.826 1.673-2.128 1.304-5.211-.826-6.881z"/><path d="m265.546 79.834-7.547-5.929c-2.13-1.673-5.213-1.307-6.881.826-1.673 2.128-1.304 5.211.826 6.881l7.547 5.929c2.132 1.677 5.211 1.3 6.881-.826 1.672-2.128 1.304-5.211-.826-6.881z"/></g></g><g id="Layer_1"/></svg>