<svg id="icons" enable-background="new 0 0 64 64" height="64" viewBox="0 0 64 64" width="64" xmlns="http://www.w3.org/2000/svg"><g><g><g><path d="m62.521 52.989c-.005.001-.012.001-.02 0h-30.001c-.553 0-1-.447-1-1v-17.994c0-.553.447-1 1-1h29.996c.552 0 1 .447 1 1l.006 17.794c.013.064.02.132.02.2-.001.553-.448 1-1.001 1zm-29.021-2h28.002l-.006-15.994h-27.996z"/></g><g><path d="m47.498 47.989c-2.757 0-5-2.243-5-5s2.243-5 5-5c2.756 0 4.998 2.243 4.998 5s-2.242 5-4.998 5zm0-8c-1.654 0-3 1.346-3 3s1.346 3 3 3c1.653 0 2.998-1.346 2.998-3s-1.345-3-2.998-3z"/></g><g><path d="m62.496 37.987c-2.202 0-3.994-1.793-3.994-3.996 0-.553.447-1 1-1s1 .447 1 1c0 1.101.895 1.996 1.994 1.996.553 0 1 .447 1 1s-.447 1-1 1z"/></g><g><path d="m59.502 52.989c-.553 0-1-.447-1-1 0-2.203 1.792-3.996 3.994-3.996.553 0 1 .447 1 1s-.447 1-1 1c-1.1 0-1.994.896-1.994 1.996 0 .553-.447 1-1 1z"/></g><g><path d="m35.498 52.989c-.553 0-1-.447-1-1 0-1.101-.896-1.996-1.996-1.996-.553 0-1-.447-1-1s.447-1 1-1c2.203 0 3.996 1.793 3.996 3.996 0 .553-.447 1-1 1z"/></g><g><path d="m32.498 37.991c-.553 0-1-.447-1-1s.447-1 1-1c1.104 0 2.002-.897 2.002-2 0-.553.447-1 1-1s1 .447 1 1c0 2.206-1.795 4-4.002 4z"/></g></g><g><path d="m32.5 62.005c-.553 0-1-.447-1-1v-9.016c0-.553.447-1 1-1s1 .447 1 1v9.016c0 .553-.447 1-1 1z"/></g><g><path d="m62.502 55.991h-30.002c-.553 0-1-.447-1-1s.447-1 1-1h30.002c.553 0 1 .447 1 1s-.447 1-1 1z"/></g><g><path d="m62.502 58.991h-30.002c-.553 0-1-.447-1-1s.447-1 1-1h30.002c.553 0 1 .447 1 1s-.447 1-1 1z"/></g><g><path d="m62.502 61.999h-30.002c-.553 0-1-.447-1-1s.447-1 1-1h30.002c.553 0 1 .447 1 1s-.447 1-1 1z"/></g><g><path d="m62.502 62.005c-.553 0-1-.447-1-1v-9.016c0-.553.447-1 1-1s1 .447 1 1v9.016c0 .553-.447 1-1 1z"/></g><g><path d="m47.5 30.995c-.553 0-1-.447-1-1v-13c0-.553.447-1 1-1s1 .447 1 1v13c0 .553-.447 1-1 1z"/></g><g><path d="m47.5 17.995h-12.998c-.553 0-1-.447-1-1s.447-1 1-1h12.998c.553 0 1 .447 1 1s-.447 1-1 1z"/></g><g><path d="m36.502 19.997c-.256 0-.512-.098-.707-.293l-2-2.002c-.391-.391-.391-1.024 0-1.414.391-.391 1.023-.391 1.414 0l2 2.002c.391.391.391 1.024 0 1.414-.195.195-.451.293-.707.293z"/></g><g><path d="m34.502 17.995c-.256 0-.512-.098-.707-.293-.391-.391-.391-1.024 0-1.414l2-1.998c.391-.391 1.023-.391 1.414 0s.391 1.024 0 1.414l-2 1.998c-.195.195-.451.293-.707.293z"/></g><g><path d="m15.502 50.001c-.553 0-1-.447-1-1v-13c0-.553.447-1 1-1s1 .447 1 1v13c0 .553-.447 1-1 1z"/></g><g><path d="m28.5 50.001h-12.998c-.553 0-1-.447-1-1s.447-1 1-1h12.998c.553 0 1 .447 1 1s-.447 1-1 1z"/></g><g><path d="m28.5 50.001c-.256 0-.512-.098-.707-.293l-2-2.002c-.391-.391-.391-1.024 0-1.414.391-.391 1.023-.391 1.414 0l2 2.002c.391.391.391 1.024 0 1.414-.195.195-.451.293-.707.293z"/></g><g><path d="m26.5 51.999c-.256 0-.512-.098-.707-.293-.391-.391-.391-1.024 0-1.414l2-1.998c.391-.391 1.023-.391 1.414 0s.391 1.024 0 1.414l-2 1.998c-.195.195-.451.293-.707.293z"/></g><g><path d="m16.498 33.997c-8.822-.001-16-7.179-16-16.001 0-8.823 7.178-16.001 16-16.001 8.823 0 16.002 7.178 16.002 16.001 0 8.822-7.179 16-16.002 16.001zm0-30.002c-7.72 0-14 6.281-14 14.001s6.28 14 14 14.001c7.721-.001 14.002-6.281 14.002-14.001s-6.281-14.001-14.002-14.001z"/></g><g><g><g><path d="m24.492 25.001h-16.002c-.553 0-1-.447-1-1v-3c0-.553.447-1 1-1h16.002c.553 0 1 .447 1 1v3c0 .553-.447 1-1 1zm-15.002-2h14.002v-1h-14.002z"/></g><g><path d="m24.492 20c-.553 0-1-.447-1-1 0-1.103-.897-2-2-2-.553 0-1-.447-1-1s.447-1 1-1c2.206 0 4 1.794 4 4 0 .553-.447 1-1 1z"/></g><g><path d="m24.492 22.001c-.553 0-1-.447-1-1v-2.001c0-.553.447-1 1-1s1 .447 1 1v2.001c0 .553-.447 1-1 1z"/></g><g><path d="m21.492 17h-2.998c-.553 0-1-.447-1-1s.447-1 1-1h2.998c.553 0 1 .447 1 1s-.447 1-1 1z"/></g><g><path d="m18.494 17c-.256 0-.512-.098-.707-.293l-4.002-4.002c-.391-.391-.391-1.023 0-1.414s1.023-.391 1.414 0l4.002 4.002c.391.391.391 1.023 0 1.414-.195.195-.451.293-.707.293z"/></g><g><path d="m8.49 22.001c-.553 0-1-.447-1-1v-8.004c0-.553.447-1 1-1s1 .447 1 1v8.004c0 .553-.447 1-1 1z"/></g><g><path d="m12.492 14.998c-.553 0-1-.447-1-1s.447-1 1-1c.552 0 1-.448 1-1 0-.553.447-1 1-1s1 .447 1 1c0 1.654-1.346 3-3 3z"/></g><g><path d="m12.492 14.998h-4.002c-.553 0-1-.447-1-1s.447-1 1-1h4.002c.553 0 1 .447 1 1s-.447 1-1 1z"/></g></g><g><path d="m15.992 16.499c-.256 0-.512-.098-.707-.293-.391-.391-.391-1.023 0-1.414l1-1c.391-.391 1.023-.391 1.414 0s.391 1.023 0 1.414l-1 1c-.195.195-.451.293-.707.293z"/></g></g></g></svg>