<?xml version="1.0" encoding="UTF-8"?>
<svg xmlns="http://www.w3.org/2000/svg" viewBox="0 0 512 512" width="512" height="512"><g id="OUTLINE"><path d="M472,176H448V104a8.00014,8.00014,0,0,0-4.81055-7.33643l-184-80a7.99683,7.99683,0,0,0-6.3789,0l-184,80A8.00014,8.00014,0,0,0,64,104V261.99121L19.80762,289.18652A8,8,0,0,0,16,296V488a8.00008,8.00008,0,0,0,8,8H232a7.97523,7.97523,0,0,0,5.65894-2.34546A23.85567,23.85567,0,0,0,248,496H456V480H248a8.00917,8.00917,0,0,1-8-8V200a8.00917,8.00917,0,0,1,8-8h64v16H264a8.00008,8.00008,0,0,0-8,8V456a8.00008,8.00008,0,0,0,8,8H376V448H272V224h40v8a8.00008,8.00008,0,0,0,8,8h80a8.00008,8.00008,0,0,0,8-8v-8h40V360h16V216a8.00008,8.00008,0,0,0-8-8H408V192h64a8.00917,8.00917,0,0,1,8,8V456h16V200A24.0275,24.0275,0,0,0,472,176ZM160,480H96V368h64Zm64-8v8H176V360a8.00008,8.00008,0,0,0-8-8H88a8.00008,8.00008,0,0,0-8,8V480H32V300.47021l96-59.07666,96,59.07666Zm56-296H248a23.90124,23.90124,0,0,0-16,6.13074V112h48Zm38.11133,0H296V112h48v36.30139a32.07866,32.07866,0,0,0-15.58594,22.54724ZM392,224H328V188.94434l11.57812-5.78907A7.99967,7.99967,0,0,0,344,176a16,16,0,0,1,32,0,7.99967,7.99967,0,0,0,4.42188,7.15527L392,188.94434Zm40-48H401.88867l-10.30273-5.15137A32.05243,32.05243,0,0,0,360,144V104a8.00008,8.00008,0,0,0-8-8H160a8.00008,8.00008,0,0,0-8,8v96a8.00008,8.00008,0,0,0,8,8h64v73.68359l-91.80762-56.49707a7.9998,7.9998,0,0,0-8.38476,0L80,252.145V109.24512L256,32.72363l176,76.52149ZM216,112v80H168V112Z"/><path d="M123.88379,265.14014l-40,24A8.00072,8.00072,0,0,0,80,296v32a8.00008,8.00008,0,0,0,8,8h80a8.00008,8.00008,0,0,0,8-8V296a8.00072,8.00072,0,0,0-3.88379-6.85986l-40-24A7.99892,7.99892,0,0,0,123.88379,265.14014ZM160,300.5293V320H96V300.5293l32-19.19971Z"/><path d="M456,400a48.0214,48.0214,0,1,0-25.12427,42.1897l51.467,51.467,11.31446-11.31348L443.5415,432.22754A47.81288,47.81288,0,0,0,456,400Zm-48,32a32,32,0,1,1,32-32A32.03635,32.03635,0,0,1,408,432Z"/><path d="M346.34277,250.34326,312,284.68652l-10.34277-10.34326-11.31446,11.31348,16,16a8.00063,8.00063,0,0,0,11.31446,0l40-40Z"/><rect x="368" y="264" width="64" height="16"/><path d="M346.34277,306.34326,312,340.68652l-10.34277-10.34326-11.31446,11.31348,16,16a8.00063,8.00063,0,0,0,11.31446,0l40-40Z"/><rect x="368" y="312" width="64" height="16"/><path d="M301.65723,386.34326l-11.31446,11.31348,16,16a8.00063,8.00063,0,0,0,11.31446,0l40-40-11.31446-11.31348L312,396.68652Z"/></g></svg>
