<svg id="Layer_1" viewBox="0 0 512 512" xmlns="http://www.w3.org/2000/svg" data-name="Layer 1"><path d="m239.652 64.97-153.736 87.993v256.574h24.831v-216.075a6.388 6.388 0 0 1 6.388-6.388h245.034a6.388 6.388 0 0 1 6.388 6.388v64.468a82.813 82.813 0 0 1 24.83 7.346v-112.313zm-36.417 273.786h16.78v70.781h-70.781v-70.781h16.779v27.685a6.388 6.388 0 0 0 6.387 6.388h24.447a6.389 6.389 0 0 0 6.388-6.388zm-24.446 0h11.67v21.3h-11.67zm-29.555-12.776v-70.78h16.779v27.684a6.388 6.388 0 0 0 6.387 6.388h24.447a6.388 6.388 0 0 0 6.388-6.388v-27.684h16.78v70.78zm29.555-70.78h11.67v21.3h-11.67zm-42.331 154.337h-12.935v-209.687h232.258v57.392a82.328 82.328 0 0 0 -51.566 19.664c-42.62 36.227-37.453 102.873 8.882 132.631h-80.307v-160.725a6.388 6.388 0 0 0 -6.388-6.388h-83.556a6.388 6.388 0 0 0 -6.388 6.388zm267.246-.853 8.9 9.943 8.762-7.5-8.218-9.815a83.51 83.51 0 0 1 -9.449 7.371zm3.014 22.436a19.913 19.913 0 0 0 .082 2.714h-354.3v-11.521h296.5l2.09.038a82.556 82.556 0 0 0 41.244-7.288l14.382 16.057zm15.282-39.11 12.853 15.349a21.389 21.389 0 0 1 13.4 7.558l35.82 42.375c6.8 8.04 7.409 20.354-.568 27.179-2.976 2.546-5.943 5.108-8.928 7.642a16.973 16.973 0 0 1 -14.025 3.605 21.543 21.543 0 0 1 -12.738-7.472h-.025l-35.195-41.637h-366.485a6.388 6.388 0 0 1 -6.388-6.387v-24.3a6.388 6.388 0 0 1 6.388-6.388h27.031v-249.258l-20.485 11.724a6.384 6.384 0 0 1 -8.256-1.684l-20.176-23.216a6.387 6.387 0 0 1 1.653-9.7l-.006-.011 210.613-120.539a6.377 6.377 0 0 1 6.425.05l210.526 120.5a6.371 6.371 0 0 1 1.353 10.045l-20.153 23.187a6.372 6.372 0 0 1 -7.979 1.361l-.006.011-20.486-11.725v112.576a82.72 82.72 0 0 1 15.837 119.155zm7.676 28.785-9.355 8.119c-1.827 2.422-.621 6.359 1.377 8.723l35.82 42.375-.015.012.042.049.013-.01c2.269 2.653 6.459 4.294 8.782 2.319l8.878-7.593c2.4-2.052 1.428-6.533-.879-9.263l-35.82-42.375c-2.2-2.605-6.419-4.43-8.843-2.356zm-67.66-150.678a69.912 69.912 0 0 1 65.447 75.473c-1.472 18.159-9.626 34.777-24.4 47.616a69.755 69.755 0 0 1 -50.976 16.419c-18.159-1.472-34.777-9.625-47.616-24.4a69.934 69.934 0 0 1 57.109-115.134c.144.014.289.023.436.026zm-4.863 24.55v-.025a45.283 45.283 0 1 1 1.161 90.558c-25.13.294-45.809-20.18-45.809-44.675h-.024c-.263-25.261 20.2-45.858 44.672-45.858zm0-12.776v.025c32.121-.35 58.425 25.63 58.611 57.35a58.021 58.021 0 1 1 -116.035 1.26h.024a58.034 58.034 0 0 1 57.4-58.634zm-306.301-123.565-11.911-13.7 200.711-114.884 200.71 114.88-11.911 13.7-185.63-106.245a6.382 6.382 0 0 0 -6.425.05z" fill-rule="evenodd"/></svg>