<svg id="Layer_1" viewBox="0 0 64 64" xmlns="http://www.w3.org/2000/svg" data-name="Layer 1"><path d="m51.9 45.423a15.221 15.221 0 0 0 -.959-16.289v-11.791a1 1 0 0 0 -.5-.864l-23.464-13.727a1 1 0 0 0 -1.01 0l-23.467 13.727a1 1 0 0 0 -.5.864v29.04a1 1 0 0 0 1 1h23.68a15.169 15.169 0 0 0 19.359 3.9l7.335 8.417a4.936 4.936 0 0 0 3.54 1.681h.165a4.92 4.92 0 0 0 3.237-8.626zm-47.9-27.506 22.472-13.143 22.472 13.143v8.963a15.068 15.068 0 0 0 -3.455-2.411v-3.023a1 1 0 0 0 -1-1h-36.034a1 1 0 0 0 -1 1v23.937h-3.455zm26.1 7.547h-20.645v-3.018h34.034v1.2a15.228 15.228 0 0 0 -13.389 1.818zm-20.645 19.919v-17.919h18.274a15.21 15.21 0 0 0 -2.372 17.919zm19.855 1.975a13.2 13.2 0 1 1 9.332 3.866 13.109 13.109 0 0 1 -9.332-3.866zm29.836 11.173a2.923 2.923 0 0 1 -4.265-.145l-7.15-8.2a13.679 13.679 0 0 0 3.069-3.071l8.2 7.15a2.925 2.925 0 0 1 .145 4.266z"/><path d="m38.642 27.6a10.431 10.431 0 1 0 10.43 10.43 10.442 10.442 0 0 0 -10.43-10.43zm0 18.861a8.431 8.431 0 1 1 8.43-8.431 8.44 8.44 0 0 1 -8.43 8.427z"/><path d="m41.749 32.841-1.68 1.68-2.035-2.035a1 1 0 0 0 -1.414 1.414l2.035 2.035-1.876 1.877-1.245-1.245a1 1 0 0 0 -1.414 1.414l1.952 1.952a1 1 0 0 0 1.414 0l3.289-3.289 2.386-2.386a1 1 0 1 0 -1.414-1.414z"/><path d="m42.1 40.645h-6.8a1 1 0 0 0 0 2h6.8a1 1 0 0 0 0-2z"/></svg>